<svg width="160" height="160" viewBox="0 0 160 160" fill="none" xmlns="http://www.w3.org/2000/svg">
<path fill-rule="evenodd" clip-rule="evenodd" d="M119.261 33.3246C96.7539 20.4124 79.2048 58.3141 66.4584 63.0855C40.7698 72.7015 -6.94451 81.0649 2.15507 99.7598C14.6495 125.429 58.123 127.991 89.2117 125.429C129.648 122.098 163.513 58.711 119.261 33.3246Z" fill="white" fill-opacity="0.48"/>
<path fill-rule="evenodd" clip-rule="evenodd" d="M125.935 82.6475C126.167 82.852 126.246 83.1722 126.304 83.4787L126.657 85.402C126.706 85.6695 126.93 85.7961 127.017 85.6439C127.108 85.4827 127.352 85.5496 127.516 85.6367L129.56 86.724C128.865 87.2229 128.044 87.5462 127.195 87.6558C126.777 87.7099 126.709 88.2829 126.754 88.7024L126.875 89.8437C126.912 90.1993 126.353 90.3202 126.073 90.0971C125.794 89.874 125.688 89.5004 125.467 89.2187C125.112 88.7635 124.483 88.5938 123.907 88.6465C123.332 88.6992 122.793 88.9404 122.266 89.1782C121.927 89.3315 121.553 88.9254 121.58 88.5539C121.603 88.2261 121.813 87.9513 122.027 87.6955L122.112 87.5941C122.352 87.3093 122.592 86.9717 122.552 86.6015C122.518 86.2932 122.298 86.0449 122.077 85.8232L121.948 85.6936C121.743 85.4843 121.548 85.2518 121.513 84.9657C121.472 84.6387 121.77 84.2623 122.084 84.3637C123.292 84.754 124.746 83.9929 125.114 82.7781C125.209 82.4625 125.688 82.4294 125.935 82.6475Z" fill="white"/>
<path fill-rule="evenodd" clip-rule="evenodd" d="M125.935 82.6475C126.167 82.852 126.246 83.1722 126.304 83.4787L126.657 85.402C126.706 85.6695 126.598 86.0835 126.343 85.9899C125.979 85.219 125.785 84.3684 125.78 83.5161C125.641 83.3828 125.435 83.5811 125.348 83.753L124.486 85.4709C124.334 85.7734 123.881 85.7066 123.581 85.5484L123.421 85.4635C123.161 85.3289 122.878 85.2097 122.632 85.3424C122.507 85.7186 123.065 85.9062 123.355 86.177C123.686 86.4862 123.667 87.0413 123.435 87.4306C123.204 87.8199 122.813 88.0823 122.435 88.3315C122.978 88.4211 123.557 88.2624 123.979 87.9085C124.17 87.7486 124.344 87.5434 124.588 87.4924C124.964 87.4137 125.303 87.7402 125.498 88.0716C125.694 88.403 125.849 88.7911 126.183 88.9822C126.35 88.7188 126.261 88.3881 126.155 88.0835L126.105 87.9415C125.984 87.6011 125.93 87.15 126.226 86.9434C126.338 86.8657 126.476 86.8429 126.612 86.8281L128.07 86.6822L127.23 86.0705C127.089 85.9674 126.93 85.7961 127.017 85.6439C127.108 85.4827 127.352 85.5496 127.516 85.6367L129.56 86.724C128.865 87.2229 128.044 87.5462 127.195 87.6558C126.777 87.7099 126.709 88.2829 126.754 88.7024L126.875 89.8437C126.912 90.1993 126.353 90.3202 126.073 90.0971C125.794 89.874 125.688 89.5004 125.467 89.2187C125.112 88.7635 124.483 88.5938 123.907 88.6465C123.332 88.6992 122.793 88.9404 122.266 89.1782C121.927 89.3315 121.553 88.9254 121.58 88.5539C121.603 88.2261 121.813 87.9513 122.027 87.6955L122.112 87.5941C122.352 87.3093 122.592 86.9717 122.552 86.6015C122.518 86.2932 122.298 86.0449 122.077 85.8232L121.948 85.6936C121.743 85.4843 121.548 85.2518 121.513 84.9657C121.472 84.6387 121.77 84.2623 122.084 84.3637C123.292 84.754 124.746 83.9929 125.114 82.7781C125.209 82.4625 125.688 82.4294 125.935 82.6475Z" fill="#FFAB01"/>
<path fill-rule="evenodd" clip-rule="evenodd" d="M45.5162 48.1553C44.6416 44.2694 47.0245 37.8189 51.2821 35.2254C55.5397 32.6318 60.9857 32.4541 65.7274 33.9943C65.5762 29.415 70.2216 25.4854 74.7891 25.8637C79.3566 26.2421 83.1463 30.3416 83.76 34.8822C84.2382 38.4201 82.4215 42.6343 78.9084 43.2751C80.1502 47.7108 80.8407 52.3777 80.1591 56.9332C79.4775 61.4886 77.309 65.9385 73.6494 68.737C72.639 70.0956 73.4022 72.1452 74.7323 73.1931C76.0624 74.241 77.7839 74.6093 79.3756 75.1876C86.0447 77.6107 90.7401 84.1885 91.8346 91.1975C92.9291 98.2065 90.743 105.475 86.7923 111.368C84.0862 115.404 80.405 118.989 75.7994 120.541C69.3348 122.72 62.247 120.598 55.9697 117.928C53.5768 116.91 51.14 115.753 49.4509 113.776C47.6401 111.657 44.2177 112.802 41.7497 114.098C43.3908 114.778 45.0318 115.459 46.6728 116.14C47.0255 116.286 47.408 116.46 47.5716 116.805C47.9158 117.531 47.0678 118.229 46.35 118.591C45.5788 118.979 44.8075 119.367 44.0362 119.755C39.3018 122.139 34.3712 124.574 29.0725 124.721C23.2795 124.882 17.8073 122.293 12.5937 119.764C12.0142 119.483 11.3999 119.169 11.0848 118.608C10.7697 118.046 10.9458 117.17 11.5686 117.006C17.4174 115.459 22.9548 112.745 27.7597 109.07C27.3921 106.782 27.4787 104.423 28.0131 102.168C28.0903 101.842 28.2015 101.484 28.4922 101.317C29.2069 100.907 29.8277 101.988 29.954 102.802C30.2727 104.858 30.5915 106.913 30.9102 108.968C34.7377 108.545 38.4524 107.14 41.601 104.923C39.1452 102.946 36.6895 100.969 34.2337 98.9918C32.8167 97.851 31.449 97.1686 30.6837 94.9348C30.1736 93.4455 30.5853 91.9158 31.919 90.3454C30.4302 82.9279 29.7787 77.3364 29.9647 73.571C30.0143 72.5659 30.1269 71.4809 30.8036 70.7359C31.9981 69.421 34.3435 69.988 35.4338 71.3906C36.5241 72.7931 36.7066 74.6753 36.8476 76.446C40.999 75.9389 45.1505 75.4319 49.3019 74.9248C50.8208 74.7393 52.3936 74.5581 53.8555 75.01C55.6896 75.577 57.1626 77.1828 57.5691 79.0585C59.3209 78.5851 61.229 78.0022 62.2183 76.4814C63.2076 74.9605 62.3697 72.3154 60.5567 72.3938C54.8856 72.6392 49.3394 68.4322 48.0487 62.9061C47.7204 61.5007 47.5928 59.9388 46.6059 58.8855C45.042 57.2163 43.8504 55.0645 43.858 52.7775C43.8657 50.4905 44.8241 50.2176 45.5162 48.1553ZM11.6644 118.538C11.7921 118.729 12.015 118.828 12.226 118.919C14.3916 119.845 16.5573 120.772 18.7229 121.698C19.7082 122.12 20.6968 122.543 21.7273 122.837C24.6012 123.659 27.6979 123.459 30.5553 124.336C30.9019 124.443 31.2739 124.333 31.6191 124.222C34.1112 123.419 36.574 122.526 39.001 121.544C41.5401 120.516 44.0563 119.383 46.3107 117.828C46.5158 117.686 46.7286 117.529 46.8222 117.298C46.9158 117.067 46.8296 116.746 46.5898 116.678C45.0684 116.246 43.569 115.736 42.0995 115.152C41.627 114.964 41.0952 114.696 40.995 114.198C39.7003 114.25 38.5682 115.066 37.6133 115.941C36.6583 116.817 35.7613 117.806 34.5846 118.348C33.4079 118.89 31.8287 118.843 31.0135 117.836C30.9265 117.729 30.8391 117.605 30.7052 117.57C30.5713 117.535 30.3994 117.669 30.4617 117.792C30.6233 118.112 30.2762 118.516 29.9185 118.494C29.5607 118.472 29.281 118.146 29.193 117.799C29.1049 117.451 28.6269 118.072 27.9342 118.175C27.2414 118.278 26.5065 117.834 26.2763 117.173C26.0867 116.628 25.3432 116.618 24.775 116.516C23.4832 116.284 22.5022 114.931 22.6839 113.631C18.9712 114.869 15.3259 116.309 11.7693 117.942C11.5606 118.037 11.5368 118.347 11.6644 118.538Z" fill="white"/>
<path d="M63.7868 65.0733C64.877 65.0733 65.7608 64.1898 65.7608 63.0999C65.7608 62.0101 64.877 61.1266 63.7868 61.1266C62.6967 61.1266 61.8129 62.0101 61.8129 63.0999C61.8129 64.1898 62.6967 65.0733 63.7868 65.0733Z" fill="#FFAB01"/>
<path d="M50.0857 63.4488C50.6629 63.4488 51.1307 62.9809 51.1307 62.4038C51.1307 61.8266 50.6629 61.3588 50.0857 61.3588C49.5086 61.3588 49.0407 61.8266 49.0407 62.4038C49.0407 62.9809 49.5086 63.4488 50.0857 63.4488Z" fill="#FFAB01"/>
<path fill-rule="evenodd" clip-rule="evenodd" d="M73.2128 71.0199C73.3937 71.9579 73.931 72.8666 74.6464 73.4301C75.9765 74.478 78.9663 75.557 80.558 76.1353C80.7028 76.1879 79.8862 76.649 78.832 77.6685C75.9779 80.4288 69.7373 85.3715 63.6407 82.8876C62.9281 82.5973 62.3323 82.263 61.847 81.9088C61.3997 81.5824 65.5044 82.0526 69.3416 81.3253C73.1998 80.5941 76.7894 78.6621 75.8286 77.1304C74.9255 75.6907 72.3855 73.2522 72.1874 71.8179C71.9235 69.907 73.0573 70.2138 73.2128 71.0199Z" fill="#E5E5EA"/>
<path fill-rule="evenodd" clip-rule="evenodd" d="M11.5861 117.995C11.5861 117.23 14.0005 116.61 18.128 115.058C20.9668 113.99 26.5002 110.902 29.2226 110.758C31.0342 110.662 38.2738 113.312 42.9985 115.215C45.3741 116.171 47.2067 116.771 47.2067 117.078C47.2067 117.694 42.1625 120.671 37.007 122.627C34.4907 123.582 32.1298 124.438 29.9646 124.38C23.3637 124.204 11.5861 119.933 11.5861 117.995Z" fill="white"/>
<path fill-rule="evenodd" clip-rule="evenodd" d="M104.84 54.4157C95.3741 58.4574 87.4665 65.3635 79.9322 72.3865L79.4714 72.8166C79.0319 73.2273 78.3647 73.6567 77.8904 73.2866L79.3544 71.9543C87.0147 64.9966 94.9347 58.0975 104.413 53.9986C111.699 50.8472 111.622 51.5198 104.84 54.4157ZM64.067 121.738L68.5074 126.573C68.725 126.81 68.9516 127.064 69.0125 127.38C69.0734 127.696 68.8903 128.082 68.5702 128.115L59.4278 129.071C57.9093 129.23 56.3607 128.177 55.9234 126.715C55.4862 125.252 56.186 123.539 57.5086 122.776C58.8312 122.014 60.6453 122.254 61.7431 123.315C62.0151 123.578 62.4927 123.355 62.6857 123.03C62.8788 122.704 62.9205 122.306 63.12 121.984C63.3195 121.663 63.8112 121.459 64.067 121.738ZM56.6944 124.529C56.1275 125.604 56.486 127.061 57.4563 127.794C57.9318 128.153 58.5156 128.346 59.104 128.441C59.935 128.575 60.8991 128.473 61.4334 127.823C61.6284 127.586 61.7479 127.295 61.8295 126.999C62.101 126.013 61.963 124.921 61.4546 124.033C61.3162 123.792 61.1034 123.54 60.8252 123.552C60.6931 123.558 60.5703 123.624 60.4387 123.638C60.2197 123.66 60.0169 123.535 59.8173 123.443C58.7148 122.929 57.2613 123.453 56.6944 124.529ZM63.6725 122.708C63.498 123.435 63.1367 124.118 62.6329 124.671C62.4909 124.827 62.5258 125.068 62.5545 125.276C62.6946 126.293 62.463 127.357 61.913 128.224C62.8143 128.01 63.736 127.883 64.6615 127.843C65.9301 127.789 67.2536 127.891 68.4163 127.381C67.7951 127.111 67.2679 126.63 66.9417 126.036C66.7499 125.687 66.4845 125.385 66.2213 125.086L64.1995 122.79C64.0534 122.624 63.7241 122.493 63.6725 122.708ZM40.7122 122.664C41.0021 123.569 42.0925 123.879 43.0372 124.042L49.3416 125.095C50.7994 125.338 52.2956 125.581 53.7453 125.294C54.0188 125.24 54.1634 125.674 53.983 125.886C53.8025 126.099 53.4885 126.124 53.2097 126.125C51.9467 126.129 50.6911 125.961 49.441 125.774L48.1096 125.571C45.7531 125.209 43.3978 124.823 41.0912 124.223C40.6964 124.12 40.2874 124.003 39.9852 123.729C39.683 123.455 39.5258 122.976 39.7384 122.628C39.9511 122.28 40.5878 122.276 40.7122 122.664ZM74.7891 25.8637C79.3566 26.2421 83.1463 30.3416 83.76 34.8822C84.2382 38.4201 82.4215 42.6343 78.9084 43.2751C80.1502 47.7108 80.8407 52.3778 80.1591 56.9332C79.4775 61.4886 77.309 65.9386 73.6494 68.737C72.639 70.0956 73.4022 72.1452 74.7323 73.1931C76.0624 74.241 77.7839 74.6093 79.3756 75.1876C86.0447 77.6107 90.7401 84.1885 91.8346 91.1975C92.9291 98.2065 90.743 105.475 86.7923 111.368C84.0862 115.404 80.405 118.989 75.7994 120.541C69.3995 122.698 62.3887 120.64 56.1583 118.008L55.9697 117.928C53.6267 116.931 51.2415 115.801 49.5574 113.899L49.4509 113.776C47.6401 111.657 44.2177 112.802 41.7497 114.098L46.6728 116.14C47.0255 116.286 47.408 116.46 47.5716 116.805C47.9158 117.531 47.0678 118.229 46.35 118.591L43.4594 120.045C38.9014 122.333 34.1564 124.58 29.0725 124.721C23.3468 124.88 17.9346 122.353 12.7757 119.852L12.4483 119.693C11.9139 119.429 11.3736 119.123 11.0848 118.608C10.7697 118.046 10.9458 117.17 11.5686 117.006C17.4174 115.459 22.9548 112.745 27.7597 109.07C27.3921 106.782 27.4787 104.423 28.0131 102.168L28.0403 102.058C28.1173 101.765 28.2338 101.466 28.4922 101.317C29.2069 100.907 29.8277 101.988 29.954 102.802L30.9102 108.968C34.7377 108.545 38.4524 107.14 41.601 104.923L34.0357 98.8321C32.6812 97.7365 31.3098 96.5521 30.6837 94.9348C30.0272 93.2385 30.5554 90.9393 32.2521 90.2829C32.386 83.8575 32.0472 77.4224 31.2394 71.0465C30.1224 77.4144 31.0201 83.9431 31.919 90.3455C30.3776 85.0114 29.7102 79.4261 29.9504 73.8791L29.9647 73.571C30.0143 72.5659 30.1269 71.4809 30.8036 70.736C31.9981 69.421 34.3435 69.988 35.4338 71.3906C36.5241 72.7931 36.7066 74.6753 36.8476 76.446L49.5873 74.8903C51.017 74.7192 52.485 74.5863 53.8555 75.01C55.6896 75.577 57.1626 77.1828 57.5691 79.0585L57.8679 78.9769C59.534 78.5161 61.285 77.9161 62.2183 76.4814C63.1971 74.9767 62.3873 72.3716 60.6142 72.3923L60.5567 72.3939C54.8856 72.6392 49.3394 68.4322 48.0487 62.9061C47.7204 61.5007 47.5928 59.9388 46.6059 58.8855C45.042 57.2164 43.8504 55.0645 43.858 52.7775C43.8657 50.4905 45.3243 48.132 47.5457 47.5852C49.767 47.0385 52.396 48.8913 52.2043 51.1703C53.282 51.0606 54.3844 51.2008 55.4003 51.5768C54.821 50.0153 56.3226 48.2918 57.9731 48.0651C59.6235 47.8385 61.2317 48.6626 62.6042 49.6066C63.9767 50.5505 65.2882 51.6618 66.8839 52.1403L66.9574 51.9701C67.2872 51.2004 67.5909 50.3782 67.4247 49.5645C67.2462 48.6905 66.2613 47.9346 65.4638 48.3348C64.904 46.7313 64.0132 45.2441 62.8635 43.9936L59.6685 45.4995C59.2569 44.8832 59.0047 44.1614 58.9431 43.4228C56.8335 44.6281 54.5438 45.5176 52.1737 46.0525L52.4163 44.2435L45.3336 47.9212C44.2879 43.0477 47.0245 37.8189 51.2821 35.2254C55.5397 32.6318 60.9857 32.4541 65.7274 33.9943C65.5762 29.415 70.2216 25.4854 74.7891 25.8637ZM109.633 105.295C105.553 106.279 101.592 107.757 97.8639 109.686L97.5943 109.827C95.5289 110.915 93.5015 112.218 92.2068 114.153C93.0811 114.001 94.0145 114.229 94.7206 114.766C95.1666 115.105 95.5392 115.614 95.5126 116.174C95.4988 116.464 95.3784 116.741 95.2158 116.982C94.5807 117.922 93.2359 118.304 92.2009 117.838C91.1658 117.372 90.5614 116.112 90.8456 115.013C86.4545 116.512 82.6796 119.736 80.5095 123.836L80.437 123.974C80.33 124.18 80.1994 124.411 79.9726 124.463C79.6609 124.533 79.3833 124.185 79.3976 123.866C79.4119 123.547 79.6165 123.272 79.8143 123.021C82.3731 119.772 85.3635 116.68 89.1904 115.113L89.4786 114.997C90.3814 114.639 91.3264 114.287 91.9094 113.524C93.3234 111.672 95.3591 110.401 97.4261 109.325C99.2762 108.362 101.19 107.521 103.151 106.81C105.118 106.097 107.13 105.515 109.146 104.951L115.976 103.05C114.129 104.348 111.828 104.765 109.633 105.295ZM22.6839 113.631C18.9712 114.869 15.3259 116.309 11.7693 117.942C11.5606 118.037 11.5368 118.347 11.6644 118.538C11.7921 118.729 12.015 118.828 12.226 118.919L18.7229 121.698C19.7082 122.12 20.6968 122.543 21.7273 122.837C24.6012 123.659 27.6979 123.459 30.5553 124.336C30.9019 124.443 31.2739 124.333 31.6191 124.222C34.1112 123.419 36.574 122.526 39.001 121.544C41.5401 120.516 44.0563 119.383 46.3107 117.828C46.5158 117.686 46.7286 117.529 46.8222 117.298C46.9158 117.067 46.8296 116.746 46.5898 116.678C45.0684 116.246 43.569 115.736 42.0995 115.152L41.9975 115.11C41.5533 114.924 41.088 114.66 40.995 114.198C39.7003 114.25 38.5682 115.066 37.6133 115.941C36.6583 116.817 35.7613 117.806 34.5846 118.348C33.4079 118.89 31.8287 118.843 31.0135 117.837L30.9609 117.771C30.8896 117.683 30.8123 117.598 30.7052 117.57C30.5713 117.535 30.3994 117.669 30.4617 117.792C30.6233 118.112 30.2762 118.516 29.9185 118.494C29.5607 118.472 29.281 118.146 29.193 117.799C29.1364 117.575 29.1413 117.345 29.1684 117.114L29.1752 117.058C29.0161 117.621 28.5175 118.088 27.9342 118.175C27.2414 118.279 26.5065 117.834 26.2763 117.173C26.0867 116.628 25.3432 116.618 24.775 116.516C23.4832 116.284 22.5022 114.931 22.6839 113.631ZM31.4577 91.9411C30.6924 93.302 31.4033 95.0243 32.3459 96.269C35.3019 100.172 40.2529 102.046 43.631 105.59C44.4798 106.481 45.2197 107.467 45.9501 108.458L48.2459 111.575C48.6678 112.148 49.0913 112.722 49.5836 113.236C50.8675 114.575 52.5579 115.44 54.23 116.244C57.6225 117.876 61.1126 119.376 64.7959 120.155C68.4793 120.934 72.393 120.96 75.9369 119.69C79.2539 118.501 82.1121 116.22 84.3327 113.485C86.5005 110.815 88.0917 107.72 89.367 104.525L89.4598 104.291C89.6433 103.825 89.8236 103.337 89.7855 102.838C89.7452 102.31 89.4637 101.829 89.1353 101.414C87.8828 99.8299 85.7895 98.9339 83.785 99.1815C81.8118 99.4253 80.0049 100.794 79.2821 102.644L79.2485 102.732C77.6777 106.989 73.7661 110.191 69.3719 111.327C64.9778 112.463 60.1984 111.649 56.1875 109.525C52.1766 107.401 48.9038 104.039 46.4636 100.214L46.3304 100.002C45.8896 99.295 45.4888 98.5507 45.3336 97.7347C45.1629 96.837 45.3365 95.8274 45.9849 95.1834C46.4133 94.758 47.0229 94.5085 47.3344 93.9914C47.646 93.4744 47.2801 92.5612 46.7053 92.7459L46.3219 92.8672C43.6801 93.689 40.6152 94.3264 38.4898 92.6165L38.2856 92.4531C37.2939 91.6653 36.2342 90.9134 35.0023 90.6425C33.6853 90.3528 32.1185 90.7661 31.4577 91.9411ZM41.9885 105.737C38.7842 107.761 35.168 109.13 31.4264 109.736C30.9324 109.816 30.7997 110.456 30.7919 110.956C30.7672 112.546 30.8442 114.138 31.0223 115.718C31.4276 115.527 31.5933 115.05 31.8697 114.698C32.146 114.345 32.7765 114.152 32.9901 114.546C33.1393 114.821 32.9402 115.165 32.6859 115.348C32.4317 115.53 32.119 115.629 31.8922 115.844C31.3281 116.381 31.623 117.435 32.3103 117.801C32.9975 118.166 33.8669 117.976 34.5258 117.561C35.1847 117.147 35.6937 116.539 36.2524 115.997C37.4473 114.838 38.9089 113.955 40.4911 113.437C42.4998 112.779 44.7365 112.682 46.5036 111.522C46.6226 111.444 46.7458 111.353 46.7907 111.218C46.852 111.033 46.7483 110.842 46.6382 110.678L44.5239 107.608C44.1871 107.119 43.7995 106.594 43.2224 106.454C42.9586 106.39 42.6773 106.415 42.4184 106.333C42.1594 106.252 41.9155 105.998 41.9885 105.737ZM27.2271 110.195C26.4027 110.58 25.9149 111.485 25.8063 112.388C25.6977 113.291 25.9109 114.2 26.1642 115.073C26.3196 115.61 26.492 116.144 26.7491 116.64C26.913 116.956 27.1301 117.271 27.4586 117.408C27.7871 117.546 28.243 117.422 28.3497 117.083C28.3937 116.943 28.374 116.792 28.3485 116.647C28.2529 116.104 28.0812 115.575 27.8403 115.079L27.7392 114.878C27.5943 114.589 27.4578 114.247 27.6441 113.994C27.822 113.752 28.2593 113.652 28.2175 113.355L27.8092 110.454C27.7973 110.369 27.7833 110.28 27.7282 110.214C27.6122 110.076 27.3904 110.119 27.2271 110.195ZM92.5834 114.67C92.3112 114.669 92.0248 114.706 91.8063 114.869C91.6784 114.963 91.5817 115.096 91.5138 115.24C91.2266 115.849 91.4915 116.632 92.0358 117.028C92.5801 117.425 93.3343 117.462 93.9644 117.224C94.4463 117.043 94.9098 116.631 94.8937 116.117C94.881 115.711 94.5727 115.372 94.2327 115.149C93.747 114.831 93.1639 114.673 92.5834 114.67ZM28.7738 101.974C28.7041 102.025 28.6697 102.111 28.6402 102.193C28.2116 103.382 28.1591 104.67 28.1709 105.934C28.2006 109.103 28.6078 112.268 29.3812 115.341L29.4197 115.491C29.5778 116.091 29.7939 116.706 30.2835 117.078C30.3746 112.208 30.0585 107.33 29.3397 102.512C29.293 102.2 29.0276 101.785 28.7738 101.974ZM24.9135 112.441C24.8112 112.47 24.7455 112.568 24.6944 112.661C24.2764 113.423 24.2481 114.387 24.6208 115.173C24.7879 115.525 25.0744 115.867 25.462 115.91C25.62 115.714 25.5477 115.43 25.4592 115.189L25.3828 114.986C25.0983 114.215 24.8648 113.38 25.1156 112.605C25.1483 112.504 25.0158 112.413 24.9135 112.441ZM23.519 113.498C23.2258 114.149 23.3564 114.969 23.8375 115.497C24.0361 115.294 23.9488 114.962 23.8809 114.686C23.7748 114.255 23.7508 113.803 23.8107 113.363C23.7368 113.255 23.5728 113.378 23.519 113.498ZM29.6978 90.276C30.1422 90.6586 30.4247 91.4844 29.897 91.7401C29.5589 91.904 29.1758 91.6644 28.8565 91.4663C27.1975 90.4373 25.0763 90.3615 23.1954 90.885C21.3146 91.4085 19.6331 92.4748 18.0549 93.6239C16.4833 94.7683 14.968 96.024 13.7862 97.5674C12.6045 99.1109 11.7686 100.971 11.7 102.913C11.6178 105.241 12.6237 107.466 13.7869 109.484C14.5282 110.77 15.3642 112.038 16.515 112.972L16.7516 113.159C17.078 113.421 17.4132 113.746 17.33 114.14C16.202 114.089 15.3833 113.081 14.7621 112.138C13.8788 110.797 13.0736 109.406 12.352 107.972C11.7519 106.779 11.2035 105.537 11.0212 104.215C10.6784 101.728 11.6882 99.1998 13.2579 97.2406C14.8275 95.2814 16.9165 93.8111 19.0293 92.4548C20.6341 91.4246 22.2858 90.4365 24.0874 89.8106C25.9453 89.1651 28.2075 88.9927 29.6978 90.276ZM77.3773 79.3237C74.7057 81.8167 71.1544 83.3482 67.5072 83.5802C65.8952 83.6827 64.2308 83.5287 62.7722 82.8349C61.3137 82.1411 60.0851 80.8476 59.7461 79.2688L59.625 79.3061C58.5693 79.6401 57.3606 80.2443 57.3713 81.332C57.4164 85.9448 57.309 90.5592 57.0493 95.1649C56.9995 96.0487 56.6629 97.209 55.7778 97.183C52.6333 97.0906 49.4682 97.8164 46.6784 99.2698C49.8185 104.193 54.2842 108.497 59.8392 110.3C65.3942 112.104 72.0938 110.977 75.9865 106.624C77.2343 105.229 78.1526 103.579 79.037 101.926L79.2406 101.545C79.4287 101.193 79.6201 100.774 79.4529 100.411C79.3461 100.179 79.5763 99.9386 79.7876 99.7957C82.8938 97.6939 87.5188 98.2641 90.0212 101.057C89.8229 100.67 90.0032 100.135 90.3958 99.9468C90.7079 100.448 90.774 101.095 90.5697 101.649C90.7049 101.84 90.953 101.533 90.9744 101.299C91.3081 97.6684 91.2819 94.0044 90.8964 90.3785C90.7574 89.0711 90.5685 87.7555 90.1005 86.5268C89.6902 85.4492 89.0736 84.4615 88.3978 83.5271C86.8432 81.3774 84.9532 79.4706 82.8172 77.8968L82.662 77.7839C82.3233 77.5415 81.9669 77.3182 81.5668 77.2093C79.9828 76.7781 78.5774 78.2039 77.3773 79.3237ZM55.7952 77.2349C54.0291 77.8291 52.1167 77.7148 50.2577 77.8433C47.638 78.0242 45.0537 78.7053 42.6852 79.8389C41.6651 80.3272 40.6783 80.901 39.5995 81.2406C37.3083 81.9619 34.6819 81.5165 32.7569 80.0802C32.3419 83.2475 32.4643 86.4845 33.1173 89.6115C33.1592 89.8123 33.2915 90.0692 33.4877 90.009C34.7897 89.6092 36.19 90.1747 37.3476 90.8921C38.5052 91.6095 39.5932 92.504 40.908 92.859C42.4505 93.2755 44.0851 92.8906 45.6119 92.4067L45.7262 92.3703C46.5088 92.119 47.521 91.9096 48.0228 92.5604C48.4461 93.1093 48.1788 93.9291 47.7307 94.4579C47.2826 94.9868 46.6748 95.3798 46.3092 95.9687C45.8603 96.6918 45.858 97.6684 46.3035 98.3935C49.2193 97.2244 52.3401 96.5686 55.48 96.4651C56.1097 96.4444 56.3305 95.6297 56.3692 95.0011C56.7083 89.4925 56.8124 83.9695 56.6811 78.452C56.6672 77.8639 56.3529 77.0473 55.7952 77.2349ZM103.003 92.1307L103.128 92.1933C103.901 92.5862 104.724 93.1096 104.839 93.956C104.877 94.2348 104.829 94.5181 104.763 94.7915C104.671 95.1701 104.532 95.5584 104.237 95.8136C103.925 96.0841 103.487 96.1609 103.074 96.1449C102.261 96.1133 101.448 95.7348 100.977 95.0717C100.506 94.4086 100.431 93.4602 100.87 92.7758C101.309 92.0914 102.274 91.7696 103.003 92.1307ZM101.798 93.0777C101.316 93.2786 101.142 93.93 101.343 94.4115C101.545 94.8931 102.022 95.2101 102.518 95.3725C103.026 95.5386 103.679 95.525 103.982 95.0851C104.082 94.9387 104.13 94.7622 104.158 94.5868C104.218 94.2047 104.181 93.7816 103.935 93.4832C103.63 93.1135 103.11 93.0393 102.624 93.0118L102.503 93.0058C102.265 92.9951 102.018 92.986 101.798 93.0777ZM40.9792 83.1212C41.0401 83.3524 40.9933 83.5964 40.9516 83.8318C40.6584 85.4901 40.6372 87.1961 40.8885 88.8611L40.935 89.1559C40.9655 89.3644 40.9781 89.5844 40.8583 89.7521C40.7201 89.9457 40.3327 89.9262 40.3134 89.6892C40.1484 87.6717 40.0427 85.6494 39.9965 83.6257C39.9876 83.2392 40.0885 82.7251 40.4741 82.6954C40.7126 82.677 40.9182 82.89 40.9792 83.1212ZM27.4086 79.0783C27.6938 79.164 27.9677 79.3593 28.0503 79.6453C28.133 79.9313 27.9449 80.2928 27.6477 80.3116C27.3707 80.329 27.1592 80.0768 26.9047 79.9661C26.4478 79.7674 25.9351 80.0449 25.515 80.3128L25.3012 80.4509C24.8979 80.7164 24.5072 81.0143 24.2857 81.4377C24.0592 81.8708 24.0402 82.3799 24.0472 82.8686C24.0521 83.2083 24.068 83.553 24.1731 83.8761C24.401 84.5771 25.0515 85.1024 25.773 85.2543C26.4945 85.4063 27.2661 85.2094 27.8765 84.7958L27.996 84.7146C28.1037 84.6436 28.2167 84.5817 28.3435 84.5756C28.5178 84.5672 28.7086 84.7315 28.6494 84.8956C28.6316 84.9448 28.5951 84.9846 28.5586 85.0221C27.561 86.0467 25.8383 86.266 24.6157 85.5241C24.3976 85.3918 24.1943 85.232 24.0294 85.0373C23.534 84.4522 23.4416 83.6321 23.4279 82.8655C23.4206 82.4507 23.4308 82.0296 23.5488 81.6319C23.8036 80.7724 24.5237 80.134 25.2721 79.6404C25.9076 79.2212 26.6795 78.859 27.4086 79.0783ZM21.6367 77.3149L24.1238 80.2676C23.987 80.4156 23.7472 80.4253 23.5624 80.3449C23.3981 80.2735 23.267 80.1458 23.1435 80.0147L21.6843 78.4456C21.4853 80.0381 21.0033 81.5948 20.2676 83.0212C20.196 83.16 20.3989 83.2772 20.5543 83.2932C20.9339 83.3322 21.3177 83.2888 21.692 83.2147L21.8849 83.1757C22.1871 83.1157 22.4971 83.0686 22.7788 83.1802C23.121 83.3157 23.3321 83.8135 23.0577 84.0587C22.8886 84.2099 22.6324 84.1911 22.4073 84.1632L19.9851 83.8637L19.9107 83.8531C19.6715 83.8139 19.4087 83.7203 19.3737 83.4899C19.3525 83.351 19.4297 83.2183 19.5019 83.0978C20.3641 81.6594 20.9384 80.0494 21.1823 78.3903L21.219 78.1272C21.2664 77.8043 21.3503 77.4539 21.6367 77.3149ZM106.373 81.954C106.673 82.1663 106.956 82.5831 106.723 82.8679C106.578 83.0461 106.297 83.0504 106.088 82.9546C105.879 82.8587 105.716 82.6869 105.536 82.5442C104.796 81.9594 103.684 81.8977 102.884 82.3972C102.77 82.4683 102.657 82.5566 102.611 82.6827C102.564 82.8088 102.615 82.9781 102.744 83.0161C103.766 82.5835 104.984 82.644 105.957 83.1757C106.098 83.2526 106.246 83.3549 106.28 83.5114C106.315 83.6679 106.147 83.8556 106.007 83.7773C105.371 83.4218 104.613 83.291 103.896 83.4131C103.561 83.47 103.234 83.58 102.894 83.5907C102.555 83.6015 102.184 83.4883 102.004 83.2007C101.838 82.9353 101.877 82.5771 102.039 82.3092C102.201 82.0413 102.467 81.8515 102.745 81.7069C103.876 81.1186 105.332 81.2178 106.373 81.954ZM72.4875 67.599C70.0624 69.637 67.2126 71.1674 64.1743 72.0648L63.9715 72.1237C63.5771 72.2362 63.0807 72.486 63.1636 72.8876L63.2147 73.1368C63.3663 73.8861 63.4948 74.6492 63.3867 75.4031C63.2701 76.2162 62.8218 77.0301 62.0797 77.3718L62.0115 77.4016C60.6902 77.9453 60.5045 79.9184 61.371 81.0542C62.2374 82.19 63.7399 82.6299 65.1593 82.794C69.325 83.2756 73.6721 81.8793 76.7776 79.0622C77.904 78.0404 78.9119 76.8173 80.3064 76.2103L76.819 74.9341C75.8783 74.5898 74.9252 74.2392 74.1063 73.6623C73.2874 73.0854 72.6045 72.2453 72.4371 71.2579C72.2321 70.0483 72.8121 68.7821 72.4875 67.599ZM32.2594 70.8692C32.1719 70.9081 32.0825 70.9598 32.0404 71.0458C31.9983 71.1319 32.0125 71.2336 32.0274 71.3283L32.8264 76.3635C33.0619 77.8474 33.3927 79.4918 34.6168 80.3632C35.9578 81.3178 37.7992 80.9439 39.3607 80.3988L39.4441 80.3694C42.3508 79.3374 45.1481 77.9007 48.1945 77.4173C50.3818 77.0703 52.6755 77.2189 54.7437 76.4273C53.9872 75.2858 52.3482 75.2918 50.9772 75.4416L39.7765 76.7141C38.9088 76.8127 37.9974 76.9278 37.2927 77.4435C36.9844 77.6691 36.6924 77.9791 36.3106 77.9949C35.9391 78.0102 35.6162 77.4694 35.9074 77.2704L35.9331 77.2547C36.2523 77.079 36.2309 76.6208 36.1655 76.2624L35.8267 74.4055C35.6555 73.4844 35.4463 72.547 34.8951 71.795C34.2997 70.9829 33.1798 70.4604 32.2594 70.8692ZM109.585 78.3951C109.855 78.7095 109.867 79.1919 109.687 79.5652C109.507 79.9385 109.166 80.2129 108.797 80.4021C108.352 80.6303 107.862 80.7494 107.371 80.851L107.126 80.9009C107.029 80.9202 106.928 80.9392 106.835 80.9082C106.758 80.8825 106.695 80.8245 106.644 80.7607C106.391 80.4432 106.4 79.9747 106.571 79.6065C106.742 79.2382 107.049 78.952 107.364 78.6958C107.686 78.4339 108.037 78.1872 108.441 78.0914C108.845 77.9956 109.315 78.0802 109.585 78.3951ZM108.261 78.9476L108.131 79.0345C107.938 79.1669 107.752 79.3115 107.622 79.5045C107.463 79.7405 107.408 80.0697 107.565 80.307L108.604 79.7291C108.773 79.635 108.948 79.5354 109.058 79.376C109.168 79.2166 109.19 78.9786 109.054 78.8405C108.85 78.6333 108.503 78.7867 108.261 78.9476ZM91.6883 67.5807C91.7609 67.6101 91.8098 67.6757 91.8522 67.7428L93.3742 70.2281C93.6462 70.6723 94.2651 70.7218 94.7847 70.6852C95.7806 70.6151 96.767 70.4118 97.7094 70.0827C97.8675 70.0274 98.0175 70.2285 97.9834 70.3925C97.9493 70.5564 97.8084 70.6731 97.6763 70.776L95.3903 72.5574C95.1096 72.5375 95.1893 72.0781 95.4169 71.9128L95.4843 71.8658C95.7037 71.7178 95.9699 71.5716 95.9561 71.3174L94.6349 71.73C94.3827 71.8088 94.1022 71.8863 93.8623 71.7755C93.7028 71.7019 93.5911 71.5575 93.4901 71.4121L91.8117 68.963L91.7828 71.1077C91.7804 71.2835 91.7729 71.4743 91.6612 71.6102C91.5819 71.7067 91.4633 71.7585 91.345 71.8022L89.0292 72.6329C89.6476 73.2512 90.8051 72.6006 91.5453 73.0665C92.0523 73.3857 92.1389 74.097 92.0295 74.6859C91.9201 75.2749 91.6693 75.8479 91.7019 76.446C92.1245 76.1395 92.4349 75.6818 92.5631 75.1758C92.6149 74.9719 92.6403 74.7549 92.7538 74.5777C93.0667 74.0894 93.814 74.1887 94.332 74.4499C94.8499 74.7111 95.3873 75.0871 95.9539 74.9629L95.1318 73.6489C95.0568 73.529 94.979 73.3992 94.9857 73.2579C94.9924 73.1167 95.1265 72.9739 95.2619 73.0149C95.3212 73.0329 95.3654 73.0798 95.4046 73.1289L97.2386 75.5056C96.5945 75.9302 95.7446 75.6627 95.0009 75.4578L94.8906 75.429C94.1651 75.2494 93.2795 75.2316 92.8788 75.8463C92.5965 76.2795 92.2651 76.6808 91.893 77.0401C91.7363 77.1914 91.5575 77.3423 91.341 77.367C91.1245 77.3917 90.8757 77.2276 90.895 77.0106L91.1082 74.6073C91.122 74.4517 91.1325 74.2824 91.0458 74.1524C90.9544 74.0156 90.7822 73.9623 90.6236 73.9185L88.62 73.3654C88.1844 73.2451 88.1812 72.5672 88.5079 72.2551C88.8347 71.943 89.316 71.8776 89.7514 71.7568C90.1869 71.6361 90.6579 71.3798 90.7364 70.9349L91.2449 68.0555C91.2884 67.8093 91.4565 67.4869 91.6883 67.5807ZM37.7814 26.9853L37.4114 27.2859C34.946 29.2945 32.5165 31.4002 30.7083 34.0112C28.8097 36.7528 27.6441 40.1524 28.2093 43.4386C29.033 48.2275 33.3178 52.0413 33.501 56.897C33.5253 57.542 34.1823 57.9434 34.732 58.2821C36.9012 59.6186 38.5087 61.7397 39.5694 64.0559C40.597 66.2997 41.1456 68.731 41.5445 71.1677L41.5827 71.4035C41.6421 71.7751 41.6855 72.198 41.4457 72.488C41.2059 72.7781 40.5895 72.6765 40.6134 72.301C40.8948 67.886 39.2898 63.382 36.2796 60.1393C35.4977 59.2969 34.5893 58.5161 33.4881 58.1862C33.418 59.8868 32.8453 61.6197 31.6329 62.8146C30.4205 64.0094 28.5079 64.5553 26.9384 63.8959C25.3688 63.2366 24.4086 61.2457 25.115 59.6971C25.7068 58.3999 27.1763 57.7445 28.5755 57.4683C29.9483 57.1973 31.3715 57.1832 32.7494 57.4269C32.9349 57.4597 33.0156 57.2006 33.0119 57.0124C32.9123 51.9652 28.2455 48.0137 27.6329 43.0028C27.2981 40.2643 28.2328 37.5076 29.5891 35.105C31.3703 31.9498 33.9043 29.2227 36.9206 27.2144L36.9996 27.1632C37.2412 27.0112 37.5228 26.8815 37.7814 26.9853ZM53.1472 52.6917C52.4719 53.126 52.4892 54.0897 52.4334 54.8905C52.3567 55.9889 51.979 57.0883 51.2422 57.9068C50.5055 58.7252 49.3861 59.228 48.2933 59.0906C48.0106 59.0551 47.9247 59.464 47.9618 59.7465C48.597 64.5873 51.5344 69.3399 56.0999 71.0732C58.8911 72.1329 62.0438 71.9921 64.8895 71.0889C67.6674 70.2072 70.1817 68.639 72.4795 66.8439L72.6472 66.7122C72.9804 66.4491 73.3154 66.175 73.547 65.8192C73.7818 65.4584 73.8974 65.0316 73.9537 64.6048C74.2552 62.3182 72.7268 59.9257 70.5249 59.2375C70.2657 59.1565 70.3257 58.7362 70.5531 58.5879C70.7804 58.4395 71.0732 58.4496 71.3329 58.3703C72.0363 58.1554 72.3599 57.3545 72.5205 56.6369C72.7411 55.6509 72.803 54.5265 72.1918 53.7219C71.3658 52.6346 69.7597 52.6359 68.3979 52.7402L66.1882 52.9093C65.4255 52.9676 64.4438 53.2363 64.408 54.0002C64.331 55.6453 63.6061 57.284 62.3254 58.3199C61.0447 59.3557 59.2003 59.7139 57.6799 59.0798C56.1837 58.4558 55.1266 56.8274 55.2995 55.2197L55.3088 55.142C55.3989 54.4619 55.3493 53.7234 54.9508 53.165C54.5522 52.6065 53.7243 52.3206 53.1472 52.6917ZM71.3982 26.9843C70.4129 27.2643 69.4664 27.716 68.6886 28.3823C67.6015 29.3135 66.8787 30.6592 66.7029 32.0796C66.6406 32.5828 66.7407 33.2319 67.2296 33.3671C68.4239 33.6974 69.4925 34.4633 70.1888 35.488C69.0597 34.8163 67.822 34.3276 66.5385 34.0466L71.9634 37.1154C72.2779 37.2933 72.6044 37.4822 72.8022 37.7845C72.9999 38.0868 73.0206 38.538 72.7489 38.7761L72.3697 38.4811C71.4192 37.7457 70.4476 37.0328 69.3838 36.4763C68.575 36.0531 67.7213 35.7248 66.8629 35.412L66.3944 35.2425C64.8054 34.6693 63.202 34.0926 61.5283 33.8636C59.9749 33.6511 58.38 33.7454 56.8625 34.1397L56.5632 34.2164C54.5132 34.735 52.3757 35.159 50.6809 36.412C49.6727 37.1574 48.8832 38.1552 48.1335 39.1601L47.9567 39.3999C46.4673 41.4443 45.1063 43.9647 45.9777 46.3103C49.9786 45.8176 53.0954 42.723 56.7197 40.9589C56.9968 40.824 57.4536 40.7828 57.4957 41.0879L53.4401 43.4838C53.5527 44.1025 53.4463 44.7588 53.144 45.3102C56.1071 44.4732 58.8773 42.9618 61.1854 40.9244L61.3321 40.7937C61.6982 40.4642 62.4036 40.1916 62.5596 40.6587L62.3612 40.7695C61.6334 41.1788 60.9094 41.6264 60.4077 42.2892C59.8603 43.0122 59.6424 44.0632 60.1276 44.8293L65.2473 41.8157C65.4553 41.6933 65.6821 41.5665 65.9221 41.5916C66.1622 41.6168 66.3872 41.8753 66.2835 42.0931L66.1094 42.1294C65.5568 42.2468 64.9964 42.3939 64.5661 42.7537C64.0905 43.1515 63.8442 43.8972 64.1977 44.4065C64.8316 45.3202 65.346 46.3166 65.7237 47.3624C65.7319 46.9051 66.3554 46.6712 66.7665 46.872C67.1776 47.0728 67.395 47.526 67.544 47.9584C67.9701 49.1956 68.0827 50.5393 67.8684 51.8301C69.1558 52.2846 70.6658 51.7477 71.9042 52.3226C73.0536 52.8562 73.616 54.2402 73.5361 55.5047C73.4562 56.7691 72.8586 57.9383 72.2204 59.0328C74.0041 60.4144 74.957 62.7941 74.6195 65.0245C74.9305 64.9738 75.1933 64.7055 75.2374 64.3935L75.9448 64.8398C74.8383 65.465 74.0511 66.6253 73.8793 67.8843C78.7406 63.3364 80.3545 56.1285 79.6532 49.5096L79.6258 49.2627C79.3478 46.8725 78.6863 44.3811 76.8883 42.7979C77.8523 42.2422 79.0887 42.4608 80.1202 42.0435C81.0948 41.6493 81.7645 40.7356 82.2169 39.7868C83.7294 36.615 83.2086 32.5794 80.9403 29.8952C78.6721 27.211 74.7791 26.0234 71.3982 26.9843ZM55.506 66.7628C55.6594 66.7881 55.8333 66.84 55.8934 66.9833C55.9893 67.2121 55.7206 67.4213 55.488 67.5079C55.1503 67.6337 54.7958 67.7142 54.437 67.7466C54.1359 67.7739 53.756 67.7158 53.6629 67.4282C53.6016 67.2391 53.708 67.0267 53.869 66.9101C54.03 66.7935 54.2335 66.7541 54.4311 66.7327C54.7886 66.694 55.1513 66.7042 55.506 66.7628ZM50.0067 63.4828C51.0647 64.7258 52.7198 65.384 54.3523 65.3968C55.9848 65.4097 57.5864 64.8197 58.9417 63.9098L59.0557 63.8332C59.2279 63.7189 59.4064 63.6115 59.6083 63.5763C59.8551 63.5334 60.1484 63.637 60.2324 63.8729C58.8148 65.0765 57.0378 65.8714 55.1855 66.0394C53.3333 66.2075 51.4148 65.7324 49.9034 64.6488C49.6307 64.4533 49.3489 64.196 49.3376 63.8608C49.3263 63.5255 49.7892 63.2273 50.0067 63.4828ZM27.8313 58.2178C27.0956 58.4525 26.3552 58.7963 25.8911 59.4133C25.2017 60.3298 25.3222 61.7204 26.0669 62.5926C26.8115 63.4649 28.0707 63.8131 29.1941 63.5813C30.3175 63.3495 31.2928 62.5918 31.9241 61.6343C32.5553 60.6768 32.8644 59.5338 32.9581 58.3909C32.9738 58.1993 32.9389 57.9456 32.7499 57.9105C31.1184 57.607 29.4123 57.7136 27.8313 58.2178ZM53.8996 53.752C53.9303 54.0156 53.8283 54.2742 53.7345 54.5225C53.2047 55.9254 52.8822 57.4064 52.7807 58.9025C52.7643 59.1448 52.7549 59.3961 52.8438 59.6222C52.9278 59.8357 53.1226 60.0214 53.3485 60.0342L53.3887 60.0346C53.5944 60.0273 53.692 60.3338 53.5626 60.4938C53.4333 60.6538 53.1905 60.6718 52.9933 60.6131C52.5883 60.4925 52.298 60.1157 52.1804 59.7099C52.0629 59.3041 52.093 58.8709 52.1518 58.4526C52.3513 57.0343 52.8693 55.6591 52.8947 54.2271C52.9018 53.823 52.9845 53.2782 53.3875 53.2461C53.6521 53.225 53.8689 53.4884 53.8996 53.752ZM58.9338 48.9653C58.0925 49.1384 57.4502 49.8284 57.0139 50.568C56.12 52.0834 55.8653 53.9623 56.3235 55.6608C56.5293 56.4235 56.881 57.1606 57.4329 57.7259C57.9847 58.2912 58.7514 58.6707 59.5415 58.6576C60.0929 58.6485 60.6281 58.4528 61.1071 58.1796C62.7067 57.2672 63.723 55.4181 63.6356 53.5791C63.5482 51.74 62.3611 49.9956 60.6821 49.2389C60.1354 48.9925 59.5213 48.8445 58.9338 48.9653ZM47.3221 48.2113C45.8188 48.7681 44.8484 50.3288 44.6416 51.918C44.4347 53.5073 44.8806 55.1149 45.5162 56.5862C45.6874 56.9824 45.882 57.3853 46.2106 57.6652C46.5393 57.9451 47.0368 58.0706 47.4103 57.8539C47.5841 57.7531 47.7465 57.9889 47.8784 58.1405C48.1412 58.4425 48.6036 58.4682 48.9963 58.3898C50.2899 58.1314 51.284 57.0013 51.6864 55.7453C52.0754 54.5312 51.9924 53.2171 51.7625 51.9608L51.7382 51.831C51.4958 50.564 50.9482 49.1401 49.7142 48.7628C49.0673 48.565 48.2868 48.6806 47.7867 48.2251C47.666 48.1151 47.4752 48.1546 47.3221 48.2113ZM71.2113 53.5834C71.7198 54.1467 71.5117 55.0214 71.2573 55.7441L71.2366 55.8023C71.1349 56.0857 71.0294 56.3758 70.8348 56.6057C70.6402 56.8355 70.3346 56.996 70.0397 56.9346C69.7449 56.8733 69.5151 56.5314 69.6389 56.257C69.7927 55.9163 70.3152 55.8989 70.5038 55.5762L69.9943 55.5281C69.6511 55.4957 69.2816 55.4522 69.0274 55.2195C68.7732 54.9867 68.7412 54.4943 69.0504 54.3418C69.2646 54.2361 69.5226 54.3397 69.721 54.4729C69.9193 54.6061 70.109 54.7748 70.3452 54.811C70.5813 54.8473 70.8684 54.6619 70.8198 54.428C70.7521 54.1025 70.9191 53.7422 71.2113 53.5834ZM59.5808 55.7822C59.6211 56.0061 59.6358 56.2437 59.552 56.4552C59.4682 56.6667 59.2638 56.8437 59.0364 56.8342C58.6843 56.8196 58.4957 56.4141 58.4342 56.0671C58.3582 55.6385 58.4769 55.0485 58.9112 55.0166C59.2829 54.9893 59.5148 55.4155 59.5808 55.7822ZM48.7304 54.8722C48.9058 55.1278 48.8811 55.4693 48.8114 55.7713C48.7222 56.1577 48.498 56.5889 48.1034 56.6292C47.747 56.6657 47.4427 56.3469 47.3262 56.0083C47.184 55.595 47.253 55.0901 47.5758 54.7954C47.8985 54.5006 48.4831 54.5119 48.7304 54.8722ZM49.0589 50.5109C49.2164 50.5832 49.3274 50.7817 49.2477 50.9356L49.0954 50.9755C48.2281 51.2069 47.3036 51.5288 46.8894 52.3127C46.7901 52.5006 46.7257 52.7079 46.6021 52.8807C46.4785 53.0536 46.2701 53.1909 46.0621 53.1472C45.8251 53.0973 45.688 52.8246 45.7133 52.5838C45.7386 52.343 45.8852 52.133 46.0421 51.9487C46.6805 51.1988 47.5802 50.6756 48.5478 50.4916C48.7181 50.4593 48.9014 50.4385 49.0589 50.5109ZM60.1428 50.9438C60.4022 51.1527 60.5992 51.4311 60.8613 51.6366C61.0827 51.8102 61.3624 51.9475 61.4631 52.2102C61.5637 52.4729 61.261 52.8439 61.0414 52.668C60.4681 52.2087 59.8318 51.8283 59.1558 51.5407C58.8493 51.4103 58.9189 50.8948 59.2178 50.748C59.5168 50.6012 59.8835 50.7349 60.1428 50.9438ZM56.9308 49.2964C56.3657 49.4826 55.9642 50.077 56.0026 50.6706C56.2187 50.56 56.3833 50.3534 56.4428 50.1181L56.4343 50.0943C56.6851 49.8962 56.8639 49.6089 56.9308 49.2964Z" fill="#2C2C2E"/>
<path fill-rule="evenodd" clip-rule="evenodd" d="M25.0904 120.435C25.3178 120.437 25.5269 120.543 25.7255 120.659L25.8328 120.722C27.0502 121.451 28.3349 122.068 29.6651 122.561C29.8479 122.629 29.7911 122.936 29.6129 123.015C29.4348 123.095 29.2291 123.024 29.0474 122.953L25.1189 121.425C24.8675 121.327 24.5757 121.178 24.5537 120.909C24.5317 120.641 24.8218 120.433 25.0904 120.435Z" fill="#E5E5EA"/>
<path fill-rule="evenodd" clip-rule="evenodd" d="M18.828 116.156L30.9808 120.466L31.0571 120.495C31.3783 120.62 31.7257 120.835 31.6914 121.167C31.6634 121.437 31.3644 121.611 31.0928 121.602C30.863 121.594 30.6508 121.492 30.4478 121.38L30.3379 121.318C28.6434 120.357 26.8656 119.564 25.0422 118.88C22.9768 118.104 20.853 117.466 18.7258 116.88C18.4005 116.79 17.9882 116.499 18.1748 116.218C18.3056 116.021 18.6049 116.077 18.828 116.156Z" fill="#E5E5EA"/>
</svg>
