<svg width="160" height="160" viewBox="0 0 160 160" fill="none" xmlns="http://www.w3.org/2000/svg">
<path fill-rule="evenodd" clip-rule="evenodd" d="M91.0102 136.149C107.667 136.149 122.283 123.805 114.075 107.038C105.866 90.2706 136.367 90.8122 145.326 79.2239C156.253 65.0916 153.089 5.10207 82.944 41.6746C71.7076 47.5331 42.8501 35.6476 33.278 41.545C22.0106 48.4868 6.15806 62.7013 22.0106 77.2621C29.8193 84.4345 1.82339 103.051 14.085 119.726C26.0493 135.997 34.4361 120.486 52.6515 123.805C70.867 127.123 78.6398 136.149 91.0102 136.149Z" fill="white" fill-opacity="0.48"/>
<path d="M71.6774 106.979C71.6774 106.979 75.5125 105.182 76.9443 103.931C78.3761 102.681 80.1561 99.5741 80.1561 99.5741C80.1561 99.5741 99.7087 113.643 112.458 111.636C115.395 111.174 121.119 109.228 121.484 105.801C122.48 96.4414 108.691 94.0496 111.703 89.3033C113.541 86.4062 119.253 90.718 119.253 90.718L142.944 102.328C142.944 102.328 134.759 122.429 114.898 123.235C90.4649 124.226 71.6774 106.979 71.6774 106.979Z" fill="white"/>
<path fill-rule="evenodd" clip-rule="evenodd" d="M52.8942 28.259C52.6719 28.172 51.4777 26.7152 49.9617 26.4501C49.2728 26.3296 49.8981 27.2036 49.1399 27.2114C46.8819 27.2348 43.2123 26.8122 42.5325 27.2114C42.0273 27.5072 43.1399 28.5405 42.5325 28.588C36.8013 29.0355 28.0581 34.7369 26.1611 37.5029C25.5574 38.3832 30.44 36.8897 29.662 37.3249C28.7889 37.8134 27.8205 41.0116 27.2416 43.4817C26.8407 45.1827 26.5883 47.3718 26.4993 49.7532C26.425 51.8092 26.4547 52.1494 26.7516 53.2735C27.0931 54.5307 27.3603 54.9005 27.8205 54.723C27.9838 54.6639 28.0581 54.442 28.0581 54.0278C28.0581 53.7024 28.2362 52.7262 28.4589 51.8535L28.8449 50.2857L29.0082 50.9365C29.216 51.6908 30.4333 54.0278 31.5319 55.7288C31.5912 55.8191 31.8461 55.7043 32.076 55.1507C32.2854 54.6462 32.2004 53.8403 32.5563 52.9766C33.3668 51.0091 34.9584 48.4511 36.8013 46.4035C39.525 43.3773 40.4287 39.8751 42.9818 37.0637C47.7465 31.8172 53.7266 28.5846 52.8942 28.259Z" fill="white"/>
<path fill-rule="evenodd" clip-rule="evenodd" d="M29.7297 38.0387C28.9654 38.6511 27.8309 43.6181 27.8114 43.7011C27.4106 45.4021 27.0242 51.309 27.4191 52.4273C27.8141 53.5457 28.92 49.5143 28.92 49.5143C28.92 49.5143 30.5915 53.8389 32.0685 55.0246C32.1316 55.0753 30.3129 49.6742 29.7297 46.5211C28.9599 42.3589 30.1647 37.6902 29.7297 38.0387Z" fill="#E5E5EA"/>
<path fill-rule="evenodd" clip-rule="evenodd" d="M58.2182 125.029C59.6434 124.718 62.048 123.637 62.9688 123.267C63.8895 122.897 66.695 118.95 67.7045 114.498C68.4319 111.214 68.8031 106.54 68.3874 105.756C68.326 105.645 68.1015 103.519 68.6992 104.213C70.028 105.756 71.6052 108.178 76.582 103.838C77.9375 102.656 79.7341 101.131 79.2611 99.7822C77.9375 96.0089 72.2 88.4112 71.3254 87.8356C70.2795 87.1475 64.9936 87.7322 57.1271 85.4189C48.2059 82.7954 44.4911 75.0701 41 76.0757C38.1767 76.889 31.4122 81.8868 29.7146 85.0517C21.6999 99.9931 31.4122 110.463 33.6241 113.47L35.7717 114.394L35.8459 116.302L35.9498 117.5C36.1428 119.793 36.217 120 37.2562 120.769C39.8542 122.736 44.9759 124.57 49.6077 125.221C51.7604 125.517 56.4367 125.414 58.2182 125.029Z" fill="white"/>
<path fill-rule="evenodd" clip-rule="evenodd" d="M36.6164 115.604L36.7204 116.802C36.9134 119.094 36.9876 119.302 38.0268 120.071C39.5594 121.231 41.9703 122.345 44.6409 123.198C46.4972 123.79 48.4789 124.256 50.3783 124.523C52.5309 124.819 57.2073 124.715 58.9887 124.331C59.8693 124.14 52.6262 118.471 48.3593 120.071C45.0824 121.299 37.3591 111.928 40.4993 109.48C44.0219 106.734 37.5669 95.9013 37.3591 93.5497C37.1512 91.198 36.3327 90.6361 36.3089 90.7186C36.285 90.8011 36.285 91.0824 36.3492 91.7603C36.6262 94.6825 36.6164 115.604 36.6164 115.604Z" fill="#E5E5EA"/>
<path fill-rule="evenodd" clip-rule="evenodd" d="M90.751 81.8796C90.365 81.7465 89.9493 81.4507 89.6821 81.1105L89.2367 80.5632L90.8104 79.0101C93.2302 76.6435 95.0859 74.2178 96.6892 71.3335C97.2236 70.3721 98.5746 67.1624 98.5746 66.8518C98.5746 66.7483 98.7379 66.3341 98.9309 65.9052C99.2278 65.2839 99.4505 65.0473 100.089 64.6923C100.846 64.2485 101.707 64.1006 102.078 64.3521C102.791 64.8254 102.791 66.3193 102.078 68.893C101.291 71.7181 100.237 73.7445 98.055 76.6583C97.7135 77.1021 97.0752 77.9748 96.615 78.5812C95.3828 80.2082 94.5811 80.9921 93.4974 81.5986C92.4285 82.1902 91.805 82.2642 90.751 81.8796ZM101.411 80.5484L102.479 81.0217C102.701 81.1236 105.146 82.2941 108.083 83.7002C112.818 85.9671 118.832 88.8462 118.869 88.8462C118.928 88.8462 119.207 88.2044 119.27 87.4559C119.418 85.8436 119.967 83.6545 120.606 82.131C120.903 81.4506 121.14 80.6003 121.14 80.5263C121.14 80.4926 120.899 80.3956 120.504 80.2368C120.033 80.0478 119.345 79.7712 118.587 79.4095C114.846 77.6197 107.527 73.9663 106.621 73.419C105.731 72.9013 105.552 72.857 105.552 73.1972C105.552 73.6409 104.647 75.6969 103.949 76.8062C103.578 77.4126 102.851 78.5072 102.331 79.232L101.411 80.5484ZM118.616 86.1838C119.042 86.4296 118.304 86.7902 118.126 86.8494C117.077 86.9381 115.842 86.7416 114.831 86.1542C114.302 85.7804 110.136 83.4746 107.373 81.945C106.109 81.2457 105.139 80.7087 104.943 80.5927C104.32 80.2229 103.726 79.8236 103.622 79.7052C103.31 79.3059 103.607 79.1284 104.483 79.2023C105.01 79.2468 117.697 85.6528 118.616 86.1838ZM58.2692 124.907C59.4144 124.658 61.1921 123.91 62.324 123.434C62.6008 123.318 62.8389 123.218 63.0198 123.145C63.9405 122.775 66.746 118.828 67.7555 114.376C68.483 111.092 68.8541 106.418 68.4384 105.634C68.1878 105.18 69.6769 106.703 70.7857 107.838C71.1219 108.181 71.423 108.49 71.6302 108.696C78.1029 115.101 87.7377 120.248 97.7436 122.659C102.732 123.872 106.28 124.301 111.045 124.301C119.047 124.301 125.356 122.733 131.087 119.286C131.359 119.123 131.614 118.972 131.857 118.829C133.855 117.651 135.045 116.949 138.302 113.296C141.955 109.199 145.205 99.6882 146.289 96.4045C146.764 94.9254 147.922 89.0423 147.922 87.5742C147.922 85.8361 147.313 85.0153 146.482 84.1722C145.012 82.7375 143.023 82.2198 141.375 82.841L140.603 83.1368L140.365 82.3529C140.024 81.1696 139.311 80.223 138.213 79.513C136.58 78.4332 136.342 78.3593 134.872 78.3593C133.729 78.3593 133.418 78.4185 132.69 78.7587L131.844 79.1432L131.666 78.6107C131.324 77.5162 130.179 75.9904 129.29 75.549C128.502 75.1575 127.138 75.1216 126.188 75.2975C124.109 75.6821 122.625 76.6435 122.016 77.9895C121.838 78.4037 121.615 78.7291 121.526 78.7291C121.452 78.7291 118.527 77.9153 115.039 76.377C114.45 76.1167 113.897 75.8725 113.378 75.6433C107.113 72.8767 105.756 72.277 105.879 71.5258C105.983 70.8897 105.953 70.5348 105.775 69.9875C105.463 69.0704 105.107 68.819 104.098 68.819C103.296 68.819 103.296 68.819 103.385 68.4196C103.86 66.1566 103.845 64.8549 103.34 64.0266C102.999 63.4794 102.598 63.2575 101.678 63.1244C101.143 63.0504 100.891 63.0948 100.297 63.4202C99.8962 63.6273 99.5548 63.7752 99.5251 63.7456C99.4954 63.716 99.5993 62.9025 99.7626 61.9411C100.98 54.8265 100.04 48.6966 96.9368 42.1885C96.9072 42.1265 96.8729 42.0532 96.8337 41.9693L96.8332 41.9683C95.89 39.9507 92.0972 31.8376 81.2502 27.7439C80.7593 27.5586 80.2947 27.3794 79.8483 27.2073L79.8481 27.2072C76.1532 25.7823 73.6969 24.835 67.7704 24.8448C61.1277 24.8558 58.8779 25.7914 54.4984 27.7882C53.8898 28.0693 53.3553 28.232 53.3108 28.1728C53.2663 28.0989 52.9842 27.9214 52.7021 27.7735C52.4201 27.6255 51.8114 27.2558 51.366 26.9599C50.0893 26.1021 49.3025 25.7471 48.9017 25.8358C48.4415 25.9541 48.4415 26.3387 48.9017 26.5162C49.0947 26.5902 49.3173 26.8416 49.4064 27.0931C49.5994 27.6255 49.8221 27.6847 49.9557 27.241C50.0151 27.0783 50.1042 26.9599 50.1487 26.9895C50.1656 26.9979 50.2221 27.0243 50.3083 27.0645C50.5253 27.1657 50.9305 27.3547 51.366 27.5664C51.9747 27.8622 52.6427 28.1728 52.8209 28.2468C53.1475 28.3651 53.0436 28.4539 51.6333 29.2822C46.1255 32.5066 41.6422 37.5208 39.1333 43.2302C38.7473 44.0881 38.4058 44.6206 38.0495 44.9164C37.144 45.6708 35.3625 47.8155 34.9468 48.6586C34.7241 49.1171 34.2491 49.8271 33.8779 50.2413C33.5216 50.6554 33.1357 51.1879 33.0021 51.4098C32.8833 51.6464 32.7645 51.8091 32.72 51.7795C32.6903 51.7352 32.7348 51.0104 32.8388 50.1673C33.0614 48.2001 33.0614 47.6824 32.8833 47.638C32.6161 47.5641 32.2301 48.5994 32.0668 49.8863C31.948 50.6702 31.9183 51.8535 31.9926 53.0664L32.0816 54.9892L31.0276 53.2882C30.6645 52.7185 30.307 52.1488 30.0534 51.7447L30.0534 51.7446L30.0532 51.7443L30.0524 51.7431C29.8918 51.4871 29.773 51.2978 29.7212 51.2175C29.3352 50.6554 29.1125 49.8123 29.2758 49.5313C29.3649 49.3686 29.35 49.2946 29.2016 49.2946C28.8898 49.2946 28.2812 50.2856 27.8803 51.4246C27.6873 51.957 27.4943 52.4008 27.435 52.4008C27.2123 52.4008 27.3162 47.1055 27.5537 45.4045C28.0436 42.0469 29.3352 37.9054 29.9142 37.9054C30.0329 37.9054 30.1369 37.8462 30.1369 37.7575C30.1369 37.4913 29.7509 37.5948 29.4391 37.935C28.7414 38.6893 27.8209 41.0116 27.242 43.4817C26.8411 45.1827 26.5888 47.3718 26.4997 49.7531C26.4255 51.8091 26.4552 52.1493 26.7521 53.2735C27.0935 54.5307 27.3607 54.9005 27.8209 54.723C27.9842 54.6638 28.0585 54.442 28.0585 54.0278C28.0585 53.7024 28.2366 52.7262 28.4593 51.8535L28.8453 50.2856L29.0086 50.9364C29.2164 51.6908 30.4338 54.0278 31.5323 55.7288C32.2895 56.8825 32.3043 56.9565 32.5567 58.761C32.6903 59.7816 33.106 62.264 34.0709 66.0826C34.9235 69.4566 39.7167 72.8036 40.9134 73.6393C41.0712 73.7495 41.1664 73.816 41.182 73.8332C41.3304 73.9959 41.5383 74.0846 41.657 74.0403C41.7906 73.9959 41.8649 74.0551 41.8649 74.2178C41.8649 74.3657 41.9688 74.558 42.0875 74.6467C42.236 74.7502 42.3399 75.1496 42.3696 75.8448C42.4438 77.2352 43.483 79.8976 44.2847 80.7703C44.8043 81.3323 45.888 81.569 47.0905 81.3619C47.8773 81.2436 48.1 81.1548 48.0258 80.9773C47.9812 80.859 48.2633 81.0069 48.6493 81.3027C53.1623 84.7343 57.7348 86.7903 62.8714 87.6777C64.8607 88.0179 68.1564 88.2102 69.9527 88.0771C71.5412 87.9736 71.5412 87.9736 71.4669 88.2842C71.363 88.6983 71.4966 88.9498 73.6789 92.6328C75.4159 95.5466 75.5643 95.7389 77.4942 97.7062C81.5916 101.922 86.0601 105.19 91.1225 107.72C95.8879 110.086 103.496 112.054 110.451 112.675C117.407 113.296 122.402 106.936 122.387 105.309C122.358 103.075 122.046 101.611 121.289 100.191C120.546 98.8155 120.057 98.3422 117.83 96.8631C115.35 95.2212 113.821 93.8752 112.812 92.4405C112.174 91.5382 111.936 90.5176 111.936 89.9704C111.936 89.6154 112.396 88.8167 113.079 88.6539C113.703 88.4912 113.821 88.506 114.519 88.8462C114.935 89.0385 116.019 89.5414 116.909 89.9704C117.815 90.3845 118.691 90.7987 118.869 90.8874C119.394 91.0328 119.616 92.0571 119.736 92.6122C119.763 92.7363 119.785 92.8369 119.804 92.899C120.012 93.6682 120.996 94.6613 121.63 94.9994C122.745 95.5931 125.49 95.6725 126.247 94.859C126.44 94.6519 127.08 94.3973 127.212 94.4744C127.344 94.5515 127.821 95.1917 127.821 95.7094C127.836 96.5968 128.296 97.4103 129.276 98.2238C131.131 99.7621 132.571 100.132 134.026 99.4515C134.783 99.0965 135.404 98.9579 135.404 98.9579C135.404 98.9579 136.023 99.7446 136.06 100.014C136.352 102.115 139.474 102.996 140.306 103.085C140.496 103.104 140.867 103.023 141.244 102.94L141.244 102.94C141.747 102.83 142.261 102.717 142.369 102.839C142.582 103.077 138.821 109.273 138.302 110.057C133.358 117.452 123.738 121.978 111.966 122.452C104.32 122.762 94.923 120.632 86.7727 116.757C81.5619 114.257 76.945 111.196 72.0014 106.906C71.1403 106.167 70.1457 105.324 69.7894 105.028C69.4331 104.747 68.5869 103.785 67.9337 102.898C66.8351 101.419 66.2116 100.886 66.2116 101.389C66.2116 101.611 66.9242 102.972 67.7407 104.318C68.0673 104.85 68.2751 105.22 68.2009 105.161C68.1267 105.102 67.8892 106.167 67.6665 107.527C66.939 111.891 65.7365 116.195 64.5192 118.872C63.8512 120.322 62.5702 121.404 62.1842 121.7C60.7591 122.78 58.6255 123.265 55.6712 123.561C51.9302 123.931 46.4225 123.103 42.2212 121.535C41.1077 121.121 38.2425 119.923 38.0495 119.789C38.038 119.778 37.9722 119.352 37.8804 118.758C37.8545 118.591 37.8266 118.41 37.7972 118.222C37.2627 114.568 36.5205 100.502 36.5205 93.9936C36.5205 91.3016 36.4908 90.7099 36.3126 90.7099C35.9415 90.7099 35.793 91.0649 35.6297 92.337C35.2586 95.236 35.3328 110.367 35.7336 113.548L35.8227 114.272L35.318 113.991C34.546 113.548 31.6066 110.574 30.5822 109.199C29.715 108.023 29.1996 106.517 28.814 105.39L28.814 105.39C28.7243 105.128 28.6416 104.886 28.5632 104.674C26.4106 98.7281 27.1677 92.0559 30.1369 86.0507C32.6606 80.933 35.7633 78.093 40.3061 76.7175C41.0484 76.4956 41.7016 76.2589 41.7758 76.1998C42.0579 75.9335 40.2467 76.0667 39.252 76.3773C36.0157 77.3683 32.6309 80.0751 30.3298 83.5362C27.0935 88.3877 25.6386 95.5466 26.663 101.655C26.9005 103.105 27.8655 106.241 28.1327 106.463C28.1564 106.486 28.2785 106.741 28.4631 107.127C28.9737 108.195 29.9626 110.262 30.6713 111.196C31.5323 112.364 34.1303 114.908 35.214 115.692L35.8969 116.18L36.0009 117.378C36.1939 119.671 36.2681 119.878 37.3073 120.647C39.9052 122.615 45.027 124.449 49.6588 125.099C51.8114 125.395 56.4878 125.292 58.2692 124.907ZM108.447 111.018C99.8219 110.264 89.4003 106.166 81.8587 99.8358C78.6818 97.1586 74.5547 91.9523 72.9217 89.0681C72.5802 88.4764 72.3279 88.1954 72.031 88.1214C71.7192 88.0327 71.9864 87.9439 73.2631 87.7368C78.6521 86.8198 83.8926 84.5863 88.1236 81.4062L88.7471 80.9477L88.9252 81.3766C89.3261 82.3381 90.87 83.3143 92.0131 83.3143C92.4733 83.3143 94.0173 82.6191 94.9525 81.9831L95.5909 81.5541L96.1105 82.0718C96.5855 82.5451 96.6746 82.5747 97.5653 82.5747C98.5897 82.5747 99.8219 82.1162 100.505 81.4654L100.876 81.1252L101.93 81.8204C102.494 82.2197 104.068 83.0924 105.419 83.7876C107.438 84.823 109.575 86.0211 111.609 87.2635L111.936 87.4706L111.624 87.8848C111.298 88.3285 110.689 89.1716 110.689 90.4584C110.689 91.908 112.202 94.5123 115.098 96.3009C117.373 97.7061 121.289 100.47 121.14 104.51C121.122 104.998 120.576 106.211 119.849 107.306C119.374 108.001 118.052 109.036 116.85 109.643C114.801 110.663 111.194 111.255 108.447 111.018ZM29.2903 44.6206C29.6911 44.7093 29.9583 44.8425 29.8989 44.9016C29.7059 45.0939 28.6816 45.0052 28.4441 44.7685C28.0729 44.4135 28.162 44.1621 28.6816 44.0585C28.9488 44.0141 29.3496 43.7923 29.5723 43.5704C29.795 43.3485 29.988 43.245 29.988 43.319C29.988 43.5112 29.2457 44.1916 28.8746 44.3396C28.637 44.4431 28.7113 44.4875 29.2903 44.6206ZM35.1988 44.8572C35.6293 44.6206 35.5403 44.4579 35.0355 44.5318C34.5308 44.6058 34.5011 44.5466 34.8277 44.0437C34.9613 43.8514 35.0355 43.5704 35.0058 43.4225C34.9613 43.2302 34.8574 43.319 34.6198 43.7923C34.4417 44.1325 34.1893 44.4135 34.0705 44.4135C33.6994 44.4135 33.6697 44.7093 34.026 44.8424C34.4862 45.0347 34.8425 45.0347 35.1988 44.8572ZM30.0626 36.7813C29.7063 36.8405 28.5929 37.2842 27.6131 37.7723C26.6184 38.2456 25.7722 38.645 25.7128 38.6302C24.1986 38.4675 26.3067 35.953 30.1368 33.3793C33.8037 30.9092 36.2829 29.6076 38.5839 28.942C40.024 28.5278 41.6421 28.4687 42.1023 28.8088C42.3547 29.0011 42.2656 29.0159 41.1671 29.0307C38.7918 29.0307 36.0454 30.2436 31.5768 33.2166C29.2609 34.7549 26.5739 36.9588 26.5739 37.3138C26.5739 37.3877 27.0044 37.2398 27.5388 37.0032C28.6819 36.4855 29.8547 36.2192 30.3743 36.3376C30.9236 36.4855 30.8049 36.6778 30.0626 36.7813ZM35.8075 38.0534C37.203 37.7723 37.2624 37.7575 37.2624 37.6096C37.2624 37.5357 36.7279 37.4617 36.0599 37.4321L34.8574 37.3878L35.9708 36.1305C36.5795 35.4353 37.2921 34.7401 37.5444 34.5774C38.0937 34.2224 38.1234 33.971 37.678 33.8231L37.3366 33.7195L37.7077 33.5864C37.9156 33.5125 38.3016 33.4829 38.5688 33.5273C38.9696 33.5864 39.0587 33.5568 39.0141 33.3498C38.9696 33.1427 38.8063 33.0983 38.0789 33.1131C35.956 33.1427 35.0504 33.7048 36.7131 33.971C37.1733 34.0449 37.5593 34.1633 37.5593 34.2372C37.5593 34.2964 37.4851 34.3556 37.396 34.3556C37.1139 34.3556 34.7238 36.7665 34.4269 37.3582C33.9667 38.2308 34.219 38.364 35.8075 38.0534ZM45.6055 32.3143C45.1749 32.3439 45.071 32.4179 45.1007 32.625L45.1053 32.6551L45.1053 32.6551C45.1219 32.7644 45.1315 32.8272 45.107 32.8464C45.0738 32.8723 44.9783 32.8183 44.7537 32.6913L44.7147 32.6693C44.4327 32.5214 44.403 32.4475 44.5663 32.3291C44.6702 32.2404 44.9523 32.1073 45.1749 32.0629L45.5906 31.9593L45.2789 31.6339C45.1156 31.4417 45.0265 31.2642 45.071 31.205C45.1898 31.0867 46.6446 31.2494 46.8525 31.4121C46.9416 31.486 47.0752 31.4712 47.1642 31.3825C47.3721 31.1754 47.6541 31.3381 47.6541 31.6635C47.6541 31.841 47.6096 31.8558 47.476 31.7227C47.3572 31.6044 47.2533 31.6044 47.1197 31.7079C47.0009 31.8114 46.9119 31.8114 46.8376 31.6931C46.7931 31.6191 46.511 31.5452 46.2141 31.5452C45.94 31.5452 45.8105 31.5452 45.7842 31.5973C45.7606 31.644 45.8198 31.7325 45.9321 31.9002C46.1689 32.2688 46.1548 32.27 45.6105 32.3139L45.6055 32.3143ZM43.3494 28.3799C43.3494 28.1876 43.1713 27.8474 42.9486 27.6255L42.5329 27.2114L44.7598 27.3001C45.992 27.3593 47.3874 27.4924 47.8773 27.6255C48.3673 27.7439 48.9314 27.8326 49.1392 27.8326C49.451 27.8326 49.3916 27.7735 48.8126 27.4628C47.8031 26.9452 46.5116 26.6937 44.0323 26.5162C41.0632 26.3091 39.5638 26.5902 39.8459 27.3297C39.8904 27.4776 40.128 27.5516 40.4842 27.5516C41.2117 27.5516 42.3993 27.9805 42.8002 28.3799C43.2307 28.8088 43.3494 28.8088 43.3494 28.3799ZM36.1049 67.5469C37.3074 69.0852 38.8959 70.8305 39.6381 71.4222C40.0835 71.7772 40.4695 72.073 40.4992 72.073C40.514 72.073 40.1874 71.3926 39.7718 70.5643C38.0942 67.2363 37.1144 63.9231 36.6542 60.1069C36.5503 59.2638 36.387 58.5539 36.2088 58.258C35.8525 57.6664 35.8525 56.8973 36.2237 56.1725C36.4167 55.7879 36.5206 55.2998 36.5206 54.7673V53.9538L35.808 54.6934C35.1102 55.4181 34.4422 55.714 34.4422 55.2702C34.4422 54.9448 35.5408 53.377 36.1197 52.8889C36.58 52.5043 36.6393 52.3712 36.7878 51.2175C36.8917 50.5223 37.1292 49.2946 37.3222 48.4811C37.5301 47.6676 37.6488 46.9724 37.6191 46.9428C37.5152 46.8393 34.0265 50.8313 33.5515 52.1049C33.4472 52.3845 33.1655 52.8741 32.9428 53.1699L32.5568 53.6637C32.5568 53.6637 32.6767 54.3551 32.8092 55.224C32.943 56.1019 33.0058 56.7055 33.0618 57.243C33.1366 57.9621 33.1991 58.5631 33.403 59.5449C33.6405 60.7578 33.8781 61.8079 33.9374 61.8819C33.982 61.9706 34.175 62.651 34.368 63.4054C34.7836 65.0768 35.4814 66.7334 36.1049 67.5469ZM96.3479 81.5394L96.0361 81.2288C96.0361 81.2288 101.211 74.6788 102.138 72.2653C102.845 70.4235 103.262 69.9012 103.824 69.9012C104.138 69.9012 104.394 69.9727 104.513 70.1502C104.721 70.4608 104.921 70.8454 104.654 72.1618C104.209 74.2917 103.526 75.6969 101.477 78.7291C101.002 79.4243 100.393 80.1934 100.126 80.4596C99.5025 81.0365 98.0997 81.6281 97.2832 81.7613C96.7636 81.8352 96.6151 81.8056 96.3479 81.5394Z" fill="#2C2C2E"/>
<path d="M137.455 96.009C139.302 90.9952 139.023 89.927 138.702 89.8225C138.702 89.8225 137.997 90.2218 137.685 91.0649C137.106 92.6476 135.125 96.7891 134.382 97.5287C133.507 98.4014 133.507 98.4014 132.616 98.4014C131.725 98.4014 129.156 97.0649 128.806 95.7474C128.247 93.6396 130.656 86.317 130.716 85.9028L130.315 85.6218C130.048 85.8732 126.572 96.375 122.001 93.6386C121.478 93.3253 120.368 91.8489 120.279 91.0649C119.785 88.7871 122.054 80.8221 122.44 79.186C122.786 77.7216 124.584 76.3625 126.796 76.3625C130.196 76.3625 129.739 79.3233 131.262 80.3667C131.937 80.829 133.046 79.9908 133.388 79.9272C135.303 79.5722 136.037 79.9856 137.441 81.0957C138.524 81.9526 139.326 83.6486 140.209 84.2462C140.699 84.5782 141.219 84.1244 141.39 84.0391C142.088 83.6898 143.587 83.9504 144.002 84.2462C144.612 84.5109 146.105 85.9411 146.341 86.7729C147.41 90.5429 144.034 98.9009 142.759 100.469C140.65 103.064 135.609 101.023 137.455 96.009Z" fill="white"/>
<path fill-rule="evenodd" clip-rule="evenodd" d="M52.108 82.2709C56.1757 84.8298 60.37 86.5012 65.1503 86.9597C68.9211 87.3147 74.0053 86.8266 77.6573 85.6433C80.7303 84.6523 84.8871 81.907 87.6632 79.5847C93.0522 75.0882 96.4518 68.0647 97.9364 60.6099C98.1442 59.5597 98.4612 56.9199 98.4463 54.3019C98.4463 51.2549 97.1004 42.9284 93.0225 38.1273C84.6117 28.2252 70.7861 23.7645 59.1668 27.5758C54.9753 28.9507 50.5126 31.4417 47.1426 34.6958C42.8968 38.8225 39.7643 44.4431 38.5173 50.1821C37.2109 56.2465 38.9103 63.4942 41.8646 69.4402C44.225 74.1734 48.1146 79.7416 52.108 82.2709ZM91.7458 64.3965C88.9548 72.7535 81.6805 78.9953 72.5356 80.8886C71.1402 81.1696 70.1752 81.2732 68.2156 81.3028C66.8349 81.3471 65.4543 81.3324 65.1722 81.3028C58.7738 80.5336 53.9044 78.1818 49.4211 73.7149C47.4615 71.7477 46.6301 70.6827 45.4128 68.5824C43.4977 65.2543 42.4733 61.8524 42.1616 57.7552C41.0927 43.7184 51.1729 32.0186 65.3652 30.8057C70.9323 30.3324 77.1081 32.0334 81.7993 35.3466C83.5362 36.5743 86.6835 39.6804 87.6633 41.1299C88.0641 41.7068 91.9537 47.3718 92.6365 50.6259C93.5124 54.8561 93.171 60.1514 91.7458 64.3965Z" fill="white"/>
<path fill-rule="evenodd" clip-rule="evenodd" d="M98.4518 54.3018C98.4518 64.2298 93.7382 75.0838 87.6552 79.7192C84.7529 81.9307 80.9602 84.6086 77.6574 85.6432C72.8171 87.1594 65.1504 86.9596 65.1504 86.9596C65.1504 86.9596 72.972 85.9179 75.8705 84.7557C84.1823 81.4229 88.7196 76.307 91.5213 71.3983C97.0518 61.7088 98.4518 54.0607 98.4518 54.3018Z" fill="#E5E5EA"/>
<path fill-rule="evenodd" clip-rule="evenodd" d="M65.3206 79.5278C61.3568 79.0249 57.4227 77.6197 54.2458 75.5342C52.3604 74.3065 49.51 71.4222 48.1294 69.3663C46.1549 66.408 44.8485 63.2427 44.2101 59.8407C43.7499 57.3706 43.7648 53.5693 44.225 51.3654C44.7 49.1171 45.3087 47.4014 46.3924 45.2271C47.6543 42.7126 48.9904 40.8637 50.9946 38.8669C54.4091 35.4649 58.3728 33.3054 63.0937 32.27C64.6228 31.9446 70.1602 31.6783 70.3532 31.9298C70.3977 32.0038 70.6947 32.196 71.0064 32.3587C71.3182 32.5362 72.1495 33.1575 72.8324 33.7639C73.8568 34.6514 74.317 35.2134 75.2077 36.6038C75.8164 37.5504 76.3063 38.4083 76.3063 38.4823C76.3063 38.645 76.7813 38.9408 77.0486 38.9408C77.4197 38.9408 77.6721 37.8315 77.7463 35.879C77.7908 34.7993 77.8799 33.9118 77.9393 33.9118C78.1471 33.9118 80.4334 35.1691 81.5022 35.879C83.5955 37.2694 85.6887 39.2218 87.2326 41.263C87.9304 42.1801 88.0343 42.4167 88.0343 42.9788C88.0343 43.4965 88.1827 43.8959 88.643 44.6946C89.8009 46.7062 90.7065 49.2355 91.2558 52.031C91.6121 53.9095 91.6121 57.4594 91.2409 59.4266C90.2314 64.8402 87.2326 70.2242 83.3282 73.6409C80.0177 76.5252 76.4993 78.3001 72.3425 79.1728C70.9173 79.4834 66.6418 79.6905 65.3206 79.5278ZM54.7063 69.4107C54.8399 69.2628 54.929 69.0409 54.8844 68.9374C54.871 68.9063 54.6852 68.8192 54.4132 68.6918L54.4131 68.6918C53.7788 68.3947 52.6761 67.8781 52.1982 67.3399C50.298 65.1804 49.6002 63.5682 49.1697 60.2401C48.754 57.0009 49.1032 54.811 49.8526 51.2915C50.2182 49.5746 51.1898 48.1564 51.7942 47.2741C52.2053 46.6742 52.4465 46.322 52.2122 46.2921C51.6332 46.2033 51.5442 46.2477 50.9355 46.8245C49.6291 48.067 49.0353 49.058 48.4117 50.9661C47.4468 53.9539 47.2603 62.0284 49.1697 65.6685C51.0791 69.3086 54.3648 69.7952 54.7063 69.4107ZM75.8164 56.9861C75.5643 59.2838 74.4952 62.6067 73.2482 64.0563C72.6692 64.7367 70.5439 65.9052 68.7499 65.6685C67.0172 65.4399 65.6621 64.6331 64.5041 62.9026C63.5095 61.4087 62.9957 59.5953 62.6484 57.3115C62.0486 53.3678 64.6674 48.777 65.7957 47.6381C66.9388 46.4696 67.7553 46.0554 68.7945 46.0406C69.804 46.0406 70.4572 46.2625 71.4815 46.9873C73.3521 48.2889 76.3063 52.5211 75.8164 56.9861ZM55.8046 44.7538C56.1015 44.4136 56.1461 44.2509 56.057 43.6149C55.9976 43.0232 55.8788 42.7866 55.5671 42.5351C55.0178 42.0914 54.3349 42.0914 53.8302 42.5647C53.4739 42.9049 53.4293 43.0232 53.4739 43.8367C53.5184 44.7094 53.5481 44.7686 54.038 45.0348C54.6912 45.3898 55.3296 45.2863 55.8046 44.7538ZM65.0684 35.6276C62.3962 37.5357 61.2382 38.3196 60.0357 39.0592C59.0856 39.6508 58.7887 39.6656 58.7887 39.1331C58.7887 38.8521 58.9965 38.5415 59.531 38.0534L60.2732 37.373L58.8332 37.1807C57.215 36.9736 55.6414 36.5299 55.3 36.1897C54.7358 35.6128 55.2257 35.4797 56.8291 35.7755C57.5416 35.8939 58.9223 36.0418 59.9021 36.0714L61.6836 36.1453L62.9751 35.2135C65.8106 33.1723 68.7501 32.0186 70.1604 32.3736C71.0363 32.5807 70.9324 32.8173 69.9377 32.9356C68.7946 33.0688 68.0969 33.4533 65.0684 35.6276Z" fill="white"/>
<path d="M68.8834 63.642C68.8834 63.5681 68.9725 63.4941 69.0913 63.4941C69.21 63.4941 69.3585 63.5681 69.403 63.642C69.4476 63.7308 69.3585 63.7899 69.1952 63.7899C69.017 63.7899 68.8834 63.7308 68.8834 63.642Z" fill="white"/>
<path d="M69.7742 63.5089C69.7742 63.3462 70.1453 63.1983 70.561 63.1983C70.8876 63.2131 70.8876 63.2131 70.6055 63.4202C70.2789 63.6716 69.7742 63.716 69.7742 63.5089Z" fill="white"/>
<path d="M67.4734 63.1244C67.4288 63.006 67.3694 62.799 67.3249 62.6806C67.2804 62.5327 67.3546 62.4588 67.5476 62.4588C67.7109 62.4588 67.8445 62.5475 67.8445 62.6658C67.8445 62.7842 67.889 62.9765 67.9336 63.1096C67.9929 63.2723 67.9484 63.3462 67.7851 63.3462C67.6515 63.3462 67.503 63.2427 67.4734 63.1244Z" fill="white"/>
<path d="M68.26 62.7546C68.1857 62.3108 68.349 62.1629 68.8835 62.1629C69.0468 62.1629 69.1804 62.3108 69.2398 62.5623C69.3585 62.9912 69.1655 63.1983 68.6459 63.1983C68.4084 63.1983 68.3045 63.0948 68.26 62.7546Z" fill="white"/>
<path d="M66.7458 62.8286C66.4638 62.6067 66.4638 62.6067 66.7755 62.6067C66.9685 62.6067 67.1021 62.6955 67.1021 62.8286C67.1021 63.0948 67.1021 63.0948 66.7458 62.8286Z" fill="white"/>
<path d="M69.7298 62.8138C69.5368 62.6215 69.6259 62.0446 69.8634 61.9559C70.2939 61.7932 70.4869 61.8671 70.576 62.2517C70.6354 62.4736 70.6651 62.6659 70.6354 62.6807C70.5166 62.8138 69.8189 62.9025 69.7298 62.8138Z" fill="white"/>
<path d="M71.0512 62.5031C71.0067 62.4588 70.9622 62.2665 70.9622 62.089C70.9622 61.8375 71.0809 61.734 71.4372 61.66C71.749 61.6009 71.942 61.6305 72.031 61.7488C72.1795 61.9854 72.1795 62.2813 72.0459 62.3552C71.7787 62.5031 71.1551 62.5919 71.0512 62.5031Z" fill="white"/>
<path d="M66.0631 62.0446C66.0631 61.8671 66.1967 61.7192 66.3897 61.6748C66.7757 61.5713 66.7609 61.5565 66.8351 61.941C66.8648 62.1629 66.7905 62.2516 66.4788 62.2812C66.1522 62.3256 66.0631 62.2664 66.0631 62.0446Z" fill="white"/>
<path d="M67.191 62.0594C66.9832 61.8375 67.1168 61.4234 67.3989 61.4234C67.5918 61.4234 67.6958 61.5269 67.6958 61.7044C67.6958 61.9854 67.3543 62.2221 67.191 62.0594Z" fill="white"/>
<path d="M68.0819 61.6156C67.9632 61.3346 68.2155 61.1275 68.7054 61.1275C68.9281 61.1275 69.0321 61.2163 69.0321 61.4086C69.0321 61.5713 68.8984 61.7192 68.7054 61.7783C68.2155 61.8967 68.1859 61.8967 68.0819 61.6156Z" fill="white"/>
<path d="M72.3727 61.5713C72.4172 61.4973 72.4914 61.4234 72.536 61.4234C72.5805 61.4234 72.5657 61.4973 72.5211 61.5713C72.4766 61.66 72.4024 61.7192 72.3578 61.7192C72.3133 61.7192 72.3281 61.66 72.3727 61.5713Z" fill="white"/>
<path d="M69.4182 61.3198C69.2995 61.024 69.4479 60.8761 69.923 60.8021C70.1902 60.7725 70.309 60.8317 70.3387 61.0388C70.4426 61.5269 69.5964 61.7931 69.4182 61.3198Z" fill="white"/>
<path d="M65.855 61.0684C65.7214 60.5803 65.7511 60.5359 66.1371 60.5359C66.3449 60.5359 66.5082 60.5951 66.5082 60.669C66.5082 60.743 66.5528 60.9057 66.5973 61.024C66.6418 61.1719 66.5528 61.2607 66.3004 61.305C66.0183 61.3642 65.9144 61.305 65.855 61.0684Z" fill="white"/>
<path d="M70.8136 60.9057C70.8136 60.6394 70.9175 60.5211 71.1996 60.4471C71.6153 60.3436 71.8528 60.5507 71.8528 61.024C71.8528 61.2163 71.734 61.2755 71.3332 61.2755C70.873 61.2755 70.8136 61.2311 70.8136 60.9057Z" fill="white"/>
<path d="M65.4097 60.9057C65.3652 60.7874 65.3949 60.6838 65.4691 60.6838C65.5582 60.6838 65.6176 60.7874 65.6176 60.9057C65.6176 61.024 65.5879 61.1276 65.5582 61.1276C65.5285 61.1276 65.4691 61.024 65.4097 60.9057Z" fill="white"/>
<path d="M66.9094 61.024C66.7016 60.8318 66.8204 60.4176 67.0876 60.3437C67.2509 60.2993 67.4142 60.3141 67.4587 60.3584C67.6369 60.5211 67.5329 60.9501 67.3103 61.0388C67.0282 61.1424 67.0282 61.1424 66.9094 61.024Z" fill="white"/>
<path d="M72.2093 60.9205C72.0459 60.4915 72.2241 60.1661 72.6398 60.1217C72.9515 60.0774 73.0406 60.1365 73.0406 60.3732C73.0406 60.8613 72.8773 61.1275 72.5804 61.1275C72.4171 61.1275 72.2538 61.0388 72.2093 60.9205Z" fill="white"/>
<path d="M67.9484 60.7282C67.7702 60.5655 67.8296 60.2697 68.082 60.1809C68.3641 60.0774 68.9579 60.3732 68.7946 60.5359C68.5867 60.7134 68.0523 60.8465 67.9484 60.7282Z" fill="white"/>
<path d="M69.2401 60.3584C69.1065 60.1513 69.5815 59.7964 69.9675 59.7964C70.1456 59.7964 70.2199 59.8851 70.1902 60.0478C70.1308 60.3436 69.3737 60.5803 69.2401 60.3584Z" fill="white"/>
<path d="M65.172 60.2549C65.172 60.181 65.1274 60.0182 65.0829 59.8851C65.0384 59.752 65.0532 59.6485 65.1423 59.6485C65.3353 59.6485 65.4837 60.2105 65.3056 60.3289C65.2314 60.3732 65.172 60.3437 65.172 60.2549Z" fill="white"/>
<path d="M65.5731 59.9147C65.484 59.5893 65.6621 59.3526 66.0036 59.3526C66.1966 59.3526 66.3896 59.9295 66.2708 60.1217C66.1075 60.3732 65.6473 60.2253 65.5731 59.9147Z" fill="white"/>
<path d="M66.6124 59.9887C66.3897 59.7668 66.5233 59.2343 66.8202 59.1604C67.0429 59.1012 67.1617 59.1752 67.2804 59.4414C67.3695 59.6337 67.4141 59.826 67.3844 59.8556C67.2359 59.9887 66.7015 60.0922 66.6124 59.9887Z" fill="white"/>
<path d="M70.6202 59.9887C70.4272 59.7964 70.5163 59.6781 70.9616 59.5154C71.3328 59.397 71.4367 59.4118 71.5109 59.5893C71.6445 59.9443 70.9022 60.2845 70.6202 59.9887Z" fill="white"/>
<path d="M71.9267 59.6484C71.7782 59.4118 71.9861 59.2047 72.3721 59.2047C72.8323 59.2047 72.9659 59.5893 72.5502 59.7076C72.1048 59.8259 72.0306 59.8112 71.9267 59.6484Z" fill="white"/>
<path d="M73.1888 59.2935C73.1888 59.0716 73.4561 58.8349 73.5748 58.9533C73.6787 59.0568 73.4709 59.5005 73.3224 59.5005C73.2482 59.5005 73.1888 59.4118 73.1888 59.2935Z" fill="white"/>
<path d="M64.9792 59.1011C64.9198 59.0568 64.8752 58.8645 64.8901 58.7018C64.8901 58.4207 64.9049 58.4207 65.0385 58.7462C65.187 59.1011 65.1573 59.2786 64.9792 59.1011Z" fill="white"/>
<path d="M65.2614 58.8793C65.1278 58.3616 65.1426 58.3172 65.5286 58.3172C65.9591 58.3172 66.2263 58.8645 65.8997 59.0716C65.5583 59.2787 65.3653 59.2195 65.2614 58.8793Z" fill="white"/>
<path d="M70.3678 59.1751C70.3678 59.1308 70.442 58.8941 70.5311 58.6279C70.7389 58.0362 71.1992 58.0066 71.3031 58.5835C71.3476 58.8054 71.3625 58.9976 71.3476 59.0124C71.2734 59.1012 70.3678 59.2343 70.3678 59.1751Z" fill="white"/>
<path d="M66.3156 58.8053C66.2562 58.761 66.2117 58.5835 66.2117 58.4208C66.2117 58.1841 66.2562 58.1693 66.4344 58.3172C66.5531 58.4208 66.6571 58.5982 66.6571 58.7018C66.6571 58.9237 66.4789 58.9828 66.3156 58.8053Z" fill="white"/>
<path d="M71.6601 58.5095C71.571 58.051 71.764 57.8439 72.2242 57.9031C72.4469 57.9326 72.5211 58.0658 72.5211 58.3912C72.5211 58.7609 72.4617 58.8497 72.1351 58.8793C71.8085 58.9236 71.7343 58.8497 71.6601 58.5095Z" fill="white"/>
<path d="M73.1148 58.5687C72.9218 57.9771 72.9812 57.7996 73.382 57.7552C73.7383 57.7108 73.7829 57.7552 73.7829 58.1398C73.7829 58.4652 73.6938 58.5983 73.4711 58.6575C73.3078 58.7018 73.1445 58.6575 73.1148 58.5687Z" fill="white"/>
<path d="M64.7563 57.7256C64.7563 57.4446 64.786 57.3263 64.8306 57.4742C64.8603 57.6073 64.8603 57.844 64.8306 57.9919C64.786 58.125 64.7563 58.0067 64.7563 57.7256Z" fill="white"/>
<path d="M65.1274 57.9179C64.9344 57.7404 65.0235 57.1635 65.261 57.0748C65.6024 56.9417 65.7657 57.1044 65.7657 57.5925C65.7657 57.9031 65.6915 58.0214 65.4985 58.0214C65.3501 58.0214 65.1719 57.977 65.1274 57.9179Z" fill="white"/>
<path d="M66.0182 57.5185C65.9589 57.2967 65.9292 57.06 65.9885 57.0156C66.137 56.8677 66.2261 57.1044 66.1815 57.5333L66.137 57.9475L66.0182 57.5185Z" fill="white"/>
<path d="M70.8136 57.415C70.8136 57.2523 70.8878 57.1635 70.9621 57.2079C71.0511 57.2523 71.1105 57.4002 71.1105 57.5185C71.1105 57.6368 71.0511 57.7256 70.9621 57.7256C70.8878 57.7256 70.8136 57.5925 70.8136 57.415Z" fill="white"/>
<path d="M71.4815 57.6073C71.2736 57.3854 71.4369 56.986 71.7784 56.8973C72.2089 56.7937 72.2238 56.7937 72.3574 57.2227C72.4464 57.4889 72.3871 57.5481 72.0011 57.6073C71.7635 57.6516 71.526 57.6368 71.4815 57.6073Z" fill="white"/>
<path d="M72.8471 57.3262C72.6838 57.1783 72.7283 56.6902 72.8916 56.6902C72.9807 56.6902 73.0401 56.631 73.0401 56.5423C73.0401 56.4683 72.951 56.3944 72.8323 56.3944C72.5799 56.3944 72.372 55.6696 72.5799 55.4625C72.8471 55.1963 73.144 55.4773 73.3222 56.2021C73.4261 56.5866 73.53 57.0304 73.5745 57.1783C73.6339 57.3706 73.5745 57.4297 73.2925 57.4297C73.0995 57.4297 72.8916 57.3854 72.8471 57.3262Z" fill="white"/>
<path d="M73.6489 56.5423C73.545 56.0985 73.2778 55.2111 73.0848 54.5603C72.7879 53.6136 72.7582 53.377 72.9215 53.2734C73.0254 53.1995 73.159 53.1403 73.2035 53.1403C73.3668 53.1403 73.9607 56.1725 73.9013 56.7641L73.8568 57.3558L73.6489 56.5423Z" fill="white"/>
<path d="M64.6078 56.4683C64.6078 56.2316 64.6375 56.1429 64.682 56.2908C64.7117 56.4239 64.7117 56.631 64.682 56.7345C64.6375 56.8233 64.6078 56.7197 64.6078 56.4683Z" fill="white"/>
<path d="M64.9052 56.4387C64.9646 55.921 65.3951 55.8027 65.5139 56.276C65.6178 56.6606 65.6475 56.6162 65.2021 56.7641C64.8904 56.8529 64.8607 56.8233 64.9052 56.4387Z" fill="white"/>
<path d="M71.1696 56.3056C71.0509 55.8767 71.3033 55.6252 71.7783 55.6844C72.1346 55.7287 72.2682 56.3648 71.9713 56.557C71.6002 56.7937 71.2587 56.6902 71.1696 56.3056Z" fill="white"/>
<path d="M65.766 56.1873C65.766 55.9358 65.8402 55.8027 66.0035 55.8027C66.152 55.8027 66.2114 55.9062 66.1817 56.1281C66.1074 56.6014 65.766 56.6458 65.766 56.1873Z" fill="white"/>
<path d="M64.4449 55.5661C64.4449 55.4034 64.4895 55.359 64.534 55.4773C64.5785 55.5809 64.5637 55.714 64.5192 55.7584C64.4746 55.8175 64.4301 55.7288 64.4449 55.5661Z" fill="white"/>
<path d="M64.7267 55.5217C64.7267 55.2998 64.8158 55.2111 65.0384 55.2111C65.2463 55.2111 65.3205 55.285 65.2908 55.4625C65.2166 55.8471 64.7267 55.8915 64.7267 55.5217Z" fill="white"/>
<path d="M65.5432 55.3886C65.4393 55.1223 65.4393 55.1223 65.8847 55.004C66.1519 54.9153 66.2113 54.9596 66.2113 55.1815C66.2113 55.5365 65.6768 55.714 65.5432 55.3886Z" fill="white"/>
<path d="M70.918 55.1815C70.8141 54.8117 71.0071 54.6194 71.5267 54.6194C71.779 54.6194 71.8533 54.7082 71.8533 54.9892C71.8533 55.2111 71.7642 55.359 71.6454 55.359C71.5267 55.359 71.3337 55.4033 71.2149 55.4477C71.0813 55.4921 70.9774 55.4033 70.918 55.1815Z" fill="white"/>
<path d="M72.209 54.8413C72.0903 54.5455 72.2684 54.3236 72.6098 54.3236C72.8177 54.3236 72.8919 54.4271 72.8919 54.6934C72.8919 54.9596 72.8177 55.0632 72.595 55.0632C72.4317 55.0632 72.2536 54.9596 72.209 54.8413Z" fill="white"/>
<path d="M64.5787 54.6342C64.5787 54.3236 64.9202 53.9686 65.0686 54.1313C65.128 54.1757 65.1726 54.3828 65.1726 54.575C65.1726 54.8117 65.0835 54.9152 64.8757 54.9152C64.6827 54.9152 64.5787 54.8117 64.5787 54.6342Z" fill="white"/>
<path d="M65.3947 54.4567C65.276 54.0869 65.4096 53.9242 65.9143 53.8502C66.3745 53.7911 66.523 54.2792 66.1222 54.575C65.7362 54.856 65.4987 54.8117 65.3947 54.4567Z" fill="white"/>
<path d="M70.7688 54.368C70.6648 54.2792 70.6203 53.732 70.7094 53.732C70.7242 53.732 70.9469 53.6728 71.2141 53.5988C71.6595 53.4657 71.6892 53.4805 71.6743 53.8799C71.6595 54.1757 71.5704 54.3236 71.3477 54.3828C70.9469 54.4863 70.8875 54.4863 70.7688 54.368Z" fill="white"/>
<path d="M70.2198 54.0283C70.2198 53.9243 70.2644 53.8798 70.3238 53.9243C70.3683 53.9837 70.3683 54.0728 70.3238 54.1322C70.2644 54.1767 70.2198 54.1322 70.2198 54.0283Z" fill="white"/>
<path d="M71.8823 53.7911C71.9268 53.5396 72.387 53.1699 72.4909 53.2882C72.5355 53.3326 72.6097 53.5101 72.6542 53.7023C72.7581 53.9982 72.7136 54.0278 72.2979 54.0278C71.9416 54.0278 71.8377 53.9686 71.8823 53.7911Z" fill="white"/>
<path d="M64.7267 53.7764C64.7267 53.7024 64.8009 53.5545 64.8751 53.4362C64.9939 53.2587 65.0236 53.2735 65.0236 53.5545C65.0236 53.732 64.9642 53.8799 64.8751 53.8799C64.8009 53.8799 64.7267 53.8355 64.7267 53.7764Z" fill="white"/>
<path d="M65.1724 53.451C65.1724 53.0368 65.4841 52.9037 65.7217 53.2143C65.8701 53.4362 65.8701 53.5101 65.7217 53.6137C65.4099 53.806 65.1724 53.7468 65.1724 53.451Z" fill="white"/>
<path d="M69.6852 53.2586C69.418 52.9628 69.418 52.948 69.6704 53.0368C69.8188 53.0959 70.0118 53.1403 70.086 53.1403C70.1603 53.1403 70.2197 53.2438 70.2197 53.3622C70.2197 53.6728 70.0118 53.6432 69.6852 53.2586Z" fill="white"/>
<path d="M66.4938 53.2438C65.8555 52.7557 65.7664 51.6612 66.3602 51.6612C66.761 51.6612 67.1322 52.2824 67.0728 52.8593C67.0283 53.3917 66.8501 53.5101 66.4938 53.2438Z" fill="white"/>
<path d="M70.5615 53.3327C70.6209 53.2882 70.71 53.2882 70.7693 53.3327C70.8139 53.3921 70.7693 53.4366 70.6654 53.4366C70.5615 53.4366 70.517 53.3921 70.5615 53.3327Z" fill="white"/>
<path d="M72.8028 52.7558C72.8474 52.6226 72.8919 52.4895 72.8919 52.4599C72.8919 52.4304 72.9661 52.4008 73.0404 52.4008C73.1294 52.4008 73.1888 52.5339 73.1888 52.6966C73.1888 52.8741 73.0849 52.9924 72.9513 52.9924C72.788 52.9924 72.7434 52.9185 72.8028 52.7558Z" fill="white"/>
<path d="M65.0238 52.7114C65.0238 52.3712 65.3356 51.8091 65.5137 51.8091C65.8255 51.8091 65.6028 52.7558 65.2762 52.8149C65.1426 52.8445 65.0238 52.8001 65.0238 52.7114Z" fill="white"/>
<path d="M68.3641 52.5487L67.9187 52.4451L68.3195 52.3416C68.7352 52.2233 69.0321 52.312 69.0321 52.5635C69.0321 52.7114 69.0173 52.7114 68.3641 52.5487Z" fill="white"/>
<path d="M67.8447 51.8387C67.8447 51.2323 68.1862 51.1436 68.4979 51.676C68.7058 52.031 68.7206 52.105 68.5276 52.105C68.4089 52.105 68.2159 52.1494 68.0823 52.1937C67.9041 52.2677 67.8447 52.1789 67.8447 51.8387Z" fill="white"/>
<path d="M70.4277 52.0458C69.7596 51.7499 69.3291 50.966 69.3291 50.0342C69.3291 49.3686 69.3885 49.2059 69.7893 48.8361C70.0417 48.5994 70.2941 48.4071 70.3683 48.4071C70.6949 48.4071 71.8974 49.5461 72.2982 50.256L72.7584 51.0695L72.2685 51.5872C71.7044 52.1789 71.0809 52.3416 70.4277 52.0458Z" fill="white"/>
<path d="M67.3248 51.6612C67.2802 51.5873 67.3099 51.5133 67.3841 51.5133C67.4732 51.5133 67.5474 51.5873 67.5474 51.6612C67.5474 51.75 67.5177 51.8091 67.4881 51.8091C67.4435 51.8091 67.3693 51.75 67.3248 51.6612Z" fill="white"/>
<path d="M65.38 51.4245C65.4245 51.2914 65.469 51.1583 65.469 51.1287C65.469 51.0991 65.6026 51.0695 65.7659 51.0695C66.1371 51.0695 66.1519 51.3062 65.7808 51.5133C65.38 51.7204 65.276 51.7056 65.38 51.4245Z" fill="white"/>
<path d="M66.553 51.2471C66.2116 51.2027 66.1076 51.0104 66.3303 50.8773C66.3897 50.8329 66.6569 50.7589 66.9241 50.6998C67.325 50.611 67.3992 50.6406 67.3992 50.8921C67.3992 51.2027 67.0874 51.3358 66.553 51.2471Z" fill="white"/>
<path d="M67.6962 50.7442C67.6962 50.5667 67.711 50.4631 67.7407 50.4927C67.7556 50.5223 67.8743 50.6702 67.9782 50.8181C68.1564 51.0252 68.1415 51.0696 67.9337 51.0696C67.7852 51.0696 67.6962 50.9512 67.6962 50.7442Z" fill="white"/>
<path d="M65.6174 50.6406C65.6174 50.5519 65.6917 50.4483 65.7659 50.404C65.855 50.3596 65.9143 50.4188 65.9143 50.5371C65.9143 50.6702 65.855 50.7737 65.7659 50.7737C65.6917 50.7737 65.6174 50.7146 65.6174 50.6406Z" fill="white"/>
<path d="M66.1668 50.4188C66.048 50.1229 67.102 49.7975 67.2802 50.0786C67.4138 50.3152 67.2802 50.4188 66.7161 50.5371C66.3746 50.611 66.2262 50.5815 66.1668 50.4188Z" fill="white"/>
<path d="M67.5624 49.9454C67.5624 49.7827 67.6069 49.7383 67.6514 49.8566C67.696 49.9602 67.6811 50.0933 67.6366 50.1377C67.5921 50.1968 67.5475 50.1081 67.5624 49.9454Z" fill="white"/>
<path d="M66.3008 49.7088C66.4789 49.3834 66.9985 48.8509 67.1321 48.8509C67.2806 48.8509 67.2954 49.5461 67.147 49.6348C67.0728 49.6644 66.8352 49.7384 66.6126 49.7975C66.286 49.8715 66.2117 49.8567 66.3008 49.7088Z" fill="white"/>
<path d="M67.4882 49.3686C67.3249 48.9248 67.3992 48.7325 67.7555 48.6734C68.1266 48.5994 68.1266 48.5994 67.8891 49.058C67.5922 49.6496 67.607 49.6496 67.4882 49.3686Z" fill="white"/>
<path d="M67.3989 48.4811C67.3989 48.4515 67.6958 48.2444 68.067 48.0373C68.5123 47.7711 68.8241 47.6823 69.0468 47.7415C69.314 47.8303 69.2398 47.8894 68.5866 48.2C67.8591 48.5254 67.3989 48.6438 67.3989 48.4811Z" fill="white"/>
<path d="M75.6384 35.3761C75.2375 34.7993 74.3913 33.8674 73.7827 33.3054C73.174 32.7433 72.7732 32.2848 72.8919 32.2848C73.2185 32.2848 75.7126 32.9652 76.3361 33.2314C76.8557 33.4533 76.8706 33.4829 76.7369 33.9414C76.6627 34.2076 76.6033 34.8732 76.6033 35.4205C76.6033 35.9826 76.5588 36.4263 76.4994 36.4263C76.4252 36.4263 76.0541 35.953 75.6384 35.3761Z" fill="white"/>
<path d="M45.4276 80.1786C44.8189 79.868 44.6853 79.6905 43.9134 78.167C42.7999 76.0075 42.7703 75.5046 43.8243 76.7322C44.24 77.2203 45.2049 78.2261 45.9621 78.9657C47.2536 80.2082 47.313 80.2969 46.8825 80.2377C46.5707 80.1934 46.452 80.2229 46.5262 80.3413C46.7043 80.6075 46.1402 80.5336 45.4276 80.1786Z" fill="white"/>
<path fill-rule="evenodd" clip-rule="evenodd" d="M70.307 107.127C70.1838 106.835 70.3211 106.499 70.6138 106.377L70.9336 106.241C74.0433 104.916 75.8282 104.119 77.041 102.855C78.2539 101.59 78.399 99.733 78.6268 98.6028C78.6894 98.2927 79.3943 98.8374 79.7056 98.8997C80.0169 98.962 80.2185 99.2639 80.156 99.5741C79.882 100.933 79.1443 102.228 77.9566 103.458C76.7729 104.684 74.4812 105.997 71.0599 107.432C70.7673 107.555 70.4302 107.418 70.307 107.127Z" fill="#2C2C2E"/>
<path fill-rule="evenodd" clip-rule="evenodd" d="M84.3701 48.1101C84.6429 47.9482 84.9958 48.0374 85.1582 48.3093C86.7844 51.0311 87.6555 54.1425 87.6555 57.3796C87.6555 67.1866 79.6761 75.1367 69.8331 75.1367C67.2175 75.1367 64.6807 74.5746 62.3577 73.5038C62.0695 73.371 60.9809 72.3132 62.0773 72.7434C63.1737 73.1736 67.4157 74.1392 69.8636 74.1392C79.0717 74.1392 85.5858 66.5539 85.5858 57.3796C85.5858 54.3502 84.3701 51.6612 84.1701 48.8953C84.147 48.5746 84.0972 48.2719 84.3701 48.1101Z" fill="#2C2C2E"/>
<path fill-rule="evenodd" clip-rule="evenodd" d="M27.4312 91.4632C27.6344 91.2201 27.9969 90.7289 28.2409 90.9314C29.2417 91.762 30.3097 92.7243 31.4522 92.9101C32.6411 93.1034 34.0514 93.1034 35.6815 92.9068C35.9967 92.8687 36.2832 93.0925 36.3213 93.4066C36.3595 93.7206 36.1349 94.0061 35.8197 94.0441C34.0886 94.2529 32.5717 94.2529 31.267 94.0407C29.916 93.8211 28.6595 93.2281 27.505 92.2699C27.261 92.0674 27.2279 91.7063 27.4312 91.4632Z" fill="#2C2C2E"/>
<path d="M39.6382 71.4222C38.8959 70.8305 37.3075 69.0852 36.105 67.5469C35.4815 66.7334 34.7837 65.0768 34.368 63.4054C34.1751 62.651 33.9821 61.9706 33.9375 61.8819C33.8781 61.8079 33.6406 60.7578 33.4031 59.5449C33.0468 57.8291 33.1222 57.2763 32.8093 55.224C32.6768 54.3551 32.5569 53.6637 32.5569 53.6637L32.9429 53.1699C33.1656 52.8741 33.4472 52.3845 33.5515 52.1049C34.0266 50.8313 37.5153 46.8393 37.6192 46.9428C37.6489 46.9724 37.5302 47.6676 37.3223 48.4811C37.1293 49.2946 36.8918 50.5223 36.7879 51.2175C36.6394 52.3712 36.58 52.5043 36.1198 52.8889C35.5408 53.377 34.4423 54.9448 34.4423 55.2702C34.4423 55.714 35.1103 55.4181 35.8081 54.6934L36.5207 53.9538V54.7673C36.5207 55.2998 36.4167 55.7879 36.2237 56.1725C35.8526 56.8973 35.8526 57.6664 36.2089 58.258C36.387 58.5539 36.5503 59.2639 36.6543 60.1069C37.1145 63.9231 38.0943 67.2363 39.7718 70.5643C40.1875 71.3926 40.5141 72.073 40.4993 72.073C40.4696 72.073 40.0836 71.7772 39.6382 71.4222Z" fill="white"/>
<path fill-rule="evenodd" clip-rule="evenodd" d="M101.411 80.5484L102.479 81.0217C102.701 81.1236 105.146 82.2942 108.083 83.7002C112.818 85.9671 118.832 88.8462 118.869 88.8462C118.928 88.8462 119.207 88.2044 119.27 87.4559C119.418 85.8436 119.968 83.6545 120.606 82.131C120.903 81.4506 121.14 80.6003 121.14 80.5263C121.14 80.4926 120.899 80.3956 120.504 80.2368C120.033 80.0478 119.345 79.7712 118.587 79.4095C114.846 77.6197 107.527 73.9663 106.621 73.419C105.731 72.9013 105.552 72.857 105.552 73.1972C105.552 73.6409 104.647 75.6969 103.949 76.8062C103.578 77.4127 102.851 78.5072 102.331 79.232L101.411 80.5484ZM118.616 86.1838C119.042 86.4296 118.304 86.7902 118.126 86.8494C117.077 86.9381 115.842 86.7416 114.831 86.1542C114.302 85.7804 110.136 83.4746 107.373 81.945C106.109 81.2458 105.139 80.7087 104.943 80.5927C104.32 80.2229 103.726 79.8236 103.622 79.7053C103.31 79.3059 103.607 79.1284 104.483 79.2024C105.01 79.2468 117.697 85.6528 118.616 86.1838Z" fill="white"/>
<path d="M90.7511 81.8796C90.3651 81.7465 89.9494 81.4507 89.6822 81.1105L89.2368 80.5632L90.8104 79.0101C93.2303 76.6435 95.0117 74.0571 96.6151 71.1729C97.1495 70.2114 98.738 66.3341 98.931 65.9051C99.2279 65.2839 99.4506 65.0473 100.089 64.6923C100.846 64.2485 101.707 64.1006 102.078 64.3521C102.791 64.8254 102.791 66.3193 102.078 68.893C101.291 71.7181 100.237 73.7445 98.0551 76.6583C97.7136 77.1021 97.0753 77.9747 96.6151 78.5812C95.3829 80.2082 94.5812 80.9921 93.4975 81.5986C92.4286 82.1902 91.8051 82.2642 90.7511 81.8796Z" fill="white"/>
<path d="M96.348 81.5394L96.0363 81.2288C96.0363 81.2288 101.211 74.6788 102.138 72.2653C102.845 70.4235 103.262 69.9012 103.824 69.9012C104.138 69.9012 104.394 69.9727 104.513 70.1502C104.721 70.4608 104.921 70.8454 104.654 72.1618C104.209 74.2917 103.526 75.6969 101.477 78.7291C101.002 79.4243 100.393 80.1934 100.126 80.4596C99.5026 81.0365 98.0998 81.6281 97.2833 81.7613C96.7637 81.8352 96.6152 81.8056 96.348 81.5394Z" fill="white"/>
<path fill-rule="evenodd" clip-rule="evenodd" d="M105.039 74.6902C105.339 74.0078 105.552 73.4126 105.552 73.1972C105.552 72.857 105.73 72.9013 106.621 73.419C107.527 73.9663 114.846 77.6197 118.587 79.4095C119.982 80.0751 121.14 80.4524 121.14 80.5263C121.14 80.6003 104.722 75.4138 105.039 74.6902Z" fill="#E5E5EA"/>
<path fill-rule="evenodd" clip-rule="evenodd" d="M54.2458 75.5342C52.3604 74.3065 49.51 71.4222 48.1294 69.3662C46.1549 66.408 44.8485 63.2427 44.2101 59.8407C43.7499 57.3706 43.7648 53.5693 44.225 51.3654C44.7 49.1171 45.3087 47.4014 46.3924 45.227C47.6543 42.7125 48.9904 40.8637 50.9946 38.8668C52.9599 36.9087 44.225 45.0064 46.3924 59.495C48.1294 71.6363 55.5941 76.4193 54.2458 75.5342Z" fill="#E5E5EA"/>
</svg>
