<svg width="160" height="160" viewBox="0 0 160 160" fill="none" xmlns="http://www.w3.org/2000/svg">
<path d="M136.782 114.096C135.936 130.887 122.723 146.103 106.527 149.376C90.3309 152.648 72.605 143.943 64.7132 129.175C63.8423 127.545 63.0667 125.836 62.2912 124.127C60.2892 119.714 58.2878 115.303 54.6484 112.268C50.493 108.802 45.1487 107.875 39.7506 106.939C36.3228 106.345 32.8733 105.746 29.6927 104.492C22.0254 101.468 16.0721 94.3038 14.4125 86.104C11.7232 72.8161 20.2417 59.2495 31.6014 52.1584C42.961 45.0673 56.6113 43.0924 69.8518 41.5706C74.9168 40.9884 79.0311 37.1021 81.9696 32.8614C83.1072 31.2197 84.1307 29.4946 85.1534 27.7708C86.7725 25.0418 88.3898 22.3161 90.4547 19.9294C99.1984 9.82308 115.481 8.11769 126.618 15.3847C137.755 22.6517 143.086 37.5948 140.124 50.7213C139.614 52.9822 138.89 55.1836 138.166 57.3852L138.165 57.3855C137.472 59.4929 136.779 61.6005 136.273 63.7606C135.193 68.3775 134.987 73.1553 134.863 77.8998C134.717 83.5567 134.682 89.2284 135.203 94.8624C135.383 96.8223 135.632 98.7798 135.88 100.737C136.443 105.184 137.007 109.629 136.782 114.096Z" fill="white" fill-opacity="0.48"/>
<path d="M69.8334 37.5603C75.8893 34.4927 80.7092 29.1653 83.7445 23.0107C84.1424 22.2037 84.5196 21.3463 84.5056 20.4434C84.4917 19.5405 83.9757 18.5842 83.118 18.3549C81.8887 18.0263 80.8315 19.2263 80.0649 20.2585C74.7989 27.3491 67.1342 32.9156 58.4852 34.1296C55.1635 34.5958 51.7909 34.4207 48.4422 34.2447L43.2116 33.9697C38.9988 33.7483 34.7276 33.5312 30.6039 34.4363C26.4802 35.3415 22.4509 37.5183 20.186 41.1419C19.4651 42.2953 18.9251 43.6546 19.1246 45.0065C19.329 46.392 20.2962 47.5679 21.4613 48.3133C22.6264 49.0587 23.9799 49.4316 25.3213 49.7436C26.3035 49.972 27.3066 50.1744 28.3115 50.1023C29.9545 49.9846 31.4455 49.1527 32.8962 48.3433C32.9928 48.2894 33.0893 48.2356 33.1856 48.1821C35.7212 46.7736 38.3485 45.5228 41.0888 44.5934C45.0849 43.2381 49.2869 42.5749 53.4784 41.9133C59.1251 41.022 64.753 40.1336 69.8334 37.5603Z" fill="white" fill-opacity="0.48"/>
<path d="M38.3406 119.281L38.3442 119.282C38.591 119.292 38.8377 119.302 39.0837 119.315C42.9751 119.521 46.8261 120.492 50.362 122.16C51.7101 122.795 53.0755 123.591 53.8327 124.893C54.7695 126.503 55.8942 128 57.1754 129.343C57.6725 129.863 58.2107 130.373 58.8743 130.639C59.5379 130.905 60.3573 130.88 60.8957 130.404C61.5498 129.825 61.5923 128.798 61.3907 127.94C61.0603 126.534 60.2365 125.309 59.4212 124.126C56.7455 120.242 53.9286 116.359 50.2052 113.507C46.4818 110.656 41.6765 108.929 37.1189 109.914C35.5453 110.254 33.9856 110.948 32.9423 112.194C31.899 113.441 31.4867 115.318 32.2381 116.766C32.8342 117.915 34.0427 118.622 35.28 118.94C36.2772 119.197 37.3099 119.239 38.3404 119.281H38.3406Z" fill="white" fill-opacity="0.48"/>
<path d="M143.6 60.8684C142.559 60.469 141.381 60.9514 140.501 61.6425C138.762 63.0076 137.733 65.143 137.265 67.3274C136.797 69.5118 136.834 71.7714 136.874 74.0069L137.218 93.2144C137.243 94.6176 137.305 96.13 138.152 97.2368C138.417 97.5832 138.78 97.8872 139.21 97.9318C139.73 97.9859 140.211 97.6515 140.586 97.2812C142.64 95.2562 142.91 92.0665 143.156 89.1591L143.165 89.0534C143.526 84.7857 144.152 80.5411 145.037 76.3534C145.286 75.1757 145.559 73.9905 146.08 72.9088C147.712 69.5175 147.321 65.2127 145.107 62.183C144.707 61.6349 144.227 61.1094 143.6 60.8684Z" fill="white" fill-opacity="0.48"/>
<g clip-path="url(#clip0_231_1367)">
<path d="M101.19 86.8714C102.145 87.135 103 87.9322 103.094 88.9206C103.275 88.5274 103.672 88.2433 104.102 88.2L103.478 88.8648L104.268 88.8806L103.181 89.489C103.855 90.7378 103.746 92.2781 103.314 93.6302C103.05 94.4577 102.668 95.2868 102.742 96.1525C102.816 97.004 103.57 97.874 104.394 97.6997L104.435 97.6901C105.426 97.439 106.511 97.5845 107.401 98.0874C108.68 98.8099 109.456 100.152 110.335 101.331C111.111 102.372 112.029 103.34 113.178 103.943C114.326 104.546 115.733 104.745 116.929 104.244C117.523 103.996 118.054 103.585 118.684 103.454C119.313 103.323 119.959 103.674 120.19 104.272C120.292 104.537 120.072 105.518 119.512 106.663C119.603 106.637 119.698 106.62 119.798 106.614C122.744 106.422 125.716 105.78 128.251 104.263C129.057 103.781 129.81 103.216 130.557 102.647L130.992 102.314L131.256 102.11C132.896 100.837 134.514 99.4167 135.189 97.4792L135.224 97.3749L135.299 97.1459C135.443 96.7124 135.626 96.2643 136.043 96.1297C136.62 95.9433 137.146 96.5039 137.497 97.0003L140.028 100.577C140.093 100.669 140.159 100.764 140.184 100.874C140.293 101.36 139.57 101.606 139.104 101.433C138.256 101.119 137.575 100.184 136.686 100.345C136.061 100.457 135.687 101.064 135.378 101.636L135.3 101.782C133.428 105.297 130.277 108.109 126.579 109.567C125.625 109.943 124.64 110.231 123.657 110.518L121.67 111.098L122.02 111.161C124.985 111.682 128.148 112 130.84 110.683C132.632 109.806 134.013 108.296 135.316 106.77L135.788 106.212L135.983 105.98C136.783 105.018 137.542 103.988 137.776 102.77C137.865 102.302 138.454 102.078 138.913 102.205C139.371 102.332 139.72 102.695 140.044 103.044L142.504 105.683C142.697 105.891 142.901 106.121 142.93 106.404C142.958 106.687 142.705 107.008 142.432 106.928L139.765 106.152C139.515 106.079 139.238 106.008 139.003 106.119C138.822 106.205 138.706 106.38 138.602 106.553L135.735 111.409C134.928 112.776 133.431 113.569 131.961 114.162C128.436 115.584 124.61 116.252 120.813 116.108C120.4 116.093 119.987 116.068 119.58 116.004C118.048 115.761 116.664 114.98 115.325 114.19C115.56 115.052 115.351 115.778 113.956 115.833C112.72 115.882 109.694 110.781 108.753 110.516C103.616 109.072 102.772 106.22 101.122 104.272C101.122 104.272 97.7867 104.705 95.5848 104.244C90.4231 103.165 86.9545 99.8455 85.7039 99.634C84.4533 99.4227 83.6287 100.227 83.2426 99.739V99.3858C83.3022 99.2886 83.8999 98.7287 85.6046 99.0924C87.9851 99.6002 91.7903 101.517 94.6963 101.876C97.747 102.251 100.331 101.754 100.317 101.67C100.288 101.5 101.055 100.776 100.442 100.411C99.8295 100.045 90.9352 96.4653 89.002 93.4819L88.9787 93.4448C88.6464 92.8916 88.3939 91.5166 89.0627 92.1461L89.2499 91.813C89.9701 92.4941 92.3345 94.0509 94.7907 95.5857C97.3876 97.2082 101.055 98.2474 101.122 98.2019C102.616 97.1882 101.291 96.4544 101.044 96.2388C100.465 95.7345 99.6957 95.4597 99.1969 94.8755C98.0003 93.4745 98.8549 90.9684 97.4871 89.7349C97.2801 89.5483 97.029 89.4014 96.879 89.1662C96.6221 88.7634 96.7484 88.2026 97.0595 87.8402C97.3708 87.4778 97.8259 87.2754 98.2762 87.1177C99.211 86.7905 100.236 86.6077 101.19 86.8714Z" fill="white"/>
<path d="M101.992 94.3889C102.187 94.3889 102.345 94.2306 102.345 94.0353C102.345 93.84 102.187 93.6817 101.992 93.6817C101.797 93.6817 101.639 93.84 101.639 94.0353C101.639 94.2306 101.797 94.3889 101.992 94.3889Z" fill="#FFAB01"/>
<path d="M99.841 94.3889C99.9858 94.3889 100.103 94.2306 100.103 94.0353C100.103 93.84 99.9858 93.6817 99.841 93.6817C99.6961 93.6817 99.5787 93.84 99.5787 94.0353C99.5787 94.2306 99.6961 94.3889 99.841 94.3889Z" fill="#FFAB01"/>
<path d="M87.0508 95.7508C83.7695 94.9 80.3209 94.7035 76.9645 95.1765C77.2185 93.9185 77.5363 92.6738 77.9166 91.4483C76.8246 91.8017 75.5352 90.798 75.6058 89.6495C75.6765 88.5008 77.0789 87.6636 78.1195 88.1489C78.4768 87.3219 78.4996 86.355 78.1813 85.5119C78.0286 85.1076 78.6371 84.8742 79.0683 84.8742L81.451 84.8736C81.7841 84.8735 82.2484 84.7184 82.1656 84.3948C81.9696 83.6276 82.4956 82.7512 83.2634 82.5657C84.0173 82.3838 84.866 82.9014 85.0607 83.6517L85.0709 83.6935C85.2518 84.4992 86.2695 84.7551 87.0928 84.7393L87.5028 84.7294C88.215 84.7144 88.9572 84.7376 89.4338 85.2371C90.004 85.8345 89.8766 86.7861 89.6886 87.5973L89.6761 87.6511C89.4098 88.7769 89.1259 89.8987 88.8245 91.0156C89.4098 95.7391 87.9605 95.9867 87.0508 95.7508Z" fill="white"/>
<path d="M59.6826 91.807C59.3348 89.5366 59.3353 87.2131 59.684 84.9429L59.7016 84.833C59.7883 84.3178 59.9402 83.7738 60.3695 83.4902C60.6909 83.2776 61.0968 83.2617 61.4839 83.2615L64.4476 83.2697C64.5824 83.27 64.7303 83.2752 64.8318 83.3644C64.9333 83.4535 64.9304 83.6583 64.8004 83.6944C64.49 83.7807 64.3116 84.1396 64.3492 84.4605C64.3869 84.7813 64.595 85.0591 64.8392 85.2697C65.4217 85.7719 66.3273 85.9503 66.9721 85.5316C67.6169 85.1129 67.7687 84.0342 67.1576 83.5673C68.5419 83.539 69.927 83.5434 71.3112 83.5802L71.8302 83.5956C71.998 83.6011 72.1834 83.6146 72.3006 83.7351C72.3887 83.8255 72.4176 83.957 72.4374 84.0818C72.5907 85.0427 72.4231 86.0522 71.9676 86.9116C71.8951 87.0485 71.7271 87.1993 71.6126 87.0951C71.1263 86.6523 70.3083 86.7127 69.8107 87.1427C69.3131 87.5725 69.1206 88.2867 69.2086 88.9395C69.2933 89.5678 69.7498 90.2388 70.3814 90.2071C70.8787 90.1822 71.4317 89.746 71.8074 90.0737L71.1744 92.9104C71.0618 93.4144 70.86 94.0123 70.3563 94.1203C67.4493 94.7439 64.4012 94.6967 61.5146 93.9835L61.3745 93.9479C61.0242 93.8561 60.6754 93.737 60.402 93.5025C59.9263 93.0941 59.7777 92.4277 59.6826 91.807Z" fill="white"/>
<path d="M82.4904 69.5453L89.5156 69.6871L89.6303 69.6899C89.8414 69.6965 90.0538 69.715 90.2439 69.8041C90.6732 70.0049 90.8701 70.5004 91.0007 70.9573C91.6978 73.3959 91.6118 76.0531 90.7584 78.4412L90.7224 78.5389C90.6115 78.8329 90.4662 79.1257 90.204 79.291C89.988 79.4271 89.7249 79.4556 89.4688 79.4692L89.4141 79.472C88.3695 79.5218 87.3213 79.4949 86.2805 79.3919C86.8224 79.0572 86.9594 78.2427 86.6152 77.7058C86.271 77.1689 85.5439 76.9447 84.9316 77.119C84.5584 77.2253 84.2108 77.481 84.0758 77.8458C83.9406 78.2105 84.0712 78.6789 84.4162 78.8571C84.6547 78.9803 84.6136 79.3682 84.4047 79.5372C84.1959 79.706 83.9055 79.718 83.6373 79.7223L80.1126 79.7796C79.8477 79.784 79.5691 79.7851 79.3365 79.6578C79.0067 79.4773 78.8551 79.0886 78.7621 78.7235C78.5378 77.8426 78.5074 76.9125 78.6739 76.0188C78.8743 76.7247 79.7416 77.1533 80.4219 76.8826C81.102 76.612 81.4405 75.7036 81.1038 75.0521C80.7671 74.4005 79.832 74.1538 79.2191 74.5551L79.1937 74.3274C79.1058 73.5291 79.0375 72.7204 79.1904 71.9343C79.3578 71.0732 79.8353 70.2275 80.6183 69.8363C81.1893 69.551 81.8488 69.5353 82.4904 69.5453Z" fill="white"/>
<path d="M61.1834 77.4702C60.1942 77.4741 59.2047 77.4334 58.2192 77.348L58.1235 77.3391C57.7704 77.3039 57.4004 77.2329 57.169 76.9698C56.8571 76.6144 56.9333 76.079 57.027 75.6102L57.0363 75.5636C57.4553 73.5073 57.6197 71.3992 57.5253 69.3025L57.5077 68.9412C57.4814 68.291 57.5229 67.554 58.0612 67.2197C58.2252 67.1179 58.4152 67.0707 58.6049 67.0325L58.6679 67.0199C62.1155 66.3466 65.7049 66.4147 69.1245 67.2188C69.5748 67.3246 69.7001 67.9364 69.5508 68.3753C69.4015 68.8141 69.0809 69.1831 68.9609 69.6312C68.8409 70.0791 69.0607 70.6853 69.5229 70.6998C70.485 70.7301 71.3004 71.7103 71.1711 72.6668C71.0419 73.6231 70.011 74.3486 69.0673 74.1586C68.8458 74.1141 68.7675 74.4422 68.7918 74.6675L69.0611 77.1643C69.105 77.5718 68.5284 77.7005 68.1209 77.6688L65.7434 77.4831C65.3698 77.4539 64.8689 77.5185 64.8113 77.8898C64.668 78.8143 63.7229 79.5361 62.7963 79.4288C61.8695 79.3216 61.1132 78.403 61.1834 77.4702Z" fill="white"/>
<path fill-rule="evenodd" clip-rule="evenodd" d="M54.7839 92.8364C55.0477 92.9006 55.4254 93.015 55.4044 93.265C54.9823 98.3068 53.165 97.379 51.5446 98.8246C51.1165 99.2067 50.8606 100.11 50.6767 100.131C51.3586 100.447 52.3484 101.714 54.0514 101.772C58.7971 101.933 60.5243 98.4606 60.5243 98.4606C60.6358 97.3472 60.0727 95.342 60.7756 95.9035C61.2609 96.2911 61.1649 94.4029 61.8277 94.5908C62.0267 94.6474 61.6789 95.9028 61.8277 95.9778C61.9097 96.0194 62.0313 95.6772 62.2432 95.4048C62.42 95.1778 62.6927 95.0097 62.7492 95.0592C62.7873 95.0928 62.7507 95.4174 62.5916 95.6919C62.3678 96.0778 61.9937 96.4493 62.0461 96.511C62.1036 96.5792 63.0901 95.6586 63.1503 95.7391C63.5494 96.273 61.0212 102.419 56.7552 103.579L56.4173 103.67C53.9305 104.333 52.8861 104.423 50.582 103.579C49.4895 103.179 48.8101 106.917 48.2027 108.161C47.8193 108.946 45.9569 110.871 45.1065 110.289C43.9843 109.521 43.0696 108.091 42.1147 107.368L42.0533 107.323C41.4027 106.855 39.9308 106.145 37.6378 105.193L37.7412 105.145C38.2196 104.927 39.4517 104.394 40.3979 103.579C41.7422 102.422 42.4703 99.9352 43.4075 98.5944C44.3329 97.2705 45.5745 97.4656 44.8252 97.2314C44.8252 97.2314 42.9263 96.2226 42.0533 96.1302C39.1379 95.8216 35.3376 97.2033 34.1218 98.0936C32.4536 99.3153 34.111 101.113 31.8061 100.232C31.0378 99.9384 33.0968 96.1336 35.937 94.5908C39.8847 92.4466 43.6175 91.8567 47.3599 95.2702C48.883 96.6593 49.0337 97.8961 49.442 98.839L49.3585 98.6078C53.8732 98.3093 47.1088 93.7768 52.756 92.6425C53.3491 92.5232 53.9715 92.6472 54.566 92.7851L54.7839 92.8364Z" fill="white"/>
<path d="M51.8765 96.3355C52.0714 96.3355 52.2295 96.1772 52.2295 95.9819C52.2295 95.7866 52.0714 95.6283 51.8765 95.6283C51.6816 95.6283 51.5236 95.7866 51.5236 95.9819C51.5236 96.1772 51.6816 96.3355 51.8765 96.3355Z" fill="#FFAB01"/>
<path d="M53.8176 97.0433C54.0125 97.0433 54.1706 96.885 54.1706 96.6898C54.1706 96.4945 54.0125 96.3362 53.8176 96.3362C53.6227 96.3362 53.4647 96.4945 53.4647 96.6898C53.4647 96.885 53.6227 97.0433 53.8176 97.0433Z" fill="#FFAB01"/>
<path fill-rule="evenodd" clip-rule="evenodd" d="M33.329 109.708C37.1545 112.364 32.2599 108.695 36.4397 113.068C37.2839 113.951 41.5575 108.908 41.9983 111.896C42.159 112.987 41.8084 114.121 42.0221 115.202C42.2217 116.211 46.5962 115.605 46.9341 115.164C48.1592 113.565 44.347 109.457 43.5478 108.801C39.0873 105.136 37.6153 105.39 33.4476 109.182L33.329 109.708Z" fill="white"/>
<path fill-rule="evenodd" clip-rule="evenodd" d="M132.844 43.3103C133.595 43.4002 134.292 43.4839 134.292 42.6069C134.292 42.3982 131.767 40.5652 131.019 41.2711C130.057 42.1788 129.292 43.2198 128.552 44.2281C126.998 46.3448 125.55 48.3175 122.597 48.6114L122.561 48.6153C121.417 48.754 123.549 49.7728 125.944 48.6114C127.591 47.8129 129.782 45.2866 130.822 44.0867C131.095 43.7727 131.288 43.5495 131.373 43.4719L131.394 43.4533C131.749 43.179 132.31 43.2462 132.844 43.3103ZM136.407 45.6838L138.905 47.6727C139.392 48.0602 138.822 48.8952 138.202 48.9352C137.842 48.9584 137.497 48.8474 137.15 48.7358C136.899 48.655 136.647 48.574 136.388 48.5432C134.921 48.3693 133.802 49.7551 132.892 50.9222C132.06 51.9888 131.149 52.9935 130.169 53.9251L130.037 54.05L129.899 54.1774C129.111 54.896 128.227 55.5469 127.187 55.7344C125.656 56.0106 124.135 55.2244 122.884 54.2966C122.579 54.0702 122.28 53.8327 121.98 53.5951C121.051 52.859 120.121 52.1216 119.019 51.7084C118.065 52.2307 117.171 52.8619 116.356 53.5819L116.392 53.5532C117.762 54.9297 118.719 56.7133 119.111 58.6178L118.849 58.5716L118.676 58.542C117.058 58.2699 115.325 58.1088 113.957 58.9774C113.475 59.2833 113.046 59.7109 112.62 60.1334C112.325 60.4276 112.031 60.7195 111.724 60.9666C111.802 61.0129 111.882 61.0613 111.963 61.1115C113.477 61.7323 115.081 62.1299 116.708 62.2876C116.957 62.3117 117.209 62.3308 117.461 62.3501C118.628 62.4389 119.81 62.529 120.808 63.1167L121.158 63.3265C121.72 63.6598 122.345 63.9771 122.815 63.5911C122.95 63.4802 123.039 63.328 123.128 63.1751C123.182 63.082 123.236 62.9887 123.301 62.9043C123.473 62.6812 123.814 62.5242 124.028 62.7074L124.114 63.3894C124.177 62.9507 124.599 62.5941 125.041 62.6063C125.483 62.6187 125.885 62.9983 125.923 63.4398C125.993 64.2413 125.087 64.7208 124.318 64.976L120.332 66.2643C118.907 66.7244 117.328 66.486 115.955 65.8893C114.677 65.3338 113.549 64.4883 112.471 63.5998L112.233 63.4016C111.419 62.7224 110.319 61.9846 109.395 62.504C111 62.6019 112.17 63.9886 113.127 65.3L113.219 65.4267C113.374 65.6409 113.533 65.8663 113.572 66.1282C113.679 66.861 112.849 67.3475 112.148 67.5805C112.738 67.8978 112.446 68.8195 111.988 69.3103C111.322 70.0246 110.449 70.5386 109.508 70.7931L109.423 71.0913C109.417 71.1113 109.415 71.1217 109.415 71.1221C109.859 71.0911 110.133 71.6891 109.952 72.0966C109.771 72.5043 109.325 72.7213 108.897 72.8427C107.486 73.2426 105.893 72.9271 104.74 72.0195L104.515 72.1366C103.541 72.6422 102.533 73.1124 101.451 73.2718C100.285 73.4435 99.001 73.2024 98.158 72.3766L98.2134 72.4981C98.3327 72.7632 98.4398 73.0375 98.4437 73.3265C98.4479 73.6597 98.2761 74.0197 97.9612 74.1265C97.4417 74.3032 96.9879 73.7463 96.7182 73.2672C96.5705 73.636 96.7228 74.051 96.8709 74.4546C97.0399 74.9149 97.2033 75.3603 96.9097 75.705C96.6037 76.0639 96.0237 75.9721 95.6028 75.7603C94.0261 74.9673 93.2855 72.9712 93.6269 71.2359C93.9686 69.5004 95.2128 68.0472 96.6944 67.0875C95.6886 66.3482 94.9527 65.2473 94.6529 64.0333C94.7327 64.1367 95.0893 63.8042 95.5959 63.332C96.5227 62.4681 97.9514 61.1366 99.1056 61.149C99.3267 61.1513 99.6839 61.323 100.033 61.4909H100.034C100.287 61.6127 100.536 61.7325 100.727 61.785C100.743 61.7645 100.763 61.7459 100.785 61.7298L100.566 61.5725C100.127 61.2595 99.6683 60.9652 99.1481 60.8355C98.5413 60.6842 97.8227 60.8087 97.4361 61.3016C96.4906 62.5067 95.2927 63.5118 93.943 64.2326L94.7432 65.7139C94.4125 65.8723 94.0005 65.8433 93.6936 65.6435L93.6559 65.6179L93.6795 65.6474C94.1404 66.2501 93.7355 67.3011 92.9811 67.4202C92.2156 67.7425 91.4435 66.7801 91.5189 65.9511C91.5717 65.3699 91.8588 64.855 92.1464 64.3391C92.269 64.1188 92.3919 63.8985 92.4967 63.6727C92.8507 62.91 93.0063 62.0627 93.1609 61.2207C93.373 60.0667 93.583 58.923 94.2994 58.021C94.8013 57.3893 95.504 56.95 96.2247 56.5897C99.0853 55.16 102.47 54.8181 105.558 55.6472C106.084 53.7579 107.126 52.0159 108.541 50.6619L108.626 50.5825C109.167 50.0823 109.84 49.6354 110.559 49.7174L110.615 49.725C111.328 49.8341 111.948 49.2823 112.467 48.7716L112.626 48.6143L112.752 48.4933C113.78 47.5082 114.974 46.599 116.379 46.501C117.629 46.4137 118.826 46.9893 119.905 47.6283C121.126 48.3513 122.287 49.1753 123.373 50.0893L123.564 50.2515L123.62 50.2995L123.682 50.353L123.717 50.3837C124.741 51.2659 125.862 52.2312 127.195 52.1512C128.562 52.0692 129.561 50.9314 130.481 49.8829L130.481 49.8826L130.481 49.8822C130.556 49.7976 130.629 49.7136 130.703 49.6308C131.838 48.3495 133.13 47.2215 134.438 46.1166L134.999 45.6441C135.169 45.5013 135.352 45.3527 135.572 45.3241C135.881 45.2838 136.163 45.4895 136.407 45.6838ZM111.703 67.4027C111.425 67.3471 111.046 67.3714 110.566 67.4752C110.882 67.4765 111.148 67.4708 111.365 67.4583C111.469 67.4453 111.573 67.4291 111.676 67.4084L111.703 67.4027ZM101.414 61.2678C101.516 61.1634 101.623 61.0535 101.741 60.9593C101.962 60.8427 102.21 60.7836 102.46 60.8073C103.307 60.888 103.948 61.7909 103.837 62.6362C103.39 63.7465 102.285 64.3802 101.191 65.0068C100.517 65.3928 99.848 65.7762 99.3405 66.2668C99.4679 66.056 99.6073 65.8879 99.7486 65.7847C100.19 65.4625 100.652 65.1832 101.087 64.9201L101.087 64.9199C101.452 64.6987 101.799 64.4888 102.1 64.2744C102.572 63.9369 102.89 63.6161 103.136 63.3674C103.324 63.1774 103.47 63.0296 103.612 62.9487C103.624 62.942 104.157 61.8578 102.868 61.149C101.894 60.6139 101.461 61.2908 101.227 61.6546C101.152 61.7726 101.097 61.8578 101.052 61.8578C101.041 61.8578 101.024 61.856 101.004 61.8523C101.036 61.7369 101.085 61.6254 101.148 61.5212C101.235 61.4522 101.323 61.3623 101.414 61.2678ZM101.69 60.988C101.468 61.1166 101.278 61.3035 101.148 61.5212L101.116 61.5454C101.051 61.5923 100.987 61.6266 100.921 61.6424C100.787 61.6741 100.468 61.4286 100.197 61.2207C100.036 61.0963 99.8914 60.9853 99.8146 60.9553C99.3092 60.7564 99.25 60.7537 98.8995 60.7369C98.8402 60.7341 98.7728 60.7309 98.6934 60.7263L98.548 60.7172C98.5162 60.7153 98.4811 60.7139 98.4437 60.7123H98.4435C98.1531 60.7001 97.735 60.6824 97.8185 60.4559C99.3117 56.403 105.692 55.521 104.637 60.1025C104.55 60.4814 104.321 60.8128 104.092 61.1444C103.977 61.3102 103.863 61.4761 103.766 61.6477C103.354 61.0602 102.904 60.7505 102.418 60.7187C102.147 60.7008 101.93 60.81 101.741 60.9593L101.69 60.988ZM113.262 57.3521L113.264 57.3498C112.913 58.0191 112.536 58.8248 112.133 59.7668C112.436 58.9297 112.815 58.1214 113.262 57.3521ZM116.107 57.9694L116.058 57.9713C115.669 57.9876 115.32 58.046 115.01 58.1465C114.668 58.258 114.302 58.4443 113.915 58.7055C114.593 58.3295 115.341 58.0779 116.107 57.9694Z" fill="white"/>
<path fill-rule="evenodd" clip-rule="evenodd" d="M96.2 74.9438C95.894 75.3026 95.4507 75.1869 95.0445 74.7898C94.1947 73.9588 93.853 72.3555 94.1947 70.6202C94.5361 68.8848 95.8674 68.1698 97.349 67.2102C96.684 66.9355 95.4797 65.1944 95.3588 63.5025C95.7685 64.0326 95.7901 64.9845 96.2 65.5147C96.5887 66.018 97.3659 66.6306 97.7548 67.1337C97.8044 67.198 97.8473 67.3059 97.7769 67.3461C96.3563 68.1551 95.4361 68.4229 94.5982 70.62C93.7606 72.8172 95.4613 74.8496 95.6874 74.7898C95.9658 74.716 95.8672 74.3456 95.7073 74.1055C95.2561 73.4279 95.6853 72.5247 96.053 71.7983C96.2496 72.0193 95.777 72.6533 95.8765 73.3125C95.9738 73.9561 96.4723 74.624 96.2 74.9438Z" fill="#E5E5EA"/>
<path d="M101.992 68.0215C102.187 68.0215 102.345 67.8632 102.345 67.668C102.345 67.4727 102.187 67.3144 101.992 67.3144C101.797 67.3144 101.639 67.4727 101.639 67.668C101.639 67.8632 101.797 68.0215 101.992 68.0215Z" fill="#FFAB01"/>
<path d="M100.757 66.6058C100.952 66.6058 101.11 66.4475 101.11 66.2523C101.11 66.057 100.952 65.8987 100.757 65.8987C100.562 65.8987 100.404 66.057 100.404 66.2523C100.404 66.4475 100.562 66.6058 100.757 66.6058Z" fill="#FFAB01"/>
<path d="M47.9786 69.728C48.1826 70.1098 47.8618 70.6558 47.4298 70.662C47.0599 68.5765 46.661 66.4184 45.4571 64.6778C43.1522 61.3449 38.4021 60.2502 36.4286 56.7099C35.0849 57.6689 33.0302 57.4245 31.9476 56.1767C31.2743 55.4006 30.1007 55.3054 29.0896 55.4785C28.0785 55.6517 27.0907 56.0344 26.0654 56.0019C25.6206 55.9877 25.1359 55.8678 24.877 55.5047C24.6181 55.1417 24.7676 54.5027 25.2082 54.4395C27.1277 54.1639 29.0472 53.8884 30.9667 53.6129C31.1174 53.5913 31.2774 53.5655 31.3918 53.4648C31.5213 53.3508 31.5619 53.1686 31.5955 52.9991C31.8734 51.5967 32.0736 49.9248 31.0438 48.9358C30.1903 48.1161 28.8433 48.1444 27.6838 48.3731C26.5243 48.6017 25.3293 48.978 24.1866 48.676C23.0439 48.3741 22.0882 47.0128 22.7042 46.0016C23.1169 45.3242 22.6516 44.4209 22.0152 43.949C21.3787 43.4772 20.5867 43.2448 19.9698 42.7475C19.3529 42.2502 18.9614 41.2907 19.4528 40.6684C19.6689 40.3948 20.0073 40.2506 20.3392 40.1456C21.4379 39.798 22.663 39.7715 23.7221 40.2263C24.7811 40.681 25.6412 41.6557 25.8135 42.798C25.9539 43.7286 25.6871 44.8113 26.3006 45.5236C27.1027 46.4549 28.5851 45.9326 29.8122 45.9213C31.0672 45.9099 32.3082 46.5772 32.9932 47.6317C33.6782 48.6863 33.7852 50.0944 33.2675 51.2409C34.7253 49.7535 36.6887 48.6125 38.7668 48.6902C40.6864 48.7619 42.4502 49.8692 43.734 51.302C45.0177 52.7349 45.8935 54.48 46.7524 56.2031C47.0723 56.845 47.8839 57.1929 48.5677 56.9813C49.2514 56.7697 49.7263 56.0237 49.63 55.3126C50.2259 55.4428 50.288 56.2507 50.3064 56.8621C50.3448 58.1467 50.8087 59.4148 51.6076 60.4198C51.8748 59.9253 52.0788 59.3966 52.2127 58.8506C52.7957 59.5229 53.0133 60.4958 52.7723 61.3534C52.5312 62.211 51.8391 62.9268 50.9917 63.1947C50.5409 63.3373 49.9896 63.4058 49.7657 63.8234C50.6113 65.3082 51.3385 66.8606 51.9383 68.4611C52.2598 69.3194 52.4919 70.4238 51.8149 71.04C51.0323 70.4606 50.5875 69.5414 50.1722 68.6591C49.5246 67.2829 48.8768 65.9066 48.229 64.5304" fill="white"/>
<path fill-rule="evenodd" clip-rule="evenodd" d="M50.1154 55.9521C49.9453 57.6187 50.5673 59.349 51.7586 60.5233C52.1834 60.2664 52.455 59.773 52.4456 59.2756C52.8921 60.0116 52.642 61.0098 52.0868 61.6674C51.5317 62.3248 50.7353 62.7191 49.9624 63.0953C49.5197 63.311 49.06 63.5308 48.5678 63.5457C47.8171 63.5682 47.1446 63.1155 46.5309 62.6814L44.7301 61.4082C45.6606 63.1491 47.7781 64.1629 49.7132 63.7938C51.0588 65.6867 51.8827 67.9487 52.0706 70.2658L51.7089 69.5957C51.7055 69.5875 51.7013 69.5792 51.6958 69.5712L51.7089 69.5957C51.7609 69.7241 51.5576 69.8662 51.4207 69.7999C51.2751 69.7291 51.2202 69.5534 51.1772 69.3969C50.6474 67.4705 49.6981 65.6614 48.4146 64.1327L50.3579 68.2615C50.7733 69.1437 51.2179 70.0628 52.0006 70.6424C52.6777 70.0262 52.4456 68.9218 52.1239 68.0635C51.5241 66.4631 50.7969 64.9106 49.9515 63.4259C50.133 63.0866 50.5308 62.9778 50.9153 62.8725H50.9155V62.8723H50.9157C51.0044 62.8481 51.0927 62.8238 51.1774 62.7971C52.0247 62.5292 52.7168 61.8132 52.9579 60.9557C53.1989 60.0981 52.9813 59.1252 52.3983 58.4529C52.2644 58.999 52.0604 59.5278 51.7932 60.022C50.9944 59.0172 50.5304 57.7491 50.492 56.4645C50.4736 55.8531 50.4115 55.0452 49.8156 54.915C49.9119 55.6261 49.4371 56.3721 48.7533 56.5837C48.0695 56.7953 47.2579 56.4474 46.938 55.8054C46.0791 54.0824 45.2033 52.3373 43.9196 50.9044C42.6358 49.4715 40.872 48.3643 38.9525 48.2926C36.8743 48.2149 34.9109 49.3559 33.4532 50.8433C33.9709 49.6967 33.8639 48.2887 33.1789 47.2341C32.4938 46.1795 31.2528 45.5122 29.9978 45.5237C29.6795 45.5266 29.3439 45.5639 29.0076 45.6013C28.0474 45.7081 27.0802 45.8157 26.4862 45.126C26.0667 44.6388 26.0588 43.9785 26.0509 43.3121C26.0472 43.004 26.0435 42.6946 25.9992 42.4004C25.8268 41.2581 24.9668 40.2834 23.9077 39.8286C22.8487 39.3739 21.6236 39.4004 20.5249 39.7479C20.1929 39.853 19.8545 39.9972 19.6384 40.2708C19.1471 40.8931 19.5386 41.8526 20.1555 42.3499C20.4801 42.6116 20.8533 42.7999 21.2268 42.9884C21.5629 43.1581 21.8993 43.3279 22.2008 43.5514C22.8373 44.0233 23.3025 44.9266 22.8899 45.6039C22.2739 46.6152 23.2295 47.9765 24.3722 48.2784C25.3168 48.528 26.2972 48.3142 27.2637 48.1034C27.4664 48.0592 27.6684 48.0151 27.8694 47.9755C29.0289 47.7468 30.376 47.7185 31.2295 48.5382C32.2593 49.5271 32.059 51.199 31.7811 52.6015C31.7476 52.7709 31.7069 52.9532 31.5774 53.0671C31.463 53.1679 31.3031 53.1936 31.1523 53.2153L25.3939 54.0419C24.9533 54.1051 24.8037 54.744 25.0626 55.1071C25.3215 55.4702 25.8062 55.5901 26.2511 55.6042C26.9313 55.6258 27.595 55.4646 28.26 55.3031C28.5973 55.2212 28.935 55.1392 29.2752 55.0809C30.2864 54.9078 31.46 55.003 32.1332 55.779C33.2159 57.0269 35.2705 57.2713 36.6143 56.3122C37.6528 58.1752 39.46 59.3611 41.2753 60.552C42.9097 61.6244 44.5506 62.7012 45.6427 64.2802C46.8466 66.0208 47.2456 68.1789 47.6154 70.2644C48.0474 70.2582 48.3682 69.7121 48.1642 69.3302L47.7584 69.8671C47.6084 66.5802 45.9343 63.3946 43.3152 61.4126C42.6667 60.9217 41.9554 60.4913 41.2456 60.062C39.686 59.1186 38.1339 58.1795 37.2704 56.6124C37.1926 56.4712 37.1202 56.3218 37.1075 56.161C37.0917 55.9576 37.1725 55.7615 37.2505 55.5723L37.2616 55.5453C37.5729 54.788 37.7905 53.957 37.6375 53.1524C37.4846 52.3478 36.8806 51.587 36.0728 51.4659C37.4402 52.343 37.7204 54.5196 36.6201 55.7163C35.5198 56.9129 33.3337 56.8089 32.3513 55.5132C31.5639 54.4748 29.9896 54.6019 28.7223 54.8964C27.455 55.1909 25.9627 55.4992 24.9838 54.6401C27.0782 54.0626 29.2333 53.707 31.4018 53.5812C31.9184 53.5512 32.1211 52.905 32.1907 52.3908C32.2976 51.6003 32.4046 50.7971 32.2874 50.0082C32.1702 49.2192 31.7963 48.4321 31.1286 47.9984C30.3269 47.4777 29.2919 47.5584 28.3419 47.6581L25.8172 47.923C25.2732 47.9801 24.7141 48.036 24.1867 47.8908C23.6592 47.7455 23.163 47.3511 23.0618 46.8121C22.998 46.4716 23.0952 46.1364 23.1931 45.7984C23.2637 45.5551 23.3346 45.3103 23.3462 45.0612C23.3792 44.3518 22.9222 43.7018 22.3669 43.2611C22.0267 42.9911 21.6476 42.7786 21.2682 42.566C21.0283 42.4315 20.7883 42.297 20.5579 42.1478C20.1242 41.867 19.6792 41.4133 19.7998 40.9099C19.8769 40.588 20.1674 40.3648 20.4594 40.2105C21.4455 39.6892 22.678 39.6658 23.6831 40.1492C24.6881 40.6326 25.4414 41.6111 25.6534 42.7085C25.7056 42.9793 25.7294 43.262 25.7531 43.5442C25.8079 44.197 25.8625 44.8466 26.2692 45.3371C26.755 45.9229 27.5946 46.0704 28.3535 46.0342C28.6137 46.0217 28.8739 45.9925 29.1338 45.9633C29.6321 45.9073 30.1295 45.8515 30.6249 45.914C32.2906 46.1244 33.6029 47.8624 33.3533 49.5273C33.3395 49.6193 33.3217 49.7122 33.3039 49.8054C33.2403 50.1375 33.1761 50.4728 33.2892 50.7848C33.4341 51.1842 34.0677 51.3969 34.2684 51.0226C35.1679 49.3452 37.2311 48.5002 39.1173 48.7217C41.0035 48.9432 42.6916 50.0822 43.93 51.5261C45.1682 52.97 46.0107 54.7076 46.779 56.4493C47.0497 57.0627 47.8554 57.2849 48.499 57.1025C49.1427 56.9199 49.6536 56.4373 50.1154 55.9521ZM46.7352 58.8755C46.7536 58.8728 46.7959 58.9562 46.86 59.0818C47.0174 59.3908 47.3054 59.956 47.685 60.128C47.668 60.2882 47.4169 60.2023 47.3124 60.0801C47.0156 59.7321 46.7006 59.332 46.7352 58.8755ZM47.6313 61.6209C47.8274 61.9088 46.6537 62.0521 46.2637 61.8008C46.3324 61.7877 46.4229 61.7946 46.5231 61.8026C46.6421 61.8118 46.7746 61.8221 46.9006 61.8008C47.085 61.7699 47.263 61.7131 47.3975 61.6701C47.5279 61.6285 47.6172 61.6 47.6313 61.6209ZM47.3497 60.5508C46.8826 60.6311 46.3085 60.0071 46.3085 59.4202C46.4432 59.8541 46.9216 60.1983 47.1859 60.3885C47.3204 60.4853 47.3994 60.5421 47.3497 60.5508ZM49.0234 63.0045C48.4012 63.0045 48.1192 61.9525 48.4012 61.8849C48.4686 61.8543 48.4718 61.9484 48.4766 62.0875C48.4815 62.2339 48.488 62.4299 48.5729 62.5825C48.6672 62.7522 48.8667 62.8654 48.9832 62.9316C49.0713 62.9815 49.1118 63.0045 49.0234 63.0045ZM49.7166 61.572C49.8532 61.6474 49.9778 61.7644 50.0132 61.9167C50.0485 62.0691 49.9636 62.2537 49.8108 62.2855C49.763 62.2149 49.7889 62.1702 49.8163 62.1229C49.8565 62.0535 49.8998 61.9789 49.7166 61.8097C49.6395 61.7384 49.5497 61.7074 49.4867 61.6856C49.4383 61.669 49.4057 61.6577 49.4069 61.6378C49.4148 61.5111 49.6058 61.5108 49.7166 61.572ZM48.5519 60.2009C48.5212 60.2223 48.5 60.2372 48.5182 60.254C48.5743 60.3066 48.6405 60.3315 48.7067 60.2935C48.757 60.2644 48.7826 60.2055 48.7944 60.1485C48.8609 59.8297 48.5253 59.5005 48.2089 59.5741C48.2369 59.6484 48.2908 59.6722 48.3559 59.701C48.4312 59.7343 48.5218 59.7743 48.6059 59.9063C48.7192 60.0843 48.6153 60.1569 48.5519 60.2009ZM48.4455 63.2059C48.0792 63.0988 47.7169 62.2312 47.9119 62.1656C48.0337 62.1245 48.0329 62.131 48.0259 62.1997C48.0194 62.2627 48.0075 62.3776 48.0792 62.5556C48.1683 62.7768 48.2929 62.9562 48.3723 63.0704C48.4266 63.1488 48.4598 63.1964 48.4455 63.2059ZM132.358 43.5072C131.571 43.604 130.952 44.2402 130.561 44.9315C130.372 45.2657 130.22 45.6195 130.069 45.9732C129.908 46.3509 129.746 46.7286 129.539 47.0823C128.549 48.7702 126.668 49.6929 124.866 50.4469C124.556 50.5769 124.011 50.5157 124.108 50.1924C127.059 49.631 129.598 47.2885 130.403 44.387C130.498 44.0452 130.054 43.7567 129.712 43.8471C129.403 43.9289 129.182 44.1878 128.983 44.4446L128.921 44.5255C127.278 46.669 124.919 48.4812 122.225 48.5983C122.034 48.6065 121.761 48.4899 121.845 48.3179C123.84 48.2509 125.721 47.2634 127.203 45.9216C128.684 44.5798 129.814 42.898 130.871 41.1998C131.034 40.9371 131.427 40.9932 131.719 41.0932C132.616 41.3998 133.476 41.8135 134.276 42.3226C134.705 42.5959 134.365 43.3252 133.877 43.4682C133.596 43.5504 133.303 43.5305 133.009 43.5104C132.791 43.4956 132.573 43.4807 132.358 43.5072ZM131.592 41.8345L131.523 41.8136C131.313 41.7532 131.079 41.7197 130.91 41.8504C130.844 41.901 130.797 41.9709 130.754 42.0422L130.193 42.9917C130.488 43.06 130.77 43.1811 131.023 43.3475C131.23 43.4834 131.514 43.4887 131.726 43.3604C131.937 43.2321 132.065 42.9768 132.041 42.7301C132.032 42.6381 132.182 42.6131 132.245 42.6808C132.292 42.7314 132.306 42.8007 132.32 42.8698C132.324 42.8932 132.329 42.9166 132.335 42.9392C132.359 43.0285 132.432 43.1248 132.522 43.1064C132.614 43.0191 132.664 42.8898 132.655 42.7634C132.688 42.6329 132.891 42.7492 132.922 42.88C132.953 43.0108 133.012 43.1968 133.142 43.1619C133.332 43.1147 133.392 42.8487 133.299 42.6753C133.207 42.502 133.02 42.404 132.842 42.3213C132.436 42.1327 132.018 41.97 131.592 41.8345ZM129.885 43.378C130.178 43.6738 130.605 43.8312 131.019 43.7965C130.765 43.4757 130.333 43.3081 129.93 43.3702L129.885 43.378ZM108.897 72.8426C107.486 73.2425 105.893 72.927 104.74 72.0193C103.696 72.5679 102.617 73.1 101.451 73.2717C100.285 73.4433 99.0014 73.2023 98.1584 72.3764C98.2976 72.679 98.4397 72.993 98.4441 73.3264C98.4483 73.6596 98.2765 74.0195 97.9616 74.1264C97.4421 74.303 96.9883 73.7461 96.7186 73.2671C96.5709 73.6359 96.7232 74.0509 96.8713 74.4545C97.0403 74.9148 97.2037 75.3602 96.9101 75.7049C96.6043 76.0638 96.0241 75.972 95.6032 75.7601C94.0265 74.9672 93.2859 72.971 93.6273 71.2357C93.969 69.5003 95.2132 68.0471 96.6948 67.0874C95.689 66.3481 94.9531 65.2472 94.6533 64.0332C94.8582 64.2983 95.0101 64.6062 95.162 64.9143C95.314 65.2224 95.4661 65.5303 95.671 65.7956C95.8654 66.0472 96.1127 66.2559 96.3601 66.4645L96.3602 66.4647C96.6075 66.6733 96.8549 66.8819 97.0493 67.1336C97.0989 67.1978 97.1418 67.3058 97.0714 67.3459C95.6508 68.155 94.4359 69.4442 94.0329 71.0315C93.6298 72.6191 94.1906 74.4929 95.5817 75.3517C95.8268 75.5032 96.1192 75.6248 96.3975 75.551C96.6759 75.4772 96.8847 75.1268 96.7248 74.8867C96.2738 74.2092 96.2189 73.2859 96.5866 72.5594L97.7522 73.87C98.0202 73.801 98.0864 73.4395 98.0151 73.1714C97.9925 73.0864 97.9616 73.0025 97.9306 72.9188V72.9187C97.8641 72.7383 97.7977 72.5585 97.8155 72.3699C97.8417 72.0937 98.2013 71.8464 98.3912 72.0484C99.1491 72.8539 100.367 73.0825 101.457 72.9052C102.548 72.7279 103.546 72.203 104.523 71.6858L105.676 71.0754C105.592 71.4088 105.323 71.6888 104.994 71.7838C106.106 72.5854 107.594 72.8373 108.908 72.4465C109.134 72.3791 109.366 72.286 109.513 72.1006C109.66 71.9151 109.684 71.6136 109.506 71.4573C109.485 71.4382 109.461 71.4216 109.436 71.4047C109.389 71.372 109.342 71.3393 109.315 71.2894C109.274 71.2142 109.337 71.0875 109.416 71.122C109.859 71.091 110.133 71.6889 109.952 72.0965C109.771 72.5042 109.325 72.7212 108.897 72.8426ZM101.022 66.926C100.768 66.8443 100.484 67.0194 100.374 67.2626C100.263 67.5056 100.295 67.7912 100.378 68.0448C100.404 67.7588 100.441 67.5431 100.549 67.3551C100.595 67.2741 100.739 67.1976 100.866 67.1304C101.03 67.0435 101.164 66.972 101.022 66.926ZM100.807 66.2074C101.176 66.115 101.594 66.2576 101.83 66.5572C102.067 66.8568 102.11 67.2971 101.935 67.6369C101.893 67.5861 101.883 67.4941 101.871 67.3787C101.834 67.0378 101.776 66.4932 100.807 66.2074ZM100.486 68.8407C100.369 68.9873 100.776 69.3743 101.414 69.1074C101.532 69.0579 101.435 69.0522 101.284 69.0434C101.145 69.0352 100.96 69.0244 100.85 68.9751C100.757 68.9335 100.71 68.8668 100.674 68.8167C100.621 68.7427 100.594 68.7055 100.486 68.8407ZM101.777 69.3306C102.185 69.1265 101.929 69.7248 101.075 69.6514C100.998 69.6449 100.897 69.615 100.898 69.5371C100.898 69.5098 100.971 69.5035 101.083 69.4937C101.257 69.4785 101.529 69.4548 101.777 69.3306ZM99.2576 68.1954C99.4113 68.3458 99.635 68.3498 99.7843 68.3208C99.8752 68.3033 99.9199 68.2217 99.8364 68.1954C99.817 68.1892 99.7847 68.184 99.7459 68.1778C99.6571 68.1639 99.5345 68.1444 99.4522 68.0947C99.3995 68.0628 99.3695 67.9538 99.3435 67.8604C99.3171 67.7643 99.295 67.6846 99.2576 67.722C99.1838 67.7958 99.1039 68.0448 99.2576 68.1954ZM99.394 68.7045C99.4683 68.8179 99.1851 68.779 99.1242 68.7045C99.0631 68.63 99.0031 68.3498 99.1053 68.3498C99.1348 68.3498 99.145 68.3939 99.157 68.4468C99.1683 68.4957 99.1812 68.5519 99.2126 68.5877C99.2738 68.6572 99.3148 68.6675 99.3448 68.6751C99.3652 68.6802 99.3806 68.6841 99.394 68.7045ZM112.138 68.1409C112.291 68.4468 112.024 68.7899 111.766 69.0143C110.718 69.9264 109.466 70.601 108.13 70.9737C109.57 70.9836 111.004 70.3653 111.988 69.3102C112.446 68.8193 112.739 67.8977 112.148 67.5804C112.849 67.3474 113.679 66.8609 113.572 66.1281C113.534 65.8662 113.374 65.6407 113.219 65.4266L113.127 65.2999C112.17 63.9884 111 62.6018 109.396 62.5039C110.319 61.9845 111.419 62.7223 112.233 63.4015L112.472 63.5997C113.55 64.4882 114.678 65.3337 115.956 65.8892C117.329 66.4859 118.908 66.7243 120.332 66.264L124.318 64.9759C125.087 64.7207 125.993 64.2411 125.924 63.4397C125.885 62.9982 125.483 62.6186 125.042 62.6062C124.6 62.594 124.178 62.9506 124.115 63.3892L124.028 62.7072C123.814 62.5241 123.474 62.681 123.302 62.9042C123.237 62.9886 123.182 63.0819 123.128 63.1749C123.039 63.3278 122.951 63.48 122.816 63.591C122.345 63.9769 121.72 63.6596 121.159 63.3262L120.809 63.1165C119.811 62.5289 118.629 62.4388 117.461 62.3499C117.209 62.3307 116.958 62.3115 116.709 62.2875C115.081 62.1298 113.477 61.7322 111.964 61.1114C113.352 62.2526 115.165 62.4443 116.994 62.6375C117.916 62.7348 118.842 62.8327 119.719 63.0527C120.415 63.2271 121.184 63.5828 121.355 64.2815C121.603 65.2962 120.401 66.0819 119.364 66.1769C117.667 66.3321 116.014 65.6085 114.574 64.6851L114.412 64.5798C113.891 64.2367 113.385 63.8676 112.88 63.4986L112.88 63.4984L112.88 63.4983C111.953 62.8212 111.028 62.1447 110.005 61.6304C111.061 61.6839 111.833 60.9167 112.621 60.1333C113.046 59.7107 113.476 59.2832 113.958 58.9772C115.374 58.0777 117.183 58.2825 118.85 58.5714L119.112 58.6176C118.72 56.7132 117.762 54.9296 116.392 53.5531L118.746 58.1929C116.268 57.3651 113.296 58.3996 111.863 60.589C112.969 56.8448 115.601 53.5788 119.02 51.7083C120.121 52.1215 121.051 52.8589 121.98 53.595L121.98 53.5951L121.98 53.5951C122.28 53.8327 122.58 54.0702 122.885 54.2965C124.135 55.2243 125.656 56.0104 127.187 55.7343C128.288 55.5357 129.215 54.8177 130.037 54.0499L130.17 53.925C131.15 52.9933 132.061 51.9887 132.892 50.9221C133.803 49.7549 134.921 48.3691 136.389 48.5431C136.648 48.5738 136.9 48.6549 137.151 48.7356C137.497 48.8473 137.842 48.9583 138.202 48.9351C138.823 48.8951 139.393 48.0601 138.906 47.6726L136.407 45.6837C136.163 45.4893 135.881 45.2837 135.572 45.3239C135.352 45.3526 135.17 45.5012 135 45.6439L134.439 46.1164C133.131 47.2214 131.838 48.3494 130.703 49.6307C130.63 49.7137 130.556 49.7979 130.481 49.8828C129.561 50.9312 128.562 52.0691 127.196 52.1511C125.863 52.2311 124.742 51.2658 123.718 50.3836C123.666 50.3393 123.615 50.2952 123.564 50.2514L123.373 50.0892C122.287 49.1752 121.126 48.3511 119.905 47.6282C118.826 46.9892 117.63 46.4136 116.38 46.5008C114.917 46.6029 113.684 47.5836 112.627 48.6141L112.467 48.7714C111.949 49.2821 111.329 49.834 110.616 49.7249L110.559 49.7173C109.841 49.6353 109.167 50.0822 108.626 50.5824L108.542 50.6617C107.126 52.0158 106.084 53.7577 105.558 55.647C102.471 54.818 99.0857 55.1599 96.2251 56.5896C95.5044 56.9499 94.8017 57.3892 94.2998 58.0209C93.5834 58.9229 93.3734 60.0666 93.1615 61.2206L93.1613 61.2208C93.0067 62.0626 92.8511 62.9099 92.4971 63.6726C92.3923 63.8984 92.2694 64.1187 92.1468 64.339C91.8592 64.8548 91.5721 65.3698 91.5193 65.9509C91.4439 66.78 92.216 67.7423 92.9815 67.4201C93.7484 67.2989 94.1541 66.2148 93.6563 65.6176C93.9665 65.8405 94.399 65.8787 94.7436 65.7138L93.9434 64.2325C95.2932 63.5117 96.491 62.5066 97.4365 61.3014C97.8231 60.8086 98.5417 60.684 99.1485 60.8353C99.6688 60.965 100.127 61.2593 100.567 61.5724L100.785 61.7297C100.531 61.9151 100.677 62.4087 100.992 62.4243C100.789 61.5963 101.614 60.7267 102.461 60.8072C103.307 60.8879 103.948 61.7907 103.838 62.6361C103.391 63.7465 102.285 64.3801 101.191 65.0067C100.004 65.6866 98.832 66.3583 98.5313 67.622C98.2283 68.8952 99.2073 70.321 100.501 70.4913C101.795 70.6615 103.108 69.5371 103.143 68.2286C103.143 68.2286 103.334 68.2484 103.402 68.0448C103.509 67.7238 103.61 67.3684 103.71 67.0161C103.899 66.3535 104.084 65.7025 104.298 65.3135C104.898 64.2227 106.015 63.3592 107.257 63.3291C107.651 63.3195 108.043 63.2608 108.434 63.2022C108.934 63.1273 109.434 63.0527 109.937 63.0804C110.834 63.13 111.818 63.6568 111.947 64.5485C110.952 64.3547 109.914 64.3875 108.933 64.6434L112.405 65.0576C113.168 65.1486 113.311 66.3325 112.767 66.8766C112.255 67.3895 111.474 67.4739 110.743 67.5064L110.611 67.5119C110.739 67.7731 111.056 67.8002 111.374 67.8273C111.691 67.8542 112.009 67.8813 112.138 68.1409ZM130.609 52.9242C129.533 54.1227 128.274 55.4109 126.667 55.471C125.261 55.5236 124.032 54.6152 122.894 53.775L122.81 53.713L122.539 53.514C121.268 52.5898 119.952 51.7283 118.597 50.9337C117.548 50.3185 116.341 49.7241 115.164 50.0293L117.028 50.6173C116.713 50.7862 116.601 51.246 116.803 51.5412C116.846 51.0993 117.355 50.8183 117.793 50.8874C118.23 50.9565 118.586 51.2785 118.857 51.6297C116.508 52.5328 114.51 54.3208 113.348 56.5583C113.132 56.9745 112.945 57.4049 112.757 57.8353C112.502 58.4184 112.248 59.0013 111.924 59.5477C111.361 60.4975 110.527 61.3616 109.454 61.6133C109.304 61.6485 109.149 61.6716 108.996 61.6948C108.687 61.741 108.38 61.7872 108.105 61.9305C108.081 61.9431 108.057 61.9562 108.031 61.9697L108.01 61.9812C107.688 62.1537 107.291 62.3664 107.092 62.0859C106.767 61.6265 106.248 61.3094 105.692 61.23C106.612 58.1313 108.978 55.4981 111.956 54.2593C112.124 54.1892 112.06 53.9363 111.968 53.7783L110.613 51.454C110.488 51.2394 110.635 50.9474 110.855 50.8335C111.075 50.7196 111.338 50.7368 111.584 50.7675C113.151 50.9631 114.66 51.6079 115.885 52.6058C116.081 52.7654 116.403 52.9221 116.546 52.7136C115.148 51.2993 113.147 50.6436 111.179 50.3793C112.88 50.2125 114.64 50.7499 115.96 51.8395L116.024 51.8922C116.34 52.149 116.722 52.4219 117.085 52.2645C115.611 50.8463 113.595 50.0094 111.553 49.9675C111.973 49.6541 112.365 49.3057 112.758 48.9573L112.758 48.9571L112.758 48.957C113.157 48.6031 113.555 48.2492 113.983 47.9319C114.832 47.3024 115.847 46.8108 116.901 46.8726C117.666 46.9174 118.384 47.2485 119.061 47.6091C120.493 48.3712 121.84 49.2911 123.072 50.3468C123.157 50.4197 123.243 50.4937 123.329 50.5682L123.336 50.5738C124.506 51.5856 125.784 52.6895 127.297 52.5469C128.22 52.46 129.038 51.9009 129.687 51.2378C130.046 50.8709 130.367 50.4691 130.687 50.0671L130.688 50.0669C130.946 49.7424 131.205 49.4179 131.484 49.1115C131.888 48.6696 132.354 48.254 132.928 48.0853C133.501 47.9166 134.199 48.0563 134.539 48.5484L130.609 52.9242ZM93.5218 61.133C93.7293 59.994 93.9346 58.8679 94.7022 58.0388C95.0779 57.6327 95.5587 57.3403 96.0482 57.0836C98.5526 55.77 101.473 55.27 104.27 55.6759C104.955 55.7753 105.803 56.1604 105.792 56.8121C105.787 56.8519 105.784 56.8918 105.78 56.9317C105.787 56.8909 105.791 56.851 105.792 56.8121C106.07 54.0872 107.653 51.5235 109.965 50.0636C110.17 51.4976 110.797 52.8684 111.746 53.9603C109.23 55.023 107.141 57.0664 106.019 59.5623L106.001 59.6015C105.682 60.3013 105.177 61.1604 104.439 60.9863L104.804 58.7219C104.838 58.5141 104.869 58.2894 104.771 58.1034C104.661 57.896 104.427 57.8002 104.198 57.7312L104.118 57.7079C102.795 57.3324 101.311 56.9717 100.103 57.6298C99.4634 57.9779 99.0045 58.5615 98.5756 59.1606L98.257 59.6093C97.5009 60.6679 96.6544 61.6616 95.7297 62.5759C95.3572 62.9442 94.9547 63.3101 94.456 63.4687C93.9575 63.6271 93.3379 63.5205 93.042 63.0881C93.2781 62.4699 93.4004 61.7994 93.5218 61.133ZM101.675 69.9567C100.89 70.2488 100.251 70.1048 99.6375 69.7468C99.3751 69.5935 99.1281 69.3964 98.9802 69.1304C98.7587 68.7316 98.7919 68.2364 98.9197 67.7981C99.1108 67.143 99.5016 66.5478 100.027 66.1134C100.389 65.8129 100.807 65.5922 101.225 65.3717H101.225C101.37 65.2957 101.514 65.2196 101.655 65.1403C103.041 64.3652 104.236 63.2507 105.108 61.9212C105.282 61.6557 105.648 61.5697 105.955 61.6481C106.262 61.7265 106.518 61.9373 106.739 62.1645C106.897 62.3269 107.015 62.6502 106.804 62.7324C105.324 63.3068 104.133 64.5813 103.657 66.0989C103.644 66.1403 103.631 66.1822 103.619 66.224C103.546 66.4641 103.473 66.7071 103.318 66.9012C103.135 67.1293 102.769 67.9327 102.956 68.3136C102.956 68.3136 102.461 69.6645 101.675 69.9567ZM103.728 57.9347C103.968 57.9885 104.229 58.066 104.36 58.2742C104.468 58.4444 104.461 58.661 104.444 58.862C104.377 59.6569 104.211 60.4435 103.949 61.197C103.905 61.3244 103.769 61.4775 103.669 61.3867C103.556 60.8164 103.037 60.3526 102.459 60.3066C101.881 60.2606 101.294 60.6362 101.093 61.1816C101.054 61.2894 100.914 61.3294 100.804 61.2997C100.721 61.2774 100.65 61.2271 100.582 61.1728L100.515 61.1181C99.8265 60.5571 98.8944 60.308 98.0186 60.451C98.4852 59.6637 99.0771 58.9512 99.7649 58.3487C100.046 58.1021 100.352 57.8696 100.707 57.7541C101.042 57.6452 101.401 57.6463 101.753 57.6642C102.417 57.6981 103.079 57.7886 103.728 57.9347ZM135.129 47.9145C134.794 47.5566 134.336 47.3172 133.851 47.2491L134.401 46.5486C134.575 46.329 134.779 46.1037 135.054 46.0691C135.252 46.0441 135.448 46.1257 135.628 46.212C136.232 46.5006 136.802 46.8622 137.32 47.2864C137.493 47.4279 137.667 47.5859 137.742 47.7968C137.817 48.0077 137.757 48.2836 137.555 48.3801C137.354 48.4765 137.064 48.2653 137.146 48.0573L137.154 48.0339C137.188 47.9156 137.135 47.7759 137.028 47.7137L136.833 48.088C136.815 48.1207 136.794 48.1524 136.762 48.1702C136.632 48.2422 136.527 48.0397 136.518 47.891L136.517 47.8704C136.503 47.724 136.426 47.5373 136.292 47.5829C136.274 47.8337 136.095 48.0653 135.858 48.1457C135.62 48.226 135.338 48.1503 135.172 47.9618L135.129 47.9145ZM93.1976 66.3932L92.9626 65.499C92.8509 65.4677 92.7418 65.5799 92.726 65.6952C92.7154 65.772 92.7325 65.848 92.7554 65.923L92.7916 66.0347C92.9123 66.4142 92.9093 66.8322 92.7831 67.21C92.5502 66.7317 92.4286 66.1992 92.4307 65.6669C92.2788 65.5834 92.1754 65.8386 92.1863 66.012L92.252 67.0471C91.9335 66.7591 91.8211 66.2921 91.8756 65.8655C91.9299 65.439 92.1297 65.0451 92.3543 64.6788C92.4715 64.4875 92.6014 64.2958 92.7877 64.1716C92.9742 64.0474 93.231 64.0047 93.4214 64.1228C93.5797 64.2208 93.6531 64.3949 93.7276 64.5714C93.7839 64.7048 93.8407 64.8396 93.9353 64.944C93.9688 64.981 94.008 65.0187 94.0477 65.0573C94.2016 65.2061 94.366 65.3652 94.2584 65.5255C93.927 65.3215 93.6238 65.0713 93.3604 64.7844C93.2651 65.3769 93.3524 65.9978 93.6074 66.5408C93.6596 66.6519 93.4872 66.7577 93.3787 66.7009C93.2702 66.6439 93.2289 66.5119 93.1976 66.3932ZM125.029 63.4678C125.199 63.3172 125.354 63.1794 125.429 63.2169C125.648 63.3262 125.053 63.8072 124.739 63.9431C124.762 64.0955 124.982 64.0272 125.111 63.9431C125.24 63.8589 125.6 63.7685 125.53 63.86C125.09 64.4305 124.241 64.8839 123.456 64.9725C123.137 65.0084 122.744 64.9233 122.643 64.6186C122.55 64.3408 122.756 64.0665 122.974 63.86L123.026 63.8118C123.118 63.7297 123.265 63.6496 123.349 63.7391C123.573 63.9771 123.965 63.7825 124.224 63.582C124.224 63.582 124.895 62.9323 125.008 62.9739C125.12 63.0153 124.673 63.7478 124.673 63.7478C124.784 63.6855 124.91 63.5735 125.029 63.4678ZM121.814 64.0709C121.895 64.0525 121.979 64.0851 122.048 64.1297C122.3 64.2921 122.421 64.6345 122.326 64.92C122.231 65.2052 121.93 65.4068 121.631 65.385C121.588 65.3818 121.544 65.3739 121.511 65.3472C121.441 65.2911 121.45 65.184 121.465 65.0955L121.578 64.4492C121.605 64.2933 121.66 64.1059 121.814 64.0709ZM107.59 62.6035C108.023 62.5303 108.471 62.5481 108.896 62.6557C108.872 62.8318 108.667 62.9116 108.493 62.9477C107.958 63.0587 107.405 63.0826 106.862 63.0183C106.998 62.7619 107.305 62.6518 107.59 62.6035ZM134.713 48.274L133.578 47.6016C134.137 47.5178 134.734 47.8125 135.008 48.3083C134.93 48.3803 134.805 48.3284 134.713 48.274ZM109.833 61.7592C109.352 61.887 108.876 62.0357 108.407 62.2045C108.894 62.4743 109.585 62.2586 109.833 61.7592ZM105.128 61.1489C105.261 61.1763 105.201 61.3853 105.095 61.4701C104.773 61.7277 104.284 61.7499 103.941 61.5225L105.128 61.1489ZM135.343 45.552C135.421 45.5335 135.501 45.5652 135.574 45.5982C136.048 45.8129 136.482 46.1158 136.848 46.4868L135.217 45.6514C135.242 45.6021 135.289 45.5648 135.343 45.552ZM110.484 50.0657L110.5 50.077C110.648 50.0557 110.8 50.0682 110.941 50.1132C110.818 50.3478 110.646 50.5566 110.439 50.7224C110.335 50.5167 110.354 50.255 110.484 50.0657ZM138.405 47.7699L138.408 47.7803C138.588 47.8537 138.711 48.0498 138.699 48.2446C138.327 48.0514 138.027 47.7248 137.865 47.338C138.087 47.415 138.28 47.5702 138.405 47.7699ZM104.622 62.0512L104.595 62.0882C104.501 62.2163 104.389 62.3556 104.231 62.374C104.073 62.3922 103.912 62.1878 104.023 62.0742C104.21 61.9902 104.429 61.9819 104.622 62.0512ZM93.4553 63.6389C93.5959 63.6719 93.7547 63.7747 93.7327 63.9178C93.4105 63.8757 93.0925 63.801 92.7853 63.6952C92.9954 63.6071 93.2333 63.5871 93.4553 63.6389ZM123.38 63.6115C123.307 63.6432 123.24 63.5094 123.31 63.4703C123.31 63.4703 123.79 62.6251 123.811 63.2169C123.822 63.3641 123.511 63.5443 123.38 63.6115ZM103.078 67.9501C103.114 67.6935 103.181 67.21 103.318 67.21C103.511 67.1895 103.437 67.5201 103.384 67.7531C103.37 67.8174 103.357 67.8742 103.352 67.9142C103.334 68.054 103.204 68.164 103.055 68.0966C103.061 68.0761 103.068 68.0221 103.078 67.9503V67.9501ZM58.043 76.817C59.0286 76.9024 60.018 76.9431 61.0073 76.9392C60.937 77.872 61.6934 78.7906 62.6202 78.8979C63.5468 79.0049 64.4919 78.2833 64.6352 77.3588C64.6927 76.9875 65.1937 76.923 65.5673 76.9522L67.9448 77.1378C68.3522 77.1695 68.9289 77.0408 68.885 76.6333L68.6157 74.1365C68.5913 73.9112 68.6697 73.583 68.8912 73.6276C69.8349 73.8174 70.8658 73.0921 70.995 72.1356C71.1243 71.1793 70.3089 70.1991 69.3468 70.1688C68.8846 70.1543 68.6648 69.5481 68.7848 69.1002C68.8492 68.8591 68.9718 68.6411 69.0944 68.4229C69.2 68.2352 69.3057 68.0472 69.3747 67.8443C69.524 67.4052 69.3987 66.7936 68.9483 66.6876C65.5288 65.8837 61.9394 65.8156 58.4918 66.4889L58.4288 66.5015C58.2391 66.5397 58.049 66.5869 57.8851 66.6887C57.3467 67.023 57.3052 67.76 57.3315 68.41L57.3492 68.7715C57.4436 70.8682 57.2791 72.9763 56.8602 75.0326L56.8508 75.0792C56.7571 75.548 56.6809 76.0834 56.9929 76.4388C57.2242 76.7019 57.5943 76.7729 57.9474 76.8081L58.043 76.817ZM64.1079 77.3199C64.1355 77.4547 64.101 77.5954 64.0469 77.7221L64.0296 77.7607C63.7114 78.4342 62.7643 78.723 62.1298 78.3291C61.483 77.9277 61.3246 76.9191 61.8167 76.3376C60.5661 76.4878 59.2989 76.4975 58.0462 76.3669C57.6585 76.3264 57.1517 76.1165 57.2309 75.7338C57.7762 73.102 57.9465 70.3923 57.7351 67.7128C57.6968 67.2272 58.2929 66.9752 58.7708 66.8873C61.8534 66.3196 65.0432 66.3431 68.1174 66.9561C68.5105 67.0345 69.0168 67.3341 68.8425 67.6963C68.4322 68.5488 68.2682 69.5189 68.3754 70.4594C68.4027 70.6992 68.5899 71.0131 68.7987 70.893C69.3609 70.5691 70.1748 70.8287 70.447 71.4189C70.7193 72.0089 70.3899 72.799 69.7797 73.0192C69.1696 73.2393 68.4138 72.8406 68.2488 72.2119C68.1013 73.5071 68.1539 74.8247 68.4039 76.104C68.4906 76.5473 67.8468 76.7147 67.3976 76.681L63.8109 76.4131C63.701 76.5867 63.8136 76.7662 63.9322 76.955C64.0061 77.0727 64.0822 77.1941 64.1079 77.3199ZM82.6672 69.1913L89.6924 69.333L89.8071 69.3359C90.0181 69.3424 90.2306 69.361 90.4206 69.45C90.85 69.6509 91.0469 70.1464 91.1775 70.6033C91.8745 73.0418 91.7886 75.6991 90.9352 78.0872L90.8992 78.1849C90.7882 78.4788 90.643 78.7717 90.3808 78.937C90.1648 79.073 89.9017 79.1015 89.6456 79.1152L89.5909 79.118C88.5462 79.1677 87.498 79.1408 86.4573 79.0378C86.9992 78.7032 87.1361 77.8886 86.792 77.3517C86.4477 76.8148 85.7207 76.5906 85.1084 76.7649C84.7351 76.8713 84.3875 77.127 84.2525 77.4917C84.1173 77.8564 84.2479 78.3248 84.5929 78.503C84.8315 78.6262 84.7904 79.0141 84.5814 79.1831C84.3727 79.3519 84.0822 79.364 83.814 79.3682L80.2893 79.4256C80.0244 79.43 79.7458 79.431 79.5132 79.3038C79.1834 79.1233 79.0318 78.7345 78.9388 78.3694C78.7146 77.4885 78.6844 76.5584 78.8506 75.6648C79.0511 76.3707 79.9184 76.7993 80.5987 76.5285C81.2787 76.2579 81.6172 75.3496 81.2805 74.698C80.9438 74.0464 80.0087 73.7998 79.3959 74.2011L79.3705 73.9734C79.2826 73.1751 79.2143 72.3664 79.3671 71.5803C79.5346 70.7192 80.0121 69.8735 80.7951 69.4822C81.3661 69.197 82.0255 69.1812 82.6672 69.1913ZM90.3359 69.9283C90.16 69.8222 89.9479 69.8039 89.7416 69.7953L89.6901 69.7931C87.5047 69.7114 85.318 69.6698 83.1311 69.6689L82.4023 69.67C81.941 69.6718 81.4649 69.6783 81.043 69.8646C80.4132 70.1428 80.005 70.7879 79.8386 71.4573C79.672 72.1269 79.7119 72.8286 79.753 73.5173C80.8604 73.2115 82.0515 74.3398 81.9202 75.4843C81.7887 76.6285 80.5237 77.4549 79.3964 77.2342C79.3452 77.5956 79.2949 77.9709 79.4008 78.3204C79.5067 78.6698 79.8159 78.9856 80.1797 78.9739L83.4477 78.8685C83.6501 78.8619 83.9296 78.757 83.8708 78.5627C83.537 77.4597 84.5003 76.1719 85.6498 76.185C86.7991 76.1981 87.7333 77.5071 87.3747 78.6023C88.0929 78.7646 88.8397 78.7986 89.5697 78.7027C89.8067 78.6713 90.0541 78.6211 90.2357 78.465C90.4143 78.3118 90.502 78.0798 90.5765 77.8563C91.3347 75.5773 91.4178 73.077 90.8124 70.7526C90.734 70.4522 90.6255 70.1288 90.3746 69.9535L90.3359 69.9283ZM59.33 91.6299C58.9822 89.3595 58.9827 87.036 59.3314 84.7657L59.349 84.6558C59.4357 84.1407 59.5876 83.5967 60.017 83.3129C60.3383 83.1005 60.7442 83.0846 61.1313 83.0844L64.095 83.0926C64.2299 83.0929 64.3777 83.098 64.4792 83.1872C64.5807 83.2764 64.5779 83.4812 64.4478 83.5173C64.1374 83.6036 63.959 83.9625 63.9966 84.2833C64.0343 84.6042 64.2424 84.882 64.4866 85.0926C65.0691 85.5946 65.9747 85.7732 66.6195 85.3545C67.2643 84.9358 67.4161 83.857 66.805 83.3902C68.1894 83.3619 69.5744 83.3663 70.9586 83.4031L71.4776 83.4185C71.6454 83.424 71.8309 83.4375 71.948 83.558C72.0361 83.6484 72.065 83.7799 72.0848 83.9046C72.2381 84.8655 72.0705 85.8751 71.6151 86.7344C71.5425 86.8714 71.3745 87.0222 71.26 86.9179C70.7737 86.4752 69.9558 86.5355 69.4581 86.9656C68.9605 87.3954 68.768 88.1096 68.856 88.7624C68.9407 89.3906 69.3973 90.0617 70.0288 90.03C70.2067 90.0212 70.3918 89.9596 70.5732 89.8992L70.5734 89.8991C70.8991 89.7908 71.2136 89.6862 71.4548 89.8966L70.8218 92.7333C70.7093 93.2373 70.5074 93.835 70.0038 93.9432C67.0967 94.5668 64.0486 94.5195 61.162 93.8064L61.0219 93.7708C60.6716 93.679 60.3228 93.5599 60.0494 93.3254C59.5737 92.917 59.4251 92.2505 59.33 91.6299ZM70.8937 90.4038C70.0713 90.7917 68.9999 90.4588 68.4851 89.7076C67.9705 88.9566 68.0208 87.8831 68.549 87.1413C69.0772 86.3996 70.0263 86.0054 70.9318 86.0829L71.0075 86.0896C71.1344 86.1004 71.2646 86.105 71.3724 86.0415C71.5086 85.9609 71.5669 85.7955 71.6048 85.6413C71.756 85.0269 71.7476 84.3738 71.5808 83.7632L67.7493 83.7914C67.8191 84.8579 66.9435 85.8988 65.8835 86.0096C64.8233 86.1204 63.7527 85.2828 63.6018 84.2248L63.5807 84.0674C63.5579 83.9087 63.5224 83.7519 63.4042 83.6512C63.3213 83.5804 63.2122 83.5525 63.1046 83.5311L63.0641 83.5233C61.9494 83.3118 60.5361 83.2242 59.9511 84.1989C59.7519 84.5309 59.6984 84.928 59.6579 85.3133C59.4251 87.5253 59.4803 89.7674 59.8221 91.9649L59.8387 92.0679C59.8943 92.3949 59.9813 92.7308 60.224 92.9502C60.3909 93.101 60.6099 93.1757 60.8273 93.2373L60.8815 93.2525C63.6615 94.0191 66.6211 94.1215 69.4472 93.5501L69.6041 93.5178C69.7431 93.4884 69.8875 93.4546 69.9967 93.3634C70.1389 93.2449 70.1936 93.0536 70.2411 92.8743L70.8937 90.4038ZM91.5701 96.0246C91.5701 96.0246 91.586 95.5825 91.6418 95.4373C91.7422 95.1748 92.0385 94.802 92.0385 94.802C92.0178 94.9028 91.9891 95.011 91.9594 95.1224C91.8574 95.5045 91.7448 95.9266 91.916 96.2387C92.0478 96.4796 93.9781 97.7482 94.6416 98.0455C97.4788 99.317 100.33 100.468 103.195 101.624V101.624H103.195L103.195 101.624L103.197 101.625C104.368 102.097 105.541 102.57 106.716 103.053C104.697 102.806 102.837 101.863 101.025 100.935C100.634 103.111 101.843 105.305 103.475 106.792C104.662 107.875 106.06 108.678 107.458 109.481V109.481C107.98 109.78 108.502 110.08 109.013 110.394L109.2 110.511C111.013 111.649 112.746 113.085 113.546 115.066C113.693 115.429 114.143 115.636 114.513 115.51C114.884 115.384 115.116 114.945 115.011 114.567C115.399 114.885 115.175 115.598 114.706 115.774C114.236 115.95 113.698 115.711 113.352 115.348C113.091 115.074 112.909 114.74 112.727 114.406V114.406L112.727 114.406L112.726 114.406L112.726 114.405C112.667 114.296 112.607 114.187 112.545 114.081C111.427 112.157 109.451 110.963 107.49 109.87L106.57 109.359C104.442 108.167 102.262 106.736 101.351 104.481C98.0428 105.007 94.5991 104.65 91.4683 103.456C90.7986 103.201 90.1429 102.908 89.4875 102.616C88.4434 102.149 87.4001 101.683 86.3025 101.37C85.691 101.195 84.8481 101.176 84.6192 101.771C84.619 101.771 84.6189 101.771 84.6181 101.773C84.6116 101.784 84.568 101.861 84.373 101.878C84.2815 101.885 84.1975 101.725 84.1713 101.618C84.1491 101.588 84.1415 101.504 84.1415 101.331C84.1415 101.238 84.3309 100.83 84.6873 100.578C84.9353 100.403 85.2142 100.339 85.3604 100.306C85.4264 100.291 85.4652 100.282 85.462 100.272C85.4546 100.249 85.201 100.183 84.9707 100.295C84.7928 100.381 84.6245 100.495 84.4697 100.6C84.2305 100.763 84.0235 100.903 83.8645 100.885C83.649 100.86 83.4962 100.759 83.4937 100.541C83.4914 100.324 83.549 100.06 83.7162 99.9229C84.0738 99.6311 84.5352 99.4702 84.9961 99.4768C85.0958 99.4782 85.2061 99.4924 85.2711 99.5681C85.336 99.6438 85.3041 99.7948 85.2045 99.7994C84.607 99.8263 83.9162 99.9266 83.6836 100.541C83.6158 100.72 84.0434 100.749 84.2088 100.654C84.3047 100.598 84.3872 100.524 84.4697 100.449C84.5294 100.395 84.5892 100.341 84.6541 100.295C84.8484 100.154 85.0897 100.081 85.3289 100.09C85.4253 100.093 85.5315 100.115 85.5883 100.193C85.6452 100.272 85.6051 100.414 85.5088 100.415C84.8892 100.425 84.3238 100.964 84.2813 101.584C84.2836 101.606 84.3009 101.708 84.373 101.733C84.4572 101.761 84.5504 101.692 84.5541 101.685C84.8767 101.108 85.4655 100.722 86.0985 100.915C86.3378 100.988 86.5681 101.1 86.7975 101.21C87.1984 101.404 87.5963 101.596 88.0336 101.58L87.7712 100.184C86.7073 99.2062 85.1038 98.8615 83.7335 99.3161C83.5869 99.3648 83.4284 99.4352 83.3686 99.578C83.3088 99.721 83.4401 99.9284 83.5843 99.873C83.3575 100.083 82.974 99.7263 83.0603 99.4286C83.1466 99.1312 83.472 98.9781 83.7711 98.9002C85.4495 98.4628 87.1224 99.2253 88.7388 99.962C89.0387 100.099 89.337 100.235 89.6327 100.362C92.9243 101.777 96.6433 102.172 100.158 101.482C100.005 101.9 99.4856 102.027 99.0441 102.077C95.914 102.43 92.6986 101.998 89.7714 100.831C89.4139 101.286 89.5842 101.994 89.9911 102.406C90.398 102.817 90.9735 103.004 91.5274 103.17C94.6311 104.101 97.9216 104.812 101.093 104.151L100.579 101.135L100.569 101.08C100.543 100.96 100.497 100.835 100.384 100.797L100.356 100.787C96.2911 99.403 93.1931 98.3478 89.1706 94.5026C89.1624 94.4948 89.1545 94.4868 89.1469 94.4788C89.1173 95.6344 88.7516 95.8887 87.2277 95.5737C83.9024 94.8864 80.4977 94.5264 77.1414 94.9995C77.3953 93.7414 77.7131 92.4967 78.0934 91.2712C77.0014 91.6246 75.712 90.6209 75.7828 89.4724C75.8534 88.3237 77.2557 87.4865 78.2963 87.9718C78.6537 87.1448 78.6764 86.1779 78.3581 85.3349C78.2055 84.9305 78.8139 84.6971 79.2452 84.6971L81.6278 84.6965C81.961 84.6964 82.4252 84.5414 82.3425 84.2177C82.1464 83.4506 82.6725 82.5741 83.4403 82.3886C84.1941 82.2067 85.0429 82.7243 85.2375 83.4746L85.2478 83.5164C85.4286 84.3221 86.4463 84.578 87.2697 84.5622L87.6796 84.5523C88.3918 84.5373 89.134 84.5605 89.6107 85.06C90.1808 85.6575 90.0534 86.609 89.8655 87.4202L89.853 87.474C89.7612 87.8615 89.6276 88.1765 89.4931 88.4933C89.2373 89.0965 88.9784 89.7067 89.0013 90.8385C89.0107 91.2999 89.0273 91.7234 89.0462 92.1111C89.1123 91.8387 89.1706 91.6588 89.1706 91.6588C89.1706 91.6588 96.9364 97.4575 101.733 98.2446C102.307 97.7353 101.976 96.7431 101.397 96.2387C101.153 96.0262 100.875 95.8544 100.598 95.6831C100.218 95.4479 99.8389 95.2134 99.5502 94.8754C98.9768 94.2042 98.8745 93.2794 98.7729 92.3624C98.6624 91.3652 98.553 90.3774 97.8404 89.7348C97.7769 89.6775 97.7091 89.6239 97.6415 89.5704L97.6414 89.5703C97.4887 89.4496 97.3363 89.3291 97.2323 89.1661C96.9754 88.7633 97.1017 88.2025 97.4128 87.8401C97.7241 87.4777 98.1792 87.2752 98.6296 87.1176C99.5643 86.7904 100.589 86.6076 101.544 86.8712C102.498 87.1349 103.353 87.9321 103.447 88.9205C103.628 88.5272 104.026 88.2432 104.455 88.1999L103.832 88.8647L104.621 88.8805L103.535 89.4889C104.208 90.7377 104.099 92.278 103.667 93.6301C103.615 93.7954 103.557 93.9607 103.5 94.1263V94.1265L103.499 94.1272C103.269 94.7908 103.036 95.4599 103.096 96.1524C103.169 97.0039 103.923 97.8739 104.747 97.6995L104.789 97.69C105.779 97.4389 106.864 97.5843 107.754 98.0873C108.792 98.6737 109.499 99.6683 110.198 100.653C110.361 100.881 110.523 101.109 110.688 101.331C111.464 102.372 112.383 103.34 113.531 103.943C114.679 104.546 116.087 104.745 117.283 104.244C117.503 104.152 117.714 104.038 117.925 103.923C118.283 103.729 118.641 103.536 119.037 103.454C119.667 103.323 120.469 103.632 120.543 104.272C120.217 103.727 119.446 103.63 118.839 103.814C118.496 103.918 118.18 104.087 117.864 104.257L117.863 104.257C117.619 104.389 117.375 104.52 117.118 104.621C115.829 105.128 114.33 104.821 113.144 104.106C111.995 103.413 111.095 102.378 110.284 101.307L110.205 101.203C110.123 101.093 110.041 100.983 109.959 100.872V100.872L109.959 100.872L109.959 100.871L109.958 100.871L109.958 100.871L109.958 100.871L109.958 100.871L109.958 100.87C109.387 100.101 108.812 99.3264 108.059 98.7411C107.214 98.0848 106.079 97.6971 105.061 98.0121L104.999 98.0322C104.026 98.3628 102.995 97.4291 102.82 96.4137C102.645 95.3985 103.058 94.384 103.462 93.4365C103.878 92.4592 103.113 91.319 102.149 90.8785C101.254 90.4698 100.179 90.479 99.2909 90.903C99.0033 91.0403 98.9513 91.419 98.961 91.7426L98.9622 91.7784C99.0121 92.9209 99.3164 94.1217 100.148 94.9041C100.395 95.1368 100.681 95.3247 100.966 95.5123C101.323 95.7469 101.679 95.9811 101.958 96.3017C102.46 96.8786 102.537 97.9592 101.84 98.2713C103.036 98.4877 104.219 98.7744 105.382 99.1296C99.1265 98.4877 93.3746 95.5288 89.2452 91.9548C89.1607 92.1203 89.101 92.2953 89.0649 92.4749C89.0746 92.654 89.0843 92.8246 89.0936 92.987C89.1069 93.2164 89.119 93.4293 89.1286 93.6264C89.3274 94.2826 89.7921 94.8607 90.4302 95.115C90.3795 94.6542 90.5345 94.1746 90.8449 93.831C90.6435 94.2824 90.3239 95.1481 91.5701 96.0246ZM101.179 87.1933C100.622 87.0892 100.057 87.0339 99.4904 87.028C99.4519 87.0995 99.4374 87.1836 99.4496 87.2639C100.081 87.3167 100.702 87.4833 101.276 87.7539C101.036 87.9941 100.64 87.8502 100.319 87.7334L100.3 87.7265C99.7505 87.5271 99.1473 87.4787 98.5734 87.5885C98.2807 87.6442 97.9878 87.7449 97.7624 87.9403C97.5369 88.1356 97.3894 88.4398 97.4397 88.7343C97.5039 89.1105 97.8568 89.3676 98.209 89.5124C99.082 89.8709 100.129 89.7699 100.918 89.2507C100.981 89.2087 101.072 89.2788 101.075 89.3554C101.079 89.4321 101.028 89.4998 100.973 89.5538C100.659 89.8677 100.191 89.9675 99.7483 89.9936C99.619 90.001 99.4891 90.0036 99.3591 90.0061H99.3589C99.0437 90.0123 98.7287 90.0185 98.4243 90.0958C98.4654 90.3477 98.779 90.4342 99.0328 90.4528C100.003 90.5234 100.986 90.3924 101.904 90.0707C102.134 89.9902 102.346 90.2211 102.481 90.4239L103.47 91.9037C103.795 91.597 103.775 91.0672 103.622 90.6471C103.562 90.4829 103.486 90.3245 103.41 90.1664C103.291 89.9199 103.173 89.674 103.117 89.4073C103.087 89.2602 103.075 89.1095 103.064 88.9589C103.049 88.7474 103.033 88.5364 102.964 88.3374C102.718 87.6366 101.907 87.3292 101.179 87.1933ZM89.2348 100.7L88.3373 100.183C88.2378 100.126 88.0543 100.116 88.0643 100.231C88.0336 100.696 88.0715 101.265 88.3692 101.652C88.5568 101.896 88.6925 102.021 89.3553 102.186L89.3064 100.885C89.304 100.816 89.2944 100.735 89.2348 100.7ZM102.901 93.6223C103.011 93.5588 103.08 93.4459 103.145 93.3374C103.261 93.1435 103.381 92.938 103.386 92.7119C103.391 92.4857 103.235 92.2388 103.01 92.23C102.898 92.2256 102.791 92.279 102.7 92.3441C102.496 92.4884 102.339 92.6975 102.257 92.9333C102.361 93.0833 102.596 92.9494 102.7 92.7998C102.805 92.6503 102.959 92.4613 103.126 92.536C103.016 92.9175 102.822 93.2743 102.562 93.5733C102.631 93.6788 102.792 93.6859 102.901 93.6223ZM104.697 104.612C104.447 104.215 104.178 103.785 103.733 103.656C104.72 105.518 106.249 107.087 108.083 108.119C108.723 108.479 109.398 108.775 110.073 109.071C111.014 109.483 111.954 109.895 112.795 110.48C113.85 111.213 114.722 112.207 115.312 113.35C115.08 111.721 113.722 110.474 112.271 109.704C111.615 109.355 110.925 109.074 110.236 108.793V108.793C109.402 108.453 108.57 108.114 107.797 107.656C106.564 106.925 105.508 105.897 104.742 104.685C104.727 104.661 104.712 104.636 104.697 104.612ZM107.796 105.163L107.824 105.225C107.945 105.506 108.029 105.86 107.801 106.051C107.62 106.203 107.344 106.145 107.13 106.044C106.666 105.826 106.284 105.441 106.068 104.976C106.338 104.922 106.591 104.785 106.786 104.589C106.947 104.426 107.232 104.459 107.414 104.599C107.596 104.739 107.699 104.955 107.796 105.163ZM107.649 105.83C107.882 105.41 107.406 104.79 107.174 104.75C107.072 104.732 106.968 104.833 106.856 104.94C106.741 105.051 106.618 105.17 106.481 105.177C106.481 105.177 107.416 106.25 107.649 105.83ZM119.42 107.038C125.088 106.851 130.621 104.083 134.177 99.6536C134.361 99.4244 134.726 99.4205 134.982 99.5645C135.238 99.7086 135.411 99.9617 135.574 100.206C135.753 100.18 135.758 99.9024 135.635 99.77C135.574 99.7049 135.498 99.6575 135.422 99.6102C135.344 99.5615 135.266 99.5129 135.205 99.4449C134.957 99.1699 135.089 98.7373 135.234 98.3966L135.881 96.8783C135.968 96.6749 136.103 96.4376 136.324 96.4406C136.485 96.4429 136.609 96.5781 136.712 96.7033C137.827 98.0664 138.862 99.4961 139.81 100.982C139.226 101.073 138.664 100.784 138.111 100.5C137.492 100.182 136.883 99.8691 136.263 100.095C135.722 100.291 135.404 100.837 135.118 101.337C134.182 102.972 133.109 104.548 131.751 105.852C128.596 108.881 124.194 110.191 119.906 111.02C122.558 112.027 125.48 112.31 128.276 111.829C129.876 111.555 131.471 111.013 132.718 109.971C133.223 109.549 133.661 109.054 134.097 108.56L137.308 104.925C137.496 104.712 137.843 104.917 138.018 105.14C138.193 105.364 138.431 105.642 138.698 105.547C138.507 105.118 138.175 104.753 137.766 104.522C137.742 104.01 137.727 103.46 137.998 103.025C138.27 102.59 138.948 102.379 139.301 102.751C140.457 103.971 141.565 105.237 142.621 106.544C142.002 106.642 141.413 106.375 140.828 106.109H140.828H140.828V106.109H140.828C140.647 106.027 140.467 105.945 140.287 105.874C139.522 105.575 138.45 105.581 138.101 106.327C137.147 108.366 136.155 110.458 134.518 112C131.783 114.575 127.787 115.156 124.059 115.58C122.406 115.768 120.708 115.946 119.098 115.524C117.927 115.217 116.861 114.606 115.81 114.001L114.977 113.521C114.732 113.583 114.929 113.956 115.146 114.084C116.542 114.91 117.98 115.751 119.58 116.003C119.988 116.068 120.401 116.093 120.813 116.108C124.61 116.252 128.436 115.584 131.962 114.162C133.432 113.569 134.928 112.776 135.735 111.409L138.581 106.59C138.69 106.406 138.81 106.211 139.003 106.119C139.238 106.008 139.516 106.079 139.766 106.152L142.433 106.928C142.705 107.008 142.959 106.687 142.93 106.404C142.902 106.121 142.698 105.891 142.504 105.683L140.044 103.044C139.72 102.695 139.371 102.332 138.913 102.205C138.455 102.078 137.866 102.301 137.776 102.77C137.512 104.151 136.57 105.29 135.662 106.362C134.256 108.022 132.792 109.728 130.84 110.683C128.042 112.052 124.734 111.654 121.67 111.098L123.657 110.518C124.641 110.23 125.626 109.942 126.579 109.567C130.278 108.109 133.428 105.297 135.3 101.782C135.625 101.172 136.007 100.467 136.686 100.344C137.244 100.244 137.72 100.574 138.206 100.912C138.495 101.113 138.788 101.316 139.104 101.433C139.57 101.605 140.294 101.36 140.184 100.874C140.159 100.764 140.093 100.669 140.028 100.577L137.498 97.0002C137.147 96.5038 136.621 95.9432 136.043 96.1295C135.579 96.2793 135.405 96.8165 135.252 97.2902L135.238 97.3332L135.231 97.3529L135.224 97.3748C134.504 99.5753 132.568 101.113 130.73 102.515C129.926 103.129 129.119 103.744 128.252 104.263C125.717 105.78 122.744 106.422 119.799 106.614C118.966 106.668 118.443 107.451 117.965 108.167C117.908 108.253 117.851 108.337 117.795 108.419C116.975 109.617 115.808 110.572 114.473 111.138C114.697 111.385 115.103 111.237 115.386 111.06C116.725 110.221 117.861 109.058 118.67 107.698C118.848 107.398 119.072 107.05 119.42 107.038ZM101.639 94.1989C101.508 94.485 101.218 94.6912 100.905 94.719C100.593 94.7469 100.271 94.5955 100.092 94.3369C100.026 94.2419 100.027 94.0563 100.142 94.0662C100.381 94.3845 100.879 94.4668 101.207 94.2421C101.349 94.1447 101.596 94.0318 101.639 94.1989ZM99.1265 92.119C99.1547 91.8793 99.3564 91.671 99.5945 91.6354C99.8325 91.5998 100.086 91.74 100.183 91.961C100.009 91.961 99.892 91.9295 99.7949 91.9032C99.5973 91.8497 99.4806 91.818 99.1265 92.119ZM100.972 93.4544L100.701 93.571L100.685 93.562C100.615 93.6961 100.408 93.5443 100.392 93.3935C100.389 93.3624 100.387 93.3295 100.386 93.296C100.38 93.1684 100.373 93.0357 100.268 92.9784C100.137 93.1684 100.076 93.4183 100.153 93.6365C100.23 93.8549 100.462 94.0203 100.689 93.9793C100.916 93.9382 101.079 93.6591 100.972 93.4544ZM101.297 91.6023C101.64 91.6299 101.731 91.6485 101.825 91.8745C101.844 91.9189 101.698 91.877 101.558 91.8371H101.558C101.455 91.8078 101.356 91.7795 101.33 91.7874C100.183 92.1284 100.954 91.5745 101.297 91.6023ZM101.2 92.1962C101.389 92.3468 101.335 92.9463 101.055 92.8336C100.938 92.7864 100.798 91.8766 101.2 92.1962ZM110.265 108.253C110.175 108.14 110.277 107.939 110.422 107.946C110.485 107.987 110.529 108.058 110.536 108.134C110.481 108.223 110.368 108.272 110.266 108.251L110.265 108.253ZM107.69 107.084L107.887 107.054L107.903 107.048C107.971 106.92 107.747 106.774 107.658 106.888C107.639 106.954 107.651 107.028 107.69 107.084ZM109.092 107.863C108.978 107.894 108.962 107.698 109.027 107.598L109.299 107.722C109.257 107.796 109.179 107.848 109.095 107.859L109.092 107.863ZM105.688 104.998C105.658 104.923 105.549 104.894 105.486 104.944L105.504 104.962C105.449 105.033 105.492 105.156 105.58 105.177C105.66 105.169 105.718 105.073 105.688 104.998ZM99.6995 92.8476C99.5897 92.8476 99.475 92.7398 99.4807 92.553C99.4863 92.3659 99.5369 92.1932 99.6995 92.285C99.862 92.3767 99.8126 92.8476 99.6995 92.8476ZM48.5902 70.129C48.6564 70.2161 48.8074 70.1779 48.8655 70.0851C48.9237 69.9926 48.9163 69.8746 48.9059 69.7655C48.7538 68.1901 48.346 66.6395 47.7035 65.1937C47.5205 64.7819 47.328 64.2684 47.6082 63.9157C48.256 65.5393 48.9091 67.183 49.145 68.9156C49.2094 69.3884 49.2325 69.9062 48.9696 70.304C48.7067 70.7019 48.0517 70.8544 47.7596 70.4776C48.2089 70.3835 48.5526 69.9273 48.5202 69.4682C48.7277 69.61 48.7633 69.9466 48.5902 70.129ZM53.8261 101.414C56.1766 101.284 58.8994 100.944 60.1324 98.9333C60.4519 98.4118 60.3838 97.592 60.3275 96.9165C60.2825 96.3737 60.2451 95.9241 60.4228 95.797C60.8216 95.5119 61.1407 96.2474 61.1407 96.2474C61.1525 96.1987 61.1659 96.1384 61.1809 96.0704C61.2924 95.5695 61.4975 94.6464 61.8199 94.8198C61.9524 94.8912 61.9069 95.3398 61.8755 95.6482V95.6484C61.8681 95.7206 61.8615 95.7852 61.8582 95.8354C61.8508 95.883 61.8497 95.9228 61.8554 95.951C61.8598 95.9492 61.8645 95.9466 61.8693 95.9432C61.8712 95.9428 61.8735 95.9418 61.8758 95.9397C61.8776 95.9382 61.8797 95.9363 61.8817 95.9336C61.9339 95.8896 62.0052 95.7806 62.0846 95.6594H62.0848C62.2492 95.4079 62.4483 95.104 62.5817 95.2157C62.7911 95.3913 62.0465 96.5109 62.0465 96.5109C62.0465 96.5109 62.9309 95.5362 63.0056 95.951C63.0802 96.3658 61.0659 100.112 59.2476 101.582C57.4293 103.051 54.8672 103.874 52.5506 103.579C52.6023 102.658 52.9072 101.464 53.8261 101.414ZM61.8817 95.9336C61.8774 95.9374 61.8734 95.9405 61.8693 95.9432C61.8554 95.9455 61.8538 95.9039 61.8582 95.8354C61.8753 95.7269 61.9258 95.5785 62.0066 95.4366C61.9912 95.4852 61.9761 95.5323 61.9616 95.5767C61.897 95.7753 61.8502 95.919 61.8988 95.9078C61.8952 95.9142 61.8919 95.9195 61.8889 95.9241C61.8862 95.9278 61.8839 95.9312 61.8817 95.9336ZM62.3195 95.0883C62.1892 95.1709 62.0841 95.3006 62.0066 95.4366C62.1273 95.0531 62.2494 94.5698 61.9524 94.531C61.4486 94.4656 60.9563 95.2877 61.0436 95.7247C60.9039 95.3766 60.3221 95.5272 60.1812 95.8747C60.0731 96.1414 60.1191 96.4336 60.1648 96.7236C60.1786 96.8116 60.1924 96.8991 60.2019 96.9859C60.3533 98.3718 59.3171 99.6672 58.061 100.265C56.8768 100.828 55.5328 100.908 54.2182 100.949L53.9117 100.957C53.1612 100.977 52.3484 100.96 51.7756 100.479C51.1855 99.9845 51.1862 98.81 51.9272 98.6024C53.8083 98.0756 55.2431 96.2375 55.3015 94.2798C55.3188 93.7011 55.6931 93.2197 56.0546 92.7545C56.0871 92.7126 56.1196 92.671 56.1515 92.6294L56.2309 92.5252C56.6357 91.9867 56.9685 91.2447 56.6287 90.6628C56.1021 91.3404 55.1155 91.6136 54.3168 91.3031C53.9835 91.1735 53.6883 90.9571 53.3948 90.7419C53.002 90.454 52.6124 90.1682 52.1391 90.0967C51.2137 89.9571 50.2957 90.8968 50.4542 91.8217C50.2036 91.6108 49.8149 91.9301 49.7877 92.2569C49.7718 92.4489 49.8221 92.6358 49.8728 92.8235C49.9082 92.9552 49.9439 93.0874 49.9568 93.2219C49.9718 93.3787 49.9557 93.5355 49.9398 93.6924C49.9289 93.7986 49.9181 93.9048 49.9169 94.0111C49.9102 94.5617 50.1547 95.0713 50.3956 95.573L50.396 95.5737L50.3961 95.5742C50.4203 95.6245 50.4443 95.6747 50.4681 95.7248L50.5326 95.8625C50.807 96.4589 51.0104 97.1685 50.718 97.7564C50.4258 98.344 49.4307 98.5281 49.1489 97.9353C47.7674 95.0299 44.636 93.0518 41.4263 93.0566C37.71 93.0623 34.3663 95.5183 32.1762 98.5291C31.903 98.9047 31.6357 99.3092 31.5761 99.77C31.5166 100.231 31.7299 100.76 32.1672 100.914C32.6044 101.068 33.1714 100.637 33.0289 100.195C33.2508 100.454 33.7045 100.209 33.809 99.8834C33.8677 99.7006 33.867 99.5077 33.8663 99.3142C33.8657 99.1632 33.8651 99.0119 33.8928 98.8647C34.0282 98.1427 34.7688 97.7256 35.4354 97.4207L35.5698 97.3594C37.14 96.647 38.7758 96.0108 40.4932 95.8898C42.2598 95.7654 44.1447 96.2577 45.3586 97.5505C43.7022 97.9448 42.7403 99.6115 41.9735 101.151L41.8671 101.366C41.093 102.925 40.079 104.626 38.3813 104.956C38.4458 105.292 38.7414 105.57 39.0799 105.613L32.856 109.323L33.3335 109.917C31.8181 112.246 30.1042 114.445 28.2166 116.483C27.1903 117.591 25.8577 118.738 24.372 118.481C24.1033 118.434 23.8429 118.341 23.5833 118.249C23.2032 118.114 22.8251 117.98 22.426 117.991C21.7544 118.011 21.0804 118.83 21.5362 119.325C22.5459 120.421 23.6982 121.385 24.9547 122.184L24.9873 122.205C25.1402 122.3 25.3085 122.389 25.4859 122.369C25.6652 122.348 25.8111 122.22 25.9445 122.099L34.3737 114.391C35.0641 113.765 35.8238 113.139 36.7435 113.046L36.8211 113.037C37.5012 112.942 38.0615 112.511 38.6235 112.079C38.8681 111.89 39.113 111.702 39.3684 111.541C40.2324 110.995 41.6652 110.939 42.0012 111.906C42.1796 112.42 41.946 112.942 41.7157 113.457C41.6471 113.61 41.5786 113.763 41.5216 113.915C41.2731 114.575 41.4768 115.591 42.1807 115.579L46.1201 115.509C46.2616 115.508 46.4107 115.516 46.5208 115.603C46.6361 115.693 46.6765 115.845 46.6985 115.993L46.7077 116.061C46.8561 117.271 46.8356 118.502 46.6472 119.706C46.4428 121.011 45.8993 122.447 44.6713 122.925C43.8968 123.227 43.0341 123.07 42.2183 122.883L37.2614 121.722C37.2531 121.12 37.7961 120.63 38.3751 120.47C38.866 120.335 39.3815 120.376 39.892 120.417H39.8921C39.9234 120.42 39.9548 120.422 39.9862 120.424L40.1662 120.438C41.4207 120.524 42.6889 120.408 43.9067 120.093L42.1495 115.684C42.3286 117.148 42.7235 118.585 43.3173 119.934L37.5409 120.122C37.0378 120.136 36.4794 120.114 36.1413 119.746C36.0545 119.651 35.9822 119.535 35.9105 119.42C35.7633 119.183 35.6188 118.951 35.3574 118.92C35.1315 118.894 34.9269 119.046 34.7539 119.194C33.6246 120.16 32.6869 121.35 32.0113 122.675C32.2549 123.28 33.0619 123.449 33.6888 123.276C34.0556 123.174 34.3903 122.992 34.7257 122.808C34.9636 122.678 35.2019 122.548 35.4522 122.446C36.8485 121.881 38.3835 122.264 39.8583 122.709L40.734 122.977C42.465 123.498 44.5755 123.766 45.8727 122.504C46.638 121.759 46.917 120.65 47.0686 119.592C47.5058 116.537 47.1513 113.371 46.0491 110.49C47.278 110.015 47.8579 108.636 48.3088 107.395L49.1918 104.964C49.4867 104.152 50.1569 103.156 50.9547 103.483C53.2351 104.418 55.9286 104.023 58.0517 102.769C60.1749 101.515 61.7641 99.4847 62.8347 97.2594L62.8633 97.1993C63.0728 96.757 63.3398 95.7252 63.1014 95.6109C63.0124 95.541 62.854 95.6572 62.7462 95.7363C62.6877 95.7792 62.6442 95.8112 62.6343 95.797C62.6281 95.7885 62.6477 95.7314 62.6754 95.6503C62.7844 95.3318 63.0198 94.6439 62.3195 95.0883ZM47.2286 108.733C46.9528 109.355 46.4963 110.087 45.8224 110.004C45.4615 109.96 45.1891 109.687 44.9439 109.406L44.8125 109.254C43.3884 107.596 41.4538 106.494 39.5094 105.48L38.8614 105.144C40.4454 104.832 41.4224 103.261 42.1202 101.801L42.3425 101.336C42.9804 100.009 43.7064 98.6447 45.0223 98.0476C45.2042 97.965 45.4128 97.8993 45.6004 97.9678C45.6288 97.9783 45.6595 97.9901 45.6914 98.0023C45.923 98.0917 46.2212 98.2067 46.2164 97.9868C45.7943 97.816 45.7248 97.1984 45.9683 96.8128C46.1907 96.4606 46.5759 96.2573 46.9572 96.0823L47.0659 96.0329C46.8228 95.6965 46.2955 95.9793 46.02 96.2899L45.9973 96.315C45.7209 96.6192 45.2965 96.9522 44.9775 96.705C43.6589 95.6834 41.9019 95.3555 40.2433 95.5158C38.5849 95.6762 37.0025 96.2844 35.4874 96.9795C34.9321 97.2343 34.3681 97.5121 33.956 97.9641C33.6372 98.3136 33.6042 98.779 33.571 99.2467C33.5612 99.3837 33.5515 99.5208 33.5346 99.6553C33.4937 99.9804 33.3153 99.993 33.1582 100.004C33.0739 100.01 32.9958 100.015 32.9483 100.068C32.9444 100.072 32.9321 100.091 32.9136 100.12C32.8193 100.265 32.564 100.658 32.4487 100.619C32.2794 100.562 32.3657 100.195 32.3657 100.195C32.3657 100.195 31.8632 100.339 31.8258 100.195C31.6949 99.6909 32.4487 98.6596 32.4487 98.6596C33.7161 96.79 35.5955 95.2385 37.6618 94.3367C39.7663 93.4183 42.2222 93.241 44.3736 94.0428C46.7991 94.9469 48.7199 97.1065 49.339 99.626C49.4934 100.254 50.222 100.531 50.8587 100.636C50.8802 100.639 50.9019 100.643 50.9236 100.646C50.9619 100.653 51.0005 100.659 51.0394 100.665L51.0402 100.665C51.6279 100.757 52.2526 100.855 52.627 101.305C52.7375 101.437 52.7069 101.633 52.669 101.802L52.6579 101.851C52.5183 102.451 52.2746 103.124 51.6925 103.306C51.1632 103.472 50.5364 103.044 50.4959 102.49C50.4923 102.441 50.4913 102.389 50.4902 102.337C50.4858 102.121 50.481 101.894 50.3007 101.806L47.2286 108.733ZM42.225 112.019C42.027 110.999 41.4258 110.082 40.6366 109.409C40.6675 109.81 40.8366 110.198 41.1085 110.494C39.7714 110.92 38.5104 111.585 37.4029 112.449C37.1067 112.68 36.603 112.891 36.4294 112.557C35.7464 111.244 34.659 110.145 33.3542 109.45L38.7185 106.359C38.9608 106.219 39.2173 106.075 39.4969 106.073C39.7136 106.07 39.9195 106.154 40.1155 106.251L40.2128 106.3C42.22 107.337 44.017 108.781 45.4627 110.52C45.8208 110.951 45.9874 111.502 46.1293 112.048L46.7672 114.548C46.8095 114.713 46.8404 114.918 46.7111 115.029C46.6384 115.092 46.5358 115.103 46.4402 115.11L46.3283 115.119C44.74 115.241 43.4585 115.34 41.8671 115.11C41.6298 114.654 41.8091 114.088 41.9944 113.504C42.1532 113.003 42.3162 112.489 42.225 112.019ZM34.2449 110.481C34.8401 111.007 35.3766 111.599 35.8414 112.244C35.8911 112.313 35.9423 112.39 35.937 112.475C35.9308 112.574 35.8507 112.65 35.7762 112.715L28.8432 118.801C28.5541 119.054 28.093 119.01 27.7692 118.802C27.4858 118.621 27.2832 118.343 27.0974 118.059L27.0185 117.938C28.8254 116.986 29.9844 115.28 31.1538 113.559C31.8873 112.479 32.6248 111.394 33.5288 110.485C33.6167 110.396 33.7158 110.305 33.8395 110.291C33.9924 110.274 34.1294 110.379 34.2449 110.481ZM54.4347 93.5078L54.6117 93.5623C54.9565 93.6692 55.0137 94.1323 54.9699 94.4916C54.7882 95.9788 53.8665 97.4507 52.4452 97.9128L52.3944 97.93C51.4683 98.2579 50.8063 99.2294 50.8458 100.215C50.2241 100.332 49.5576 99.833 49.4923 99.2021C49.4792 99.0763 49.5165 98.913 49.6411 98.8937C50.2059 98.8068 50.7253 98.4591 51.0222 97.9696C51.3192 97.4799 51.3881 96.8576 51.2052 96.3146C51.168 96.2037 51.1205 96.0927 51.0731 95.9814C50.9379 95.6654 50.8024 95.3481 50.8973 95.0294C51.1137 95.0494 51.1548 95.347 51.132 95.5638L51.1295 95.5902C51.1119 95.8039 51.1495 96.078 51.3563 96.1065C51.4925 95.7928 51.5209 95.4415 51.549 95.0927C51.5845 94.6526 51.6198 94.2166 51.8714 93.8658C52.1592 93.4648 52.6755 93.2805 53.1682 93.2746C53.5993 93.2697 54.0207 93.3819 54.4347 93.5078ZM23.2838 118.581L23.3282 118.529C23.5763 118.475 23.8133 118.794 23.6904 119.017C23.6116 119.16 23.854 119.301 23.9894 119.21C24.1248 119.119 24.1521 118.934 24.167 118.772C24.3032 118.729 24.421 118.885 24.4467 119.026C24.4535 119.063 24.4577 119.102 24.4619 119.14C24.4737 119.248 24.4854 119.355 24.5529 119.436C24.6446 119.545 24.8876 119.489 24.8477 119.351C24.7883 119.146 25.0298 118.979 25.2406 118.948C25.2912 118.941 25.3436 118.937 25.396 118.933C25.5618 118.919 25.7289 118.905 25.8495 118.797L25.8677 118.783C26.0208 118.674 26.2104 118.875 26.326 119.054L26.3798 119.141C26.6339 119.537 27.0658 119.815 27.5315 119.878C27.6228 119.89 27.5764 120.033 27.5093 120.096L25.9376 121.581C25.8615 121.653 25.738 121.601 25.6487 121.547C24.7158 120.974 23.8546 120.284 23.0916 119.498C22.8512 119.25 23.0551 118.855 23.2838 118.581ZM37.0283 121.343C36.9831 121.531 36.8542 121.74 36.6626 121.726C36.201 121.692 35.7328 121.748 35.2921 121.889C35.3325 121.701 35.2503 121.492 35.0924 121.382C34.9772 121.547 35.0243 121.803 35.1907 121.916L34.7513 122.351L34.5409 121.867C34.4372 121.894 34.4341 122.022 34.4413 122.139L34.4464 122.212C34.4675 122.519 34.2079 122.817 33.9018 122.838C33.5958 122.858 33.2986 122.598 33.2783 122.291C33.2563 121.956 33.5117 121.676 33.7491 121.44L35.435 119.766C35.4708 119.732 35.5119 119.7 35.5603 119.701C35.6138 119.702 35.6571 119.742 35.6948 119.781L36.3526 120.446C36.4802 120.575 36.3996 120.773 36.321 120.965C36.2401 121.163 36.1614 121.356 36.3142 121.464C36.4629 121.472 36.5867 121.343 36.6439 121.205C36.673 121.135 36.6907 121.06 36.7085 120.986C36.7255 120.915 36.7425 120.844 36.7697 120.776C36.8251 120.637 36.9448 120.505 37.0938 120.508C37.2427 120.511 37.3576 120.725 37.2424 120.819C37.1195 120.921 37.0846 121.085 37.0504 121.244V121.245C37.0433 121.278 37.0362 121.311 37.0283 121.343ZM25.5017 122.084C23.9864 121.271 22.6469 120.13 21.6014 118.762C21.7385 118.632 21.9447 118.771 22.0773 118.918L22.1101 118.957C23.1035 120.19 24.3511 121.215 25.7512 121.951C25.7398 122.062 25.5997 122.136 25.5017 122.084ZM32.7689 121.772C33.4254 120.911 34.1526 120.105 34.941 119.364C35.0632 119.249 35.317 119.171 35.3479 119.337C34.4301 120.215 33.5524 121.136 32.7182 122.094C32.6275 122.015 32.696 121.868 32.7689 121.772ZM27.7278 119.62C27.2697 119.457 26.8614 119.156 26.5688 118.767C26.4588 118.62 26.3893 118.366 26.5561 118.29C26.688 118.231 26.8146 118.356 26.9065 118.477L26.9755 118.571C27.2718 118.963 27.6944 119.258 28.1644 119.399C28.1652 119.524 28.0614 119.642 27.9368 119.657C27.8659 119.665 27.7951 119.644 27.7278 119.62ZM50.2052 94.144C50.4205 94.1492 50.6028 94.3743 50.5638 94.5866L50.5687 94.5898C50.5986 94.7437 50.579 94.9069 50.5137 95.0494C50.2781 94.8177 50.1602 94.4718 50.2052 94.144ZM54.3075 94.1493C54.3346 94.1469 54.3632 94.1444 54.3922 94.144C54.4285 94.1437 54.4705 94.15 54.5101 94.1562C54.6166 94.1729 54.7058 94.1867 54.6216 94.0543C54.506 93.8731 54.1681 93.8526 54.1127 94.0605C54.1282 94.1653 54.2087 94.158 54.3075 94.1493ZM54.5796 95.046C54.5812 95.0396 54.5828 95.0334 54.5843 95.0272C54.6666 94.7151 54.6189 94.4688 54.3922 94.4688C54.3048 94.4755 54.1712 94.9223 54.1839 95.0577C54.1967 95.1932 54.3489 95.3185 54.4668 95.2513C54.5369 95.2115 54.5593 95.1247 54.5796 95.046ZM53.0837 94.9511C52.9256 94.731 52.909 94.4174 53.0429 94.1817C53.0629 94.1465 53.087 94.112 53.1222 94.0918C53.2109 94.0409 53.3295 94.1099 53.3687 94.2045C53.4077 94.2994 53.3906 94.4068 53.3729 94.5079C53.3729 94.5079 53.2418 95.1715 53.0837 94.9511ZM86.5739 94.9577C83.6857 94.2472 80.6687 94.0676 77.717 94.4307C78.2293 93.2339 78.4543 91.9145 78.3674 90.6149C77.5982 91.1553 76.3356 90.5213 76.3063 89.5798C76.2772 88.6384 77.4984 87.927 78.2995 88.4188C78.5118 88.549 78.7453 88.2788 78.8301 88.0441C79.1194 87.2446 79.1222 86.3442 78.8381 85.543C78.7273 85.2308 79.197 85.0616 79.5272 85.0682L82.3299 85.1237C82.5182 85.1275 82.718 85.1283 82.8787 85.0299C83.0395 84.9317 83.1307 84.6953 83.0127 84.5484C82.5278 83.9448 83.085 82.8648 83.8565 82.9135C84.6279 82.962 85.0461 84.1035 84.4897 84.6413C84.3859 84.7417 84.5876 84.8709 84.7318 84.8742L88.3964 84.9588C89.1254 84.9756 89.6403 85.7544 89.6701 86.4849C89.6954 87.1031 89.4764 87.6952 89.2602 88.2799C89.2413 88.3308 89.2225 88.3818 89.2039 88.4327L89.1441 88.598C88.4949 90.4246 88.2859 92.4066 88.5401 94.3288C88.5895 94.7038 88.2452 95.0375 87.8769 95.1186C87.5519 95.1902 87.2171 95.1193 86.8917 95.0377L86.5739 94.9577Z" fill="#2C2C2E"/>
<path fill-rule="evenodd" clip-rule="evenodd" d="M47.511 61.3196C47.5378 61.1465 47.7679 61.0466 47.9343 61.106C48.1007 61.1654 48.2493 61.4044 48.1273 61.5397C47.9343 61.7538 47.4593 61.6555 47.511 61.3196Z" fill="#FFAB01"/>
<path fill-rule="evenodd" clip-rule="evenodd" d="M119.933 106.177C119.824 106.268 119.606 106.301 119.586 106.161C120.011 105.727 120.303 105.165 120.413 104.568C120.552 104.531 120.592 104.752 120.557 104.892C120.44 105.362 120.304 105.865 119.933 106.177Z" fill="#2C2C2E"/>
<path d="M26.2239 54.5775C26.2196 54.717 26.008 54.7089 25.8801 54.6532C25.9261 54.5287 26.1128 54.4871 26.2074 54.5802L26.2239 54.5775Z" fill="#1C1C1E"/>
<path fill-rule="evenodd" clip-rule="evenodd" d="M86.4874 92.9329C86.3402 93.0642 86.0926 92.8635 86.1145 92.6672C86.1364 92.471 86.3099 92.3305 86.4761 92.2248C87.0724 91.846 87.7629 91.6177 88.467 91.5667C88.4858 91.8359 88.1378 91.947 87.8737 91.9987C87.3132 92.1082 86.7793 92.3519 86.3286 92.7033C86.4101 92.7534 86.469 92.8389 86.4874 92.9329Z" fill="#2C2C2E"/>
<path fill-rule="evenodd" clip-rule="evenodd" d="M88.4869 93.2763C88.1566 93.4361 87.8204 93.5839 87.4793 93.7191C87.518 93.8633 87.7248 93.8585 87.8651 93.8079C88.0052 93.7571 88.1896 93.7037 88.2805 93.8223C88.0498 94.1753 87.4784 94.2303 87.185 93.9277C87.0574 93.7962 86.8264 93.8828 86.6616 93.803C86.4259 93.6888 86.4698 93.3317 86.6087 93.1091C86.8984 92.6442 87.4511 92.3575 87.9969 92.389C88.2048 92.4011 88.453 92.5039 88.4668 92.7122C87.815 92.6711 87.1504 92.9406 86.7103 93.4246C86.9604 93.6186 87.3189 93.4738 87.6009 93.3305C87.8829 93.1873 88.2552 93.0606 88.4869 93.2763Z" fill="#2C2C2E"/>
<path fill-rule="evenodd" clip-rule="evenodd" d="M53.7869 95.1305C53.974 95.3183 54.0516 95.4041 54.0516 95.6803C54.0516 95.9564 53.9023 96.1335 53.6502 96.2146C53.5341 96.2521 53.3731 96.2234 53.343 96.1049C54.1829 95.9329 53.8743 95.5657 53.7869 95.1305Z" fill="#2C2C2E"/>
<path fill-rule="evenodd" clip-rule="evenodd" d="M52.6664 93.9557C52.7558 93.658 53.1456 93.4971 53.4185 93.6452C53.5264 93.7038 53.6163 93.8104 53.6219 93.9332C53.3034 93.9406 53.041 93.7343 52.6664 93.9557Z" fill="#2C2C2E"/>
<path fill-rule="evenodd" clip-rule="evenodd" d="M53.4289 96.6172C51.6521 95.6289 53.0431 96.8953 53.4289 96.6172V96.6172Z" fill="#2C2C2E"/>
</g>
<defs>
<clipPath id="clip0_231_1367">
<rect width="123.701" height="84.057" fill="white" transform="translate(19.2307 39.3544)"/>
</clipPath>
</defs>
</svg>
